%TF.GenerationSoftware,KiCad,Pcbnew,(6.0.4)*%
%TF.CreationDate,2022-07-15T23:35:53-07:00*%
%TF.ProjectId,danns87_corne_custom,64616e6e-7338-4375-9f63-6f726e655f63,v1.0.0*%
%TF.SameCoordinates,Original*%
%TF.FileFunction,Copper,L2,Bot*%
%TF.FilePolarity,Positive*%
%FSLAX46Y46*%
G04 Gerber Fmt 4.6, Leading zero omitted, Abs format (unit mm)*
G04 Created by KiCad (PCBNEW (6.0.4)) date 2022-07-15 23:35:53*
%MOMM*%
%LPD*%
G01*
G04 APERTURE LIST*
G04 Aperture macros list*
%AMRotRect*
0 Rectangle, with rotation*
0 The origin of the aperture is its center*
0 $1 length*
0 $2 width*
0 $3 Rotation angle, in degrees counterclockwise*
0 Add horizontal line*
21,1,$1,$2,0,0,$3*%
%AMFreePoly0*
4,1,5,0.125000,-0.500000,-0.125000,-0.500000,-0.125000,0.500000,0.125000,0.500000,0.125000,-0.500000,0.125000,-0.500000,$1*%
%AMFreePoly1*
4,1,6,0.600000,0.200000,0.000000,-0.400000,-0.600000,0.200000,-0.600000,0.400000,0.600000,0.400000,0.600000,0.200000,0.600000,0.200000,$1*%
%AMFreePoly2*
4,1,49,0.004773,0.123721,0.009154,0.124665,0.028961,0.117240,0.062500,0.108253,0.068237,0.102516,0.075053,0.099961,0.087617,0.083136,0.108253,0.062500,0.111178,0.051584,0.117161,0.043572,0.118539,0.024114,0.125000,0.000000,0.121239,-0.014035,0.122131,-0.026629,0.113759,-0.041951,0.108253,-0.062500,0.095644,-0.075109,0.088389,-0.088388,-0.641000,-0.817776,-0.641000,-4.770224,
0.088389,-5.499612,0.109852,-5.528356,0.124665,-5.597154,0.099961,-5.663053,0.043572,-5.705161,-0.026629,-5.710131,-0.088388,-5.676389,-0.854388,-4.910388,-0.867707,-4.892552,-0.871189,-4.889530,-0.871982,-4.886826,-0.875852,-4.881644,-0.882331,-4.851549,-0.891000,-4.822000,-0.891000,-0.766000,-0.887805,-0.743969,-0.888131,-0.739371,-0.886780,-0.736898,-0.885852,-0.730498,-0.869151,-0.704632,
-0.854388,-0.677612,-0.088388,0.088389,-0.064606,0.106147,-0.062500,0.108253,-0.061385,0.108552,-0.059644,0.109852,-0.043806,0.113262,0.000000,0.125000,0.004773,0.123721,0.004773,0.123721,$1*%
%AMFreePoly3*
4,1,6,0.600000,-0.250000,-0.600000,-0.250000,-0.600000,1.000000,0.000000,0.400000,0.600000,1.000000,0.600000,-0.250000,0.600000,-0.250000,$1*%
G04 Aperture macros list end*
%TA.AperFunction,ComponentPad*%
%ADD10C,1.000000*%
%TD*%
%TA.AperFunction,ComponentPad*%
%ADD11C,1.905000*%
%TD*%
%TA.AperFunction,SMDPad,CuDef*%
%ADD12R,0.900000X1.200000*%
%TD*%
%TA.AperFunction,ComponentPad*%
%ADD13R,1.778000X1.778000*%
%TD*%
%TA.AperFunction,SMDPad,CuDef*%
%ADD14R,2.600000X2.600000*%
%TD*%
%TA.AperFunction,SMDPad,CuDef*%
%ADD15R,2.000000X1.000000*%
%TD*%
%TA.AperFunction,SMDPad,CuDef*%
%ADD16FreePoly0,270.000000*%
%TD*%
%TA.AperFunction,SMDPad,CuDef*%
%ADD17FreePoly1,90.000000*%
%TD*%
%TA.AperFunction,ComponentPad*%
%ADD18R,1.600000X1.600000*%
%TD*%
%TA.AperFunction,SMDPad,CuDef*%
%ADD19FreePoly1,270.000000*%
%TD*%
%TA.AperFunction,ComponentPad*%
%ADD20C,1.600000*%
%TD*%
%TA.AperFunction,SMDPad,CuDef*%
%ADD21FreePoly0,90.000000*%
%TD*%
%TA.AperFunction,SMDPad,CuDef*%
%ADD22FreePoly2,270.000000*%
%TD*%
%TA.AperFunction,ComponentPad*%
%ADD23C,0.800000*%
%TD*%
%TA.AperFunction,SMDPad,CuDef*%
%ADD24FreePoly3,90.000000*%
%TD*%
%TA.AperFunction,SMDPad,CuDef*%
%ADD25FreePoly3,270.000000*%
%TD*%
%TA.AperFunction,SMDPad,CuDef*%
%ADD26FreePoly2,90.000000*%
%TD*%
%TA.AperFunction,SMDPad,CuDef*%
%ADD27R,1.000000X0.800000*%
%TD*%
%TA.AperFunction,SMDPad,CuDef*%
%ADD28R,0.700000X1.500000*%
%TD*%
%TA.AperFunction,SMDPad,CuDef*%
%ADD29RotRect,0.900000X1.200000X345.000000*%
%TD*%
%TA.AperFunction,ComponentPad*%
%ADD30RotRect,1.778000X1.778000X345.000000*%
%TD*%
%TA.AperFunction,SMDPad,CuDef*%
%ADD31RotRect,0.900000X1.200000X15.000000*%
%TD*%
%TA.AperFunction,ComponentPad*%
%ADD32RotRect,1.778000X1.778000X15.000000*%
%TD*%
%TA.AperFunction,SMDPad,CuDef*%
%ADD33RotRect,2.600000X2.600000X345.000000*%
%TD*%
%TA.AperFunction,SMDPad,CuDef*%
%ADD34RotRect,2.600000X2.600000X15.000000*%
%TD*%
%TA.AperFunction,ViaPad*%
%ADD35C,0.800000*%
%TD*%
%TA.AperFunction,Conductor*%
%ADD36C,0.250000*%
%TD*%
G04 APERTURE END LIST*
D10*
%TO.P,PAD1,1*%
%TO.N,pos*%
X123105000Y5400000D03*
%TO.P,PAD1,2*%
%TO.N,GND*%
X125645000Y5400000D03*
%TD*%
D11*
%TO.P,D10,1*%
%TO.N,middle_bottom*%
X75810000Y11150000D03*
D12*
%TO.N,P6*%
X70350000Y11150000D03*
D13*
%TO.P,D10,2*%
X68190000Y11150000D03*
D12*
%TO.N,middle_bottom*%
X73650000Y11150000D03*
%TD*%
%TO.P,D9,1*%
%TO.N,P4*%
X52350000Y40900000D03*
D11*
%TO.N,ring_top*%
X57810000Y40900000D03*
D13*
%TO.P,D9,2*%
%TO.N,P4*%
X50190000Y40900000D03*
D12*
%TO.N,ring_top*%
X55650000Y40900000D03*
%TD*%
D11*
%TO.P,D7,1*%
%TO.N,ring_bottom*%
X57810000Y6900000D03*
D12*
%TO.N,P6*%
X52350000Y6900000D03*
%TO.P,D7,2*%
%TO.N,ring_bottom*%
X55650000Y6900000D03*
D13*
%TO.N,P6*%
X50190000Y6900000D03*
%TD*%
D12*
%TO.P,D2,1*%
%TO.N,P5*%
X16350000Y12000000D03*
D11*
%TO.N,outer_home*%
X21810000Y12000000D03*
D12*
%TO.P,D2,2*%
X19650000Y12000000D03*
D13*
%TO.N,P5*%
X14190000Y12000000D03*
%TD*%
D12*
%TO.P,D16,1*%
%TO.N,P6*%
X106350000Y3500000D03*
D11*
%TO.N,inner_bottom*%
X111810000Y3500000D03*
D13*
%TO.P,D16,2*%
%TO.N,P6*%
X104190000Y3500000D03*
D12*
%TO.N,inner_bottom*%
X109650000Y3500000D03*
%TD*%
D14*
%TO.P,S2,1*%
%TO.N,outer_home*%
X14725000Y22950000D03*
%TO.P,S2,2*%
%TO.N,P21*%
X26275000Y20750000D03*
%TD*%
D12*
%TO.P,D1,1*%
%TO.N,P6*%
X16350000Y-5000000D03*
D11*
%TO.N,outer_bottom*%
X21810000Y-5000000D03*
D12*
%TO.P,D1,2*%
X19650000Y-5000000D03*
D13*
%TO.N,P6*%
X14190000Y-5000000D03*
%TD*%
D12*
%TO.P,D6,1*%
%TO.N,P4*%
X34350000Y29000000D03*
D11*
%TO.N,pinky_top*%
X39810000Y29000000D03*
D13*
%TO.P,D6,2*%
%TO.N,P4*%
X32190000Y29000000D03*
D12*
%TO.N,pinky_top*%
X37650000Y29000000D03*
%TD*%
D15*
%TO.P,S22,1*%
%TO.N,RST*%
X130810000Y7075000D03*
%TO.P,S22,2*%
%TO.N,GND*%
X130810000Y14075000D03*
%TD*%
D11*
%TO.P,D13,1*%
%TO.N,index_bottom*%
X93810000Y6900000D03*
D12*
%TO.N,P6*%
X88350000Y6900000D03*
D13*
%TO.P,D13,2*%
X86190000Y6900000D03*
D12*
%TO.N,index_bottom*%
X91650000Y6900000D03*
%TD*%
D11*
%TO.P,D4,1*%
%TO.N,pinky_bottom*%
X39810000Y-5000000D03*
D12*
%TO.N,P6*%
X34350000Y-5000000D03*
%TO.P,D4,2*%
%TO.N,pinky_bottom*%
X37650000Y-5000000D03*
D13*
%TO.N,P6*%
X32190000Y-5000000D03*
%TD*%
D16*
%TO.P,MCU1,*%
%TO.N,*%
X133240000Y35910000D03*
X133240000Y43530000D03*
D17*
X121048000Y33370000D03*
D18*
X134510000Y46070000D03*
D19*
X132732000Y30830000D03*
D17*
X121048000Y20670000D03*
X121048000Y25750000D03*
D20*
X119270000Y43530000D03*
X119270000Y33370000D03*
D19*
X132732000Y25750000D03*
D20*
X119270000Y23210000D03*
D21*
X120540000Y23210000D03*
D20*
X134510000Y25750000D03*
D19*
X132732000Y20670000D03*
X132732000Y40990000D03*
D21*
X120540000Y43530000D03*
D20*
X119270000Y25750000D03*
X134510000Y20670000D03*
D21*
X120540000Y46070000D03*
X120540000Y33370000D03*
D17*
X121048000Y43530000D03*
D21*
X120540000Y40990000D03*
D17*
X121048000Y35910000D03*
D20*
X134510000Y28290000D03*
D17*
X121048000Y30830000D03*
D16*
X133240000Y40990000D03*
D20*
X134510000Y18130000D03*
X134510000Y40990000D03*
D21*
X120540000Y20670000D03*
D16*
X133240000Y38450000D03*
D20*
X119270000Y20670000D03*
X134510000Y33370000D03*
D17*
X121048000Y40990000D03*
D21*
X120540000Y28290000D03*
D20*
X119270000Y35910000D03*
D16*
X133240000Y46070000D03*
D20*
X134510000Y23210000D03*
D19*
X132732000Y35910000D03*
X132732000Y46070000D03*
D16*
X133240000Y28290000D03*
D21*
X120540000Y18130000D03*
D20*
X134510000Y30830000D03*
D17*
X121048000Y46070000D03*
D19*
X132732000Y23210000D03*
D20*
X134510000Y46070000D03*
D21*
X120540000Y38450000D03*
D20*
X134510000Y43530000D03*
X119270000Y46070000D03*
D21*
X120540000Y25750000D03*
D17*
X121048000Y23210000D03*
D16*
X133240000Y23210000D03*
D20*
X119270000Y40990000D03*
D17*
X121048000Y28290000D03*
D21*
X120540000Y30830000D03*
D20*
X119270000Y18130000D03*
D17*
X121048000Y18130000D03*
D19*
X132732000Y43530000D03*
D16*
X133240000Y18130000D03*
D21*
X120540000Y35910000D03*
D20*
X134510000Y35910000D03*
D19*
X132732000Y28290000D03*
D20*
X119270000Y28290000D03*
D19*
X132732000Y38450000D03*
D16*
X133240000Y25750000D03*
X133240000Y20670000D03*
D20*
X119270000Y38450000D03*
D19*
X132732000Y33370000D03*
D17*
X121048000Y38450000D03*
D16*
X133240000Y30830000D03*
D20*
X134510000Y38450000D03*
X119270000Y30830000D03*
D16*
X133240000Y33370000D03*
D19*
X132732000Y18130000D03*
D22*
%TO.P,MCU1,1*%
%TO.N,RAW*%
X127652000Y46070000D03*
D23*
X127652000Y46070000D03*
D24*
X122064000Y46070000D03*
D23*
%TO.P,MCU1,2*%
%TO.N,GND*%
X127652000Y43530000D03*
D22*
X127652000Y43530000D03*
D24*
%TO.N,N/C*%
X122064000Y43530000D03*
D22*
%TO.P,MCU1,3*%
%TO.N,RST*%
X127652000Y40990000D03*
D23*
X127652000Y40990000D03*
D24*
X122064000Y40990000D03*
D22*
%TO.P,MCU1,4*%
%TO.N,VCC*%
X127652000Y38450000D03*
D24*
X122064000Y38450000D03*
D23*
X127652000Y38450000D03*
%TO.P,MCU1,5*%
%TO.N,P21*%
X127652000Y35910000D03*
D22*
X127652000Y35910000D03*
D24*
X122064000Y35910000D03*
D23*
%TO.P,MCU1,6*%
%TO.N,P20*%
X127652000Y33370000D03*
D22*
X127652000Y33370000D03*
D24*
X122064000Y33370000D03*
D22*
%TO.P,MCU1,7*%
%TO.N,P19*%
X127652000Y30830000D03*
D24*
X122064000Y30830000D03*
D23*
X127652000Y30830000D03*
%TO.P,MCU1,8*%
%TO.N,P18*%
X127652000Y28290000D03*
D24*
X122064000Y28290000D03*
D22*
X127652000Y28290000D03*
%TO.P,MCU1,9*%
%TO.N,P15*%
X127652000Y25750000D03*
D24*
X122064000Y25750000D03*
D23*
X127652000Y25750000D03*
D24*
%TO.P,MCU1,10*%
%TO.N,P14*%
X122064000Y23210000D03*
D23*
X127652000Y23210000D03*
D22*
X127652000Y23210000D03*
%TO.P,MCU1,11*%
%TO.N,P16*%
X127652000Y20670000D03*
D23*
X127652000Y20670000D03*
D24*
X122064000Y20670000D03*
D22*
%TO.P,MCU1,12*%
%TO.N,P10*%
X127652000Y18130000D03*
D23*
X127652000Y18130000D03*
D24*
X122064000Y18130000D03*
D23*
%TO.P,MCU1,13*%
%TO.N,P9*%
X126128000Y18130000D03*
D25*
X131716000Y18130000D03*
D26*
X126128000Y18130000D03*
D25*
%TO.P,MCU1,14*%
%TO.N,P8*%
X131716000Y20670000D03*
D23*
X126128000Y20670000D03*
D26*
X126128000Y20670000D03*
D23*
%TO.P,MCU1,15*%
%TO.N,P7*%
X126128000Y23210000D03*
D26*
X126128000Y23210000D03*
D25*
X131716000Y23210000D03*
%TO.P,MCU1,16*%
%TO.N,P6*%
X131716000Y25750000D03*
D26*
X126128000Y25750000D03*
D23*
X126128000Y25750000D03*
D25*
%TO.P,MCU1,17*%
%TO.N,P5*%
X131716000Y28290000D03*
D26*
X126128000Y28290000D03*
D23*
X126128000Y28290000D03*
D26*
%TO.P,MCU1,18*%
%TO.N,P4*%
X126128000Y30830000D03*
D23*
X126128000Y30830000D03*
D25*
X131716000Y30830000D03*
%TO.P,MCU1,19*%
%TO.N,P3*%
X131716000Y33370000D03*
D23*
X126128000Y33370000D03*
D26*
X126128000Y33370000D03*
D23*
%TO.P,MCU1,20*%
%TO.N,P2*%
X126128000Y35910000D03*
D25*
X131716000Y35910000D03*
D26*
X126128000Y35910000D03*
D23*
%TO.P,MCU1,21*%
%TO.N,GND*%
X126128000Y38450000D03*
D25*
X131716000Y38450000D03*
D26*
X126128000Y38450000D03*
%TO.P,MCU1,22*%
X126128000Y40990000D03*
D23*
X126128000Y40990000D03*
D25*
X131716000Y40990000D03*
D23*
%TO.P,MCU1,23*%
%TO.N,P0*%
X126128000Y43530000D03*
D25*
X131716000Y43530000D03*
D26*
X126128000Y43530000D03*
%TO.P,MCU1,24*%
%TO.N,P1*%
X126128000Y46070000D03*
D25*
X131716000Y46070000D03*
D23*
X126128000Y46070000D03*
%TD*%
D14*
%TO.P,S1,1*%
%TO.N,outer_bottom*%
X14725000Y5950000D03*
%TO.P,S1,2*%
%TO.N,P21*%
X26275000Y3750000D03*
%TD*%
%TO.P,S5,1*%
%TO.N,pinky_home*%
X32725000Y22950000D03*
%TO.P,S5,2*%
%TO.N,P20*%
X44275000Y20750000D03*
%TD*%
%TO.P,S15,1*%
%TO.N,index_top*%
X86725000Y51850000D03*
%TO.P,S15,2*%
%TO.N,P15*%
X98275000Y49650000D03*
%TD*%
D12*
%TO.P,D14,1*%
%TO.N,P5*%
X88350000Y23900000D03*
D11*
%TO.N,index_home*%
X93810000Y23900000D03*
D12*
%TO.P,D14,2*%
X91650000Y23900000D03*
D13*
%TO.N,P5*%
X86190000Y23900000D03*
%TD*%
D14*
%TO.P,S6,1*%
%TO.N,pinky_top*%
X32725000Y39950000D03*
%TO.P,S6,2*%
%TO.N,P20*%
X44275000Y37750000D03*
%TD*%
%TO.P,S9,1*%
%TO.N,ring_top*%
X50725000Y51850000D03*
%TO.P,S9,2*%
%TO.N,P19*%
X62275000Y49650000D03*
%TD*%
%TO.P,S8,1*%
%TO.N,ring_home*%
X50725000Y34850000D03*
%TO.P,S8,2*%
%TO.N,P19*%
X62275000Y32650000D03*
%TD*%
D12*
%TO.P,D18,1*%
%TO.N,P4*%
X106350000Y37500000D03*
D11*
%TO.N,inner_top*%
X111810000Y37500000D03*
D12*
%TO.P,D18,2*%
X109650000Y37500000D03*
D13*
%TO.N,P4*%
X104190000Y37500000D03*
%TD*%
D14*
%TO.P,S4,1*%
%TO.N,pinky_bottom*%
X32725000Y5950000D03*
%TO.P,S4,2*%
%TO.N,P20*%
X44275000Y3750000D03*
%TD*%
D12*
%TO.P,D8,1*%
%TO.N,P5*%
X52350000Y23900000D03*
D11*
%TO.N,ring_home*%
X57810000Y23900000D03*
D12*
%TO.P,D8,2*%
X55650000Y23900000D03*
D13*
%TO.N,P5*%
X50190000Y23900000D03*
%TD*%
D14*
%TO.P,S18,1*%
%TO.N,inner_top*%
X104725000Y48450000D03*
%TO.P,S18,2*%
%TO.N,P14*%
X116275000Y46250000D03*
%TD*%
%TO.P,S13,1*%
%TO.N,index_bottom*%
X86725000Y17850000D03*
%TO.P,S13,2*%
%TO.N,P15*%
X98275000Y15650000D03*
%TD*%
D12*
%TO.P,D11,1*%
%TO.N,P5*%
X70350000Y28150000D03*
D11*
%TO.N,middle_home*%
X75810000Y28150000D03*
D12*
%TO.P,D11,2*%
X73650000Y28150000D03*
D13*
%TO.N,P5*%
X68190000Y28150000D03*
%TD*%
D14*
%TO.P,S12,1*%
%TO.N,middle_top*%
X68725000Y56100000D03*
%TO.P,S12,2*%
%TO.N,P18*%
X80275000Y53900000D03*
%TD*%
D11*
%TO.P,D3,1*%
%TO.N,outer_top*%
X21810000Y29000000D03*
D12*
%TO.N,P4*%
X16350000Y29000000D03*
D13*
%TO.P,D3,2*%
X14190000Y29000000D03*
D12*
%TO.N,outer_top*%
X19650000Y29000000D03*
%TD*%
D11*
%TO.P,D5,1*%
%TO.N,pinky_home*%
X39810000Y12000000D03*
D12*
%TO.N,P5*%
X34350000Y12000000D03*
D13*
%TO.P,D5,2*%
X32190000Y12000000D03*
D12*
%TO.N,pinky_home*%
X37650000Y12000000D03*
%TD*%
D27*
%TO.P,T1,*%
%TO.N,*%
X123240000Y48895000D03*
X123240000Y51105000D03*
X130540000Y51105000D03*
X130540000Y48895000D03*
D28*
%TO.P,T1,1*%
%TO.N,pos*%
X124640000Y48245000D03*
%TO.P,T1,2*%
%TO.N,RAW*%
X127640000Y48245000D03*
%TO.P,T1,3*%
%TO.N,N/C*%
X129140000Y48245000D03*
%TD*%
D14*
%TO.P,S11,1*%
%TO.N,middle_home*%
X68725000Y39100000D03*
%TO.P,S11,2*%
%TO.N,P18*%
X80275000Y36900000D03*
%TD*%
%TO.P,S10,1*%
%TO.N,middle_bottom*%
X68725000Y22100000D03*
%TO.P,S10,2*%
%TO.N,P18*%
X80275000Y19900000D03*
%TD*%
D11*
%TO.P,D17,1*%
%TO.N,inner_home*%
X111810000Y20500000D03*
D12*
%TO.N,P5*%
X106350000Y20500000D03*
D13*
%TO.P,D17,2*%
X104190000Y20500000D03*
D12*
%TO.N,inner_home*%
X109650000Y20500000D03*
%TD*%
D11*
%TO.P,D20,1*%
%TO.N,home_thumb*%
X111796700Y-13541300D03*
D12*
%TO.N,P7*%
X106336700Y-13541300D03*
D13*
%TO.P,D20,2*%
X104176700Y-13541300D03*
D12*
%TO.N,home_thumb*%
X109636700Y-13541300D03*
%TD*%
D29*
%TO.P,D21,1*%
%TO.N,P7*%
X124992122Y-15562849D03*
D11*
%TO.N,far_thumb*%
X130266077Y-16976001D03*
D30*
%TO.P,D21,2*%
%TO.N,P7*%
X122905723Y-15003799D03*
D29*
%TO.N,far_thumb*%
X128179678Y-16416951D03*
%TD*%
D14*
%TO.P,S7,1*%
%TO.N,ring_bottom*%
X50725000Y17850000D03*
%TO.P,S7,2*%
%TO.N,P19*%
X62275000Y15650000D03*
%TD*%
%TO.P,S17,1*%
%TO.N,inner_home*%
X104725000Y31450000D03*
%TO.P,S17,2*%
%TO.N,P14*%
X116275000Y29250000D03*
%TD*%
D11*
%TO.P,D12,1*%
%TO.N,middle_top*%
X75810000Y45150000D03*
D12*
%TO.N,P4*%
X70350000Y45150000D03*
%TO.P,D12,2*%
%TO.N,middle_top*%
X73650000Y45150000D03*
D13*
%TO.N,P4*%
X68190000Y45150000D03*
%TD*%
D12*
%TO.P,D15,1*%
%TO.N,P4*%
X88350000Y40900000D03*
D11*
%TO.N,index_top*%
X93810000Y40900000D03*
D13*
%TO.P,D15,2*%
%TO.N,P4*%
X86190000Y40900000D03*
D12*
%TO.N,index_top*%
X91650000Y40900000D03*
%TD*%
D14*
%TO.P,S20,1*%
%TO.N,home_thumb*%
X104711700Y-2591300D03*
%TO.P,S20,2*%
%TO.N,P15*%
X116261700Y-4791300D03*
%TD*%
D11*
%TO.P,D19,1*%
%TO.N,near_thumb*%
X93067677Y-15003799D03*
D31*
%TO.N,P7*%
X87793722Y-16416951D03*
D32*
%TO.P,D19,2*%
X85707323Y-16976001D03*
D31*
%TO.N,near_thumb*%
X90981278Y-15562849D03*
%TD*%
D33*
%TO.P,S21,1*%
%TO.N,far_thumb*%
X126256566Y-4565409D03*
%TO.P,S21,2*%
%TO.N,P14*%
X136843608Y-9679806D03*
%TD*%
D14*
%TO.P,S3,1*%
%TO.N,outer_top*%
X14725000Y39950000D03*
%TO.P,S3,2*%
%TO.N,P21*%
X26275000Y37750000D03*
%TD*%
D34*
%TO.P,S19,1*%
%TO.N,near_thumb*%
X83390020Y-6260674D03*
%TO.P,S19,2*%
%TO.N,P18*%
X95115865Y-5396351D03*
%TD*%
D14*
%TO.P,S14,1*%
%TO.N,index_home*%
X86725000Y34850000D03*
%TO.P,S14,2*%
%TO.N,P15*%
X98275000Y32650000D03*
%TD*%
%TO.P,S16,1*%
%TO.N,inner_bottom*%
X104725000Y14450000D03*
%TO.P,S16,2*%
%TO.N,P14*%
X116275000Y12250000D03*
%TD*%
D35*
%TO.N,P21*%
X47159000Y39694100D03*
X26275000Y11196900D03*
%TO.N,P6*%
X97523800Y47736600D03*
X128600600Y51172500D03*
%TO.N,outer_home*%
X23214500Y23577000D03*
%TO.N,P4*%
X96803500Y37500000D03*
%TO.N,P20*%
X46458800Y37288200D03*
X43095300Y12376600D03*
X115536700Y32520900D03*
X41526300Y13282000D03*
%TO.N,pinky_home*%
X41213800Y22950000D03*
%TO.N,P19*%
X62275000Y23052000D03*
%TO.N,P18*%
X80275000Y51993000D03*
X78648278Y-5372650D03*
X83203500Y38224400D03*
X117379700Y32605200D03*
X80275000Y34775000D03*
%TO.N,P15*%
X95250000Y26518900D03*
X98275000Y42527300D03*
X101600000Y635000D03*
%TO.N,P14*%
X108591300Y22497200D03*
X121975600Y21940000D03*
X136525000Y-5080000D03*
X114783300Y43731400D03*
%TO.N,GND*%
X114053800Y37109400D03*
X105369700Y17873400D03*
%TO.N,RST*%
X133985000Y12966400D03*
%TO.N,pos*%
X104665100Y17148100D03*
X127000000Y50299900D03*
%TD*%
D36*
%TO.N,outer_bottom*%
X15240000Y-1365300D02*
X15240000Y5435000D01*
X21810000Y-5000000D02*
X19650000Y-5000000D01*
X18874700Y-5000000D02*
X15240000Y-1365300D01*
X15240000Y5435000D02*
X14725000Y5950000D01*
X19650000Y-5000000D02*
X18874700Y-5000000D01*
%TO.N,P21*%
X26275000Y37750000D02*
X27900300Y37750000D01*
X31894701Y42252301D02*
X44600799Y42252301D01*
X26275000Y11196900D02*
X26275000Y3750000D01*
X44600799Y42252301D02*
X47159000Y39694100D01*
X26275000Y37750000D02*
X26275000Y20750000D01*
X26275000Y20750000D02*
X26275000Y11196900D01*
X27900300Y37750000D02*
X27900300Y38257900D01*
X27900300Y38257900D02*
X31894701Y42252301D01*
%TO.N,P6*%
X94097000Y35443000D02*
X95785000Y35443000D01*
X104190000Y3500000D02*
X100005000Y3500000D01*
X52350000Y6900000D02*
X50190000Y6900000D01*
X52350000Y6900000D02*
X53125300Y6900000D01*
X88350000Y6900000D02*
X86190000Y6900000D01*
X129582800Y50190300D02*
X132514600Y50190300D01*
X68190000Y11150000D02*
X66975700Y11150000D01*
X70350000Y11150000D02*
X68190000Y11150000D01*
X135673100Y27850200D02*
X134896500Y27073600D01*
X132114300Y27073600D02*
X131716000Y26675300D01*
X97529900Y37187900D02*
X97529900Y47730500D01*
X61434800Y5609100D02*
X54416200Y5609100D01*
X95112000Y19092700D02*
X95112000Y24971750D01*
X132514600Y50190300D02*
X135673100Y47031800D01*
X54416200Y5609100D02*
X53125300Y6900000D01*
X34350000Y-5000000D02*
X32190000Y-5000000D01*
X97529900Y47730500D02*
X97523800Y47736600D01*
X66975700Y11150000D02*
X61434800Y5609100D01*
X92418415Y11086585D02*
X92418415Y16399115D01*
X92418415Y16399115D02*
X95112000Y19092700D01*
X134896500Y27073600D02*
X132114300Y27073600D01*
X93763800Y28156200D02*
X92710000Y29210000D01*
X92710000Y34290000D02*
X94097000Y35443000D01*
X16350000Y-5000000D02*
X14190000Y-5000000D01*
X128600600Y51172500D02*
X129582800Y50190300D01*
X131716000Y25750000D02*
X131716000Y26675300D01*
X92710000Y29210000D02*
X92710000Y34290000D01*
X100005000Y3500000D02*
X92418415Y11086585D01*
X135673100Y47031800D02*
X135673100Y27850200D01*
X93763800Y26319950D02*
X93763800Y28156200D01*
X104190000Y3500000D02*
X106350000Y3500000D01*
X95112000Y24971750D02*
X93763800Y26319950D01*
X95785000Y35443000D02*
X97529900Y37187900D01*
%TO.N,outer_home*%
X21391500Y25400000D02*
X23214500Y23577000D01*
X15240000Y15634700D02*
X15240000Y22435000D01*
X21810000Y12000000D02*
X19650000Y12000000D01*
X15240000Y22435000D02*
X14725000Y22950000D01*
X15875000Y25400000D02*
X21391500Y25400000D01*
X19650000Y12000000D02*
X18874700Y12000000D01*
X14725000Y22950000D02*
X14725000Y24250000D01*
X14725000Y24250000D02*
X15875000Y25400000D01*
X18874700Y12000000D02*
X15240000Y15634700D01*
%TO.N,P5*%
X125083729Y27157500D02*
X125083729Y27158479D01*
X106350000Y20500000D02*
X107125300Y20500000D01*
X34350000Y12000000D02*
X32190000Y12000000D01*
X34350000Y12000000D02*
X35125300Y12000000D01*
X116840000Y26035000D02*
X117962500Y27157500D01*
X75375300Y23900000D02*
X71125300Y28150000D01*
X70350000Y28150000D02*
X68190000Y28150000D01*
X50190000Y20545000D02*
X50190000Y23900000D01*
X107125300Y20500000D02*
X108407800Y19217500D01*
X70350000Y28150000D02*
X71125300Y28150000D01*
X104190000Y20500000D02*
X106350000Y20500000D01*
X36413800Y10711500D02*
X40356500Y10711500D01*
X16350000Y12000000D02*
X14190000Y12000000D01*
X35125300Y12000000D02*
X36413800Y10711500D01*
X40356500Y10711500D02*
X50190000Y20545000D01*
X117962500Y27157500D02*
X125083729Y27157500D01*
X112337100Y19217500D02*
X116840000Y23720400D01*
X88350000Y23900000D02*
X86190000Y23900000D01*
X108407800Y19217500D02*
X112337100Y19217500D01*
X86190000Y23900000D02*
X75375300Y23900000D01*
X52350000Y23900000D02*
X50190000Y23900000D01*
X116840000Y23720400D02*
X116840000Y26035000D01*
X125083729Y27158479D02*
X126128000Y28290000D01*
%TO.N,outer_top*%
X15240000Y39435000D02*
X14725000Y39950000D01*
X21810000Y29000000D02*
X19650000Y29000000D01*
X18874700Y29000000D02*
X15240000Y32634700D01*
X19650000Y29000000D02*
X18874700Y29000000D01*
X15240000Y32634700D02*
X15240000Y39435000D01*
%TO.N,P4*%
X16350000Y29000000D02*
X14190000Y29000000D01*
X50190000Y40900000D02*
X48975700Y40900000D01*
X47460300Y38929200D02*
X46415900Y38929200D01*
X34350000Y29000000D02*
X35125300Y29000000D01*
X36448100Y27677200D02*
X35125300Y29000000D01*
X88350000Y40900000D02*
X86190000Y40900000D01*
X40005000Y41275000D02*
X38735000Y40005000D01*
X92525300Y37500000D02*
X96803500Y37500000D01*
X43815000Y41275000D02*
X40005000Y41275000D01*
X89125300Y40900000D02*
X92525300Y37500000D01*
X48975700Y40900000D02*
X48975700Y40444600D01*
X48975700Y40444600D02*
X47460300Y38929200D01*
X41106400Y30572300D02*
X41106400Y28461300D01*
X40322300Y27677200D02*
X36448100Y27677200D01*
X41106400Y28461300D02*
X40322300Y27677200D01*
X46415900Y38929200D02*
X45720800Y39624300D01*
X88350000Y40900000D02*
X89125300Y40900000D01*
X52350000Y40900000D02*
X50190000Y40900000D01*
X39154900Y32523800D02*
X41106400Y30572300D01*
X38735000Y33020000D02*
X39154900Y32523800D01*
X45720800Y39624300D02*
X43815000Y41275000D01*
X106350000Y37500000D02*
X104190000Y37500000D01*
X38735000Y40005000D02*
X38735000Y33020000D01*
X34350000Y29000000D02*
X32190000Y29000000D01*
X70350000Y45150000D02*
X68190000Y45150000D01*
%TO.N,pinky_bottom*%
X33430998Y-412898D02*
X33430998Y5244002D01*
X39810000Y-5000000D02*
X38425200Y-5000000D01*
X33430998Y5244002D02*
X32725000Y5950000D01*
X38425200Y-5000000D02*
X37650000Y-5000000D01*
X38018100Y-5000000D02*
X33430998Y-412898D01*
X38425200Y-5000000D02*
X38018100Y-5000000D01*
%TO.N,P20*%
X117573900Y34558100D02*
X115536700Y32520900D01*
X44275000Y37288200D02*
X46458800Y37288200D01*
X44275000Y37288200D02*
X44275000Y20750000D01*
X44275000Y3750000D02*
X44275000Y11196900D01*
X122064000Y34295300D02*
X121801200Y34558100D01*
X122064000Y33370000D02*
X122064000Y34102000D01*
X44275000Y20750000D02*
X44275000Y16030700D01*
X121801200Y34558100D02*
X117573900Y34558100D01*
X44275000Y16030700D02*
X41526300Y13282000D01*
X44275000Y37750000D02*
X44275000Y37288200D01*
X44275000Y11196900D02*
X43095300Y12376600D01*
X122064000Y34102000D02*
X122064000Y34295300D01*
%TO.N,pinky_home*%
X37650000Y12000000D02*
X36874700Y12000000D01*
X39810000Y12000000D02*
X37650000Y12000000D01*
X33921700Y21088100D02*
X34689800Y20320000D01*
X33921700Y21753300D02*
X32725000Y22950000D01*
X34689800Y20320000D02*
X37369800Y20320000D01*
X39999800Y22950000D02*
X41213800Y22950000D01*
X36874700Y12000000D02*
X33359472Y15515228D01*
X33359472Y20525872D02*
X33921700Y21088100D01*
X33921700Y21088100D02*
X33921700Y21753300D01*
X37369800Y20320000D02*
X39999800Y22950000D01*
X33359472Y15515228D02*
X33359472Y20525872D01*
%TO.N,pinky_top*%
X39810000Y29000000D02*
X37650000Y29000000D01*
X33305470Y39369530D02*
X32725000Y39950000D01*
X37650000Y29000000D02*
X36874700Y29000000D01*
X33305470Y32569230D02*
X33305470Y39369530D01*
X36874700Y29000000D02*
X33305470Y32569230D01*
%TO.N,ring_bottom*%
X51435000Y17140000D02*
X50725000Y17850000D01*
X57810000Y6900000D02*
X55650000Y6900000D01*
X54874700Y6900000D02*
X51435000Y10339700D01*
X51435000Y10339700D02*
X51435000Y17140000D01*
X55650000Y6900000D02*
X54874700Y6900000D01*
%TO.N,P19*%
X62275000Y23052000D02*
X62275000Y15650000D01*
X62275000Y32650000D02*
X62275000Y23052000D01*
X62275000Y49650000D02*
X62275000Y32650000D01*
%TO.N,ring_home*%
X51435000Y34140000D02*
X50725000Y34850000D01*
X55650000Y23900000D02*
X54874700Y23900000D01*
X51435000Y27339700D02*
X51435000Y34140000D01*
X57810000Y23900000D02*
X55650000Y23900000D01*
X54874700Y23900000D02*
X51435000Y27339700D01*
%TO.N,ring_top*%
X54985000Y40900000D02*
X51435000Y44450000D01*
X57810000Y40900000D02*
X56425200Y40900000D01*
X51435000Y51140000D02*
X50725000Y51850000D01*
X56425200Y40900000D02*
X55650000Y40900000D01*
X51435000Y44450000D02*
X51435000Y51140000D01*
X56425200Y40900000D02*
X54985000Y40900000D01*
%TO.N,middle_bottom*%
X73650000Y11150000D02*
X72874700Y11150000D01*
X75810000Y11150000D02*
X73650000Y11150000D01*
X69215000Y21610000D02*
X68725000Y22100000D01*
X69215000Y14809700D02*
X69215000Y21610000D01*
X72874700Y11150000D02*
X69215000Y14809700D01*
%TO.N,P18*%
X81900300Y36921200D02*
X81900300Y36900000D01*
X87768400Y26035000D02*
X89125400Y24678000D01*
X94582500Y-3405700D02*
X94582500Y2409100D01*
X90805000Y-1905000D02*
X78648278Y-5372650D01*
X118144600Y30278900D02*
X118144600Y31840300D01*
X121226300Y29415400D02*
X122064000Y28577700D01*
X95115900Y-5396400D02*
X94582500Y-3405700D01*
X80275000Y36900000D02*
X81900300Y36900000D01*
X122064000Y28577700D02*
X122064000Y28290000D01*
X121226300Y29415400D02*
X119008100Y29415400D01*
X83203500Y38224400D02*
X81900300Y36921200D01*
X89125400Y23160300D02*
X85865100Y19900000D01*
X80275000Y29580000D02*
X83820000Y26035000D01*
X83820000Y26035000D02*
X87768400Y26035000D01*
X85865100Y19900000D02*
X80275000Y19900000D01*
X80275000Y53900000D02*
X80275000Y51993000D01*
X80275000Y34775000D02*
X80275000Y29580000D01*
X89125400Y24678000D02*
X89125400Y23160300D01*
X84455000Y8890000D02*
X80275000Y13070000D01*
X94582500Y2409100D02*
X88101600Y8890000D01*
X80275000Y13070000D02*
X80275000Y19900000D01*
X80275000Y36900000D02*
X80275000Y34775000D01*
X88101600Y8890000D02*
X84455000Y8890000D01*
X118144600Y31840300D02*
X117379700Y32605200D01*
X119008100Y29415400D02*
X118144600Y30278900D01*
X95115865Y-5396351D02*
X90805000Y-1905000D01*
X80275000Y51993000D02*
X80275000Y36900000D01*
%TO.N,middle_home*%
X75810000Y28150000D02*
X73650000Y28150000D01*
X73650000Y28150000D02*
X72874700Y28150000D01*
X72874700Y28150000D02*
X69215000Y31809700D01*
X69215000Y38610000D02*
X68725000Y39100000D01*
X69215000Y31809700D02*
X69215000Y38610000D01*
%TO.N,middle_top*%
X73650000Y45150000D02*
X72874700Y45150000D01*
X72874700Y45150000D02*
X69215000Y48809700D01*
X73650000Y45150000D02*
X75810000Y45150000D01*
X69215000Y48809700D02*
X69215000Y55610000D01*
X69215000Y55610000D02*
X68725000Y56100000D01*
%TO.N,index_bottom*%
X87317404Y10558661D02*
X87317404Y17257596D01*
X87317404Y17257596D02*
X86725000Y17850000D01*
X93810000Y6900000D02*
X91650000Y6900000D01*
X91650000Y6900000D02*
X90976065Y6900000D01*
X90976065Y6900000D02*
X87317404Y10558661D01*
%TO.N,P15*%
X111164200Y16282500D02*
X109666700Y17780000D01*
X95250000Y26300882D02*
X100532800Y21018082D01*
X100532800Y21018082D02*
X100532800Y16282500D01*
X112395000Y635000D02*
X116261700Y-3231700D01*
X110490000Y15608300D02*
X111164200Y16282500D01*
X98275000Y15650000D02*
X99900300Y15650000D01*
X116261700Y-3231700D02*
X116261700Y-4791300D01*
X121863900Y24624600D02*
X120290800Y24624600D01*
X122064000Y24824700D02*
X121863900Y24624600D01*
X98275000Y49650000D02*
X98275000Y42527300D01*
X111164200Y16695700D02*
X119093100Y24624600D01*
X116261700Y-4791300D02*
X116261700Y3760000D01*
X95250000Y26518900D02*
X95250000Y26300882D01*
X98275000Y42527300D02*
X98275000Y32650000D01*
X98275000Y28425000D02*
X96368900Y26518900D01*
X119093100Y24624600D02*
X120290800Y24624600D01*
X110490000Y9531700D02*
X110490000Y15608300D01*
X106818307Y17780000D02*
X105320807Y16282500D01*
X122064000Y25750000D02*
X122064000Y24824700D01*
X100532800Y16282500D02*
X99900300Y15650000D01*
X109666700Y17780000D02*
X106818307Y17780000D01*
X116261700Y3760000D02*
X110490000Y9531700D01*
X111164200Y16282500D02*
X111164200Y16695700D01*
X105320807Y16282500D02*
X100532800Y16282500D01*
X98275000Y32650000D02*
X98275000Y28425000D01*
X96368900Y26518900D02*
X95250000Y26518900D01*
X101600000Y635000D02*
X112395000Y635000D01*
%TO.N,index_home*%
X90874700Y23900000D02*
X87219883Y27554817D01*
X87219883Y34355117D02*
X86725000Y34850000D01*
X91650000Y23900000D02*
X90874700Y23900000D01*
X87219883Y27554817D02*
X87219883Y34355117D01*
X93810000Y23900000D02*
X91650000Y23900000D01*
%TO.N,index_top*%
X90874700Y40900000D02*
X87328293Y44446407D01*
X93810000Y40900000D02*
X91650000Y40900000D01*
X91650000Y40900000D02*
X90874700Y40900000D01*
X87328293Y44446407D02*
X87328293Y51246707D01*
X87328293Y51246707D02*
X86725000Y51850000D01*
%TO.N,inner_bottom*%
X111810000Y3500000D02*
X109650000Y3500000D01*
X104725000Y14450000D02*
X105410000Y13765000D01*
X105410000Y13765000D02*
X105410000Y6985000D01*
X105410000Y6985000D02*
X108895000Y3500000D01*
X108895000Y3500000D02*
X109650000Y3500000D01*
%TO.N,P14*%
X116086200Y30875300D02*
X116275000Y30875300D01*
X115676600Y44624700D02*
X114783300Y43731400D01*
X116275000Y29793400D02*
X113374600Y26893000D01*
X121975600Y21940000D02*
X121860000Y22055600D01*
X116275000Y46250000D02*
X116275000Y44624700D01*
X114783300Y32178200D02*
X116086200Y30875300D01*
X116275000Y19279000D02*
X119051600Y22055600D01*
X116275000Y30062700D02*
X116275000Y30875300D01*
X116275000Y12250000D02*
X116275000Y19279000D01*
X116275000Y29250000D02*
X116275000Y29793400D01*
X119051600Y22055600D02*
X121860000Y22055600D01*
X121860000Y22055600D02*
X121860000Y22080700D01*
X121860000Y22080700D02*
X122064000Y22284700D01*
X116275000Y44624700D02*
X115676600Y44624700D01*
X112987100Y26893000D02*
X108591300Y22497200D01*
X137795000Y-8728414D02*
X136843608Y-9679806D01*
X136525000Y-5080000D02*
X137795000Y-6350000D01*
X113374600Y26893000D02*
X112987100Y26893000D01*
X122064000Y23210000D02*
X122064000Y22284700D01*
X114783300Y43731400D02*
X114783300Y32178200D01*
X137795000Y-6350000D02*
X137795000Y-8728414D01*
X116275000Y30062700D02*
X116275000Y29793400D01*
%TO.N,inner_home*%
X111810000Y20500000D02*
X109650000Y20500000D01*
X105410000Y23964700D02*
X105410000Y30765000D01*
X105410000Y30765000D02*
X104725000Y31450000D01*
X108874700Y20500000D02*
X105410000Y23964700D01*
X109650000Y20500000D02*
X108874700Y20500000D01*
%TO.N,inner_top*%
X105410000Y40964700D02*
X105410000Y47765000D01*
X108874700Y37500000D02*
X105410000Y40964700D01*
X105410000Y47765000D02*
X104725000Y48450000D01*
X111810000Y37500000D02*
X109650000Y37500000D01*
X109650000Y37500000D02*
X108874700Y37500000D01*
%TO.N,near_thumb*%
X83390000Y-6260700D02*
X85090000Y-7960700D01*
X85090000Y-12065000D02*
X88587849Y-15562849D01*
X85090000Y-7960700D02*
X85090000Y-12065000D01*
X90981278Y-15562849D02*
X93067677Y-15003799D01*
X88587849Y-15562849D02*
X90981278Y-15562849D01*
%TO.N,P7*%
X86001500Y-16681800D02*
X85707300Y-16976000D01*
X131445000Y4445000D02*
X127000000Y4445000D01*
X135654800Y8654800D02*
X131445000Y4445000D01*
X132641300Y22284700D02*
X132986000Y21940000D01*
X87793700Y-16417000D02*
X86805300Y-16681800D01*
X121418400Y-13516500D02*
X121418400Y-14605300D01*
X122905700Y-15003800D02*
X123199900Y-15298000D01*
X127000000Y4445000D02*
X120015000Y-2540000D01*
X121418400Y-14605300D02*
X122905700Y-15003800D01*
X124003700Y-15298000D02*
X124992100Y-15562800D01*
X120015000Y-2540000D02*
X120015000Y-12113100D01*
X134913800Y21940000D02*
X135654800Y21199000D01*
X131716000Y23210000D02*
X131716000Y22284700D01*
X131716000Y22284700D02*
X132641300Y22284700D01*
X132986000Y21940000D02*
X134913800Y21940000D01*
X135654800Y21199000D02*
X135654800Y8654800D01*
X120015000Y-12113100D02*
X121418400Y-13516500D01*
X86805300Y-16681800D02*
X86001500Y-16681800D01*
X123199900Y-15298000D02*
X124003700Y-15298000D01*
X106336700Y-13541300D02*
X104176700Y-13541300D01*
%TO.N,home_thumb*%
X108861400Y-13541300D02*
X105280758Y-9960658D01*
X105280758Y-3160358D02*
X104711700Y-2591300D01*
X105280758Y-9960658D02*
X105280758Y-3160358D01*
X109636700Y-13541300D02*
X108861400Y-13541300D01*
X111796700Y-13541300D02*
X109636700Y-13541300D01*
%TO.N,far_thumb*%
X127191200Y-16152100D02*
X128179700Y-16417000D01*
X129168100Y-16681900D02*
X129462200Y-16976000D01*
X125095000Y-9445250D02*
X125095000Y-13332300D01*
X127191200Y-15428500D02*
X127191200Y-16152100D01*
X129462200Y-16976000D02*
X130266100Y-16976000D01*
X125095000Y-13332300D02*
X127191200Y-15428500D01*
X129168100Y-16681800D02*
X129168100Y-16681900D01*
X126256600Y-8283650D02*
X125095000Y-9445250D01*
X128179700Y-16417000D02*
X129168100Y-16681800D01*
X126256600Y-4565400D02*
X126256600Y-8283650D01*
%TO.N,RAW*%
X127640000Y46082000D02*
X127652000Y46070000D01*
X127640000Y48245000D02*
X127640000Y46082000D01*
%TO.N,GND*%
X130615800Y14075000D02*
X129484700Y14075000D01*
X101124100Y24774100D02*
X101124100Y30949700D01*
X123045000Y7635300D02*
X129484700Y14075000D01*
X103747600Y33573200D02*
X110517600Y33573200D01*
X102275000Y20175100D02*
X102275000Y23623200D01*
X123045000Y5400000D02*
X123045000Y7635300D01*
X102275000Y23623200D02*
X101124100Y24774100D01*
X110517600Y33573200D02*
X114053800Y37109400D01*
X101124100Y30949700D02*
X103747600Y33573200D01*
X104576700Y17873400D02*
X102275000Y20175100D01*
X130615800Y14075000D02*
X130810000Y14075000D01*
X105369700Y17873400D02*
X104576700Y17873400D01*
%TO.N,RST*%
X133985000Y10250000D02*
X130810000Y7075000D01*
X133985000Y12966400D02*
X133985000Y10250000D01*
%TO.N,pos*%
X124640000Y49320300D02*
X124544000Y49416300D01*
X124496900Y50306300D02*
X124102007Y49911407D01*
X125055443Y51473536D02*
X124496900Y50914993D01*
X124544000Y49416300D02*
X124544000Y50259200D01*
X103995900Y50800000D02*
X100673800Y47477900D01*
X127000000Y50299900D02*
X127000000Y50725936D01*
X124640000Y48245000D02*
X124640000Y49320300D01*
X101665600Y20521000D02*
X101665600Y20147600D01*
X100673800Y21512800D02*
X101665600Y20521000D01*
X122884571Y49911407D02*
X121995978Y50800000D01*
X124496900Y50914993D02*
X124496900Y50306300D01*
X127000000Y50725936D02*
X126252400Y51473536D01*
X124102007Y49911407D02*
X122884571Y49911407D01*
X126252400Y51473536D02*
X125055443Y51473536D01*
X101665600Y20147600D02*
X104665100Y17148100D01*
X100673800Y47477900D02*
X100673800Y21512800D01*
X124544000Y50259200D02*
X124496900Y50306300D01*
X121995978Y50800000D02*
X103995900Y50800000D01*
%TD*%
M02*
