%FSLAX45Y45*%
G04 Gerber Fmt 4.5, Leading zero omitted, Abs format (unit mm)*
G04 Created by KiCad (PCBNEW (6.0.4)) date 2022-07-03 12:25:23*
%MOMM*%
%LPD*%
G01*
G04 APERTURE LIST*
%TA.AperFunction,Profile*%
%ADD10C,0.150000*%
%TD*%
%ADD11C,0.200000*%
%ADD12C,0.040000*%
%ADD13C,0.070000*%
%ADD14C,0.099060*%
%ADD15C,0.110000*%
G04 APERTURE END LIST*
D10*
X9950000Y5400000D02*
X9950000Y5390000D01*
X4750000Y290000D02*
X6150000Y290000D01*
X9931580Y-1754125D02*
G75*
G03*
X9879816Y-1760940I0J-199995D01*
G01*
X4200000Y4300000D02*
G75*
G03*
X4400000Y4500000I0J200000D01*
G01*
X6050000Y5490000D02*
G75*
G03*
X6250000Y5690000I0J200000D01*
G01*
X13572748Y-2050993D02*
X13935095Y-698697D01*
X6250000Y5690000D02*
X6250000Y5805000D01*
X8590912Y-242803D02*
G75*
G03*
X8689097Y-181965I-51762J193183D01*
G01*
X4350000Y-900000D02*
G75*
G03*
X4550000Y-700000I0J200000D01*
G01*
X4550000Y-700000D02*
X4550000Y90000D01*
X11717517Y-1760941D02*
G75*
G03*
X11665753Y-1754126I-51767J-193189D01*
G01*
X12891370Y340000D02*
G75*
G03*
X12741288Y7806I0J-200000D01*
G01*
X8250000Y290000D02*
X8662376Y290000D01*
X13440000Y340000D02*
G75*
G03*
X13640000Y540000I0J200000D01*
G01*
X10150000Y5190000D02*
X13440000Y5190000D01*
X8150000Y5800000D02*
G75*
G03*
X8350000Y5600000I200000J0D01*
G01*
X12891370Y340000D02*
X13440000Y340000D01*
X6450000Y6005000D02*
G75*
G03*
X6250000Y5805000I0J-200000D01*
G01*
X4750000Y290000D02*
G75*
G03*
X4550000Y90000I0J-200000D01*
G01*
X6150000Y290000D02*
G75*
G03*
X6350000Y490000I0J200000D01*
G01*
X8050000Y490000D02*
G75*
G03*
X8250000Y290000I200000J0D01*
G01*
X8150000Y5805000D02*
X8150000Y5800000D01*
X6550000Y715000D02*
X7850000Y715000D01*
X4400000Y4500000D02*
X4400000Y5290000D01*
X9950000Y5400000D02*
G75*
G03*
X9750000Y5600000I-200000J0D01*
G01*
X13935091Y-698696D02*
G75*
G03*
X13793674Y-453748I-193182J51766D01*
G01*
X1000000Y4300000D02*
G75*
G03*
X800000Y4100000I0J-200000D01*
G01*
X8350000Y5600000D02*
X9750000Y5600000D01*
X7803659Y-453748D02*
X8590912Y-242804D01*
X8050000Y490000D02*
X8050000Y515000D01*
X6450000Y6005000D02*
X7950000Y6005000D01*
X8150000Y5805000D02*
G75*
G03*
X7950000Y6005000I-200000J0D01*
G01*
X8812327Y-42347D02*
G75*
G03*
X8662376Y290000I-149947J132347D01*
G01*
X1000000Y-900000D02*
X4350000Y-900000D01*
X13327798Y-2192419D02*
G75*
G03*
X13572748Y-2050993I51762J193189D01*
G01*
X4600000Y5490000D02*
X6050000Y5490000D01*
X9931580Y-1754126D02*
X11665753Y-1754126D01*
X9950000Y5390000D02*
G75*
G03*
X10150000Y5190000I200000J0D01*
G01*
X11717517Y-1760940D02*
X13327799Y-2192414D01*
X800000Y-700000D02*
G75*
G03*
X1000000Y-900000I200000J0D01*
G01*
X6350000Y515000D02*
X6350000Y490000D01*
X12908368Y-181884D02*
X12741287Y7806D01*
X8269533Y-2192414D02*
X9879816Y-1760940D01*
X8050000Y515000D02*
G75*
G03*
X7850000Y715000I-200000J0D01*
G01*
X8812325Y-42346D02*
X8689097Y-181965D01*
X7662238Y-698697D02*
X8024585Y-2050993D01*
X12908368Y-181885D02*
G75*
G03*
X13006687Y-242875I150082J132195D01*
G01*
X6550000Y715000D02*
G75*
G03*
X6350000Y515000I0J-200000D01*
G01*
X800000Y-700000D02*
X800000Y4100000D01*
X8024585Y-2050993D02*
G75*
G03*
X8269533Y-2192414I193185J51763D01*
G01*
X1000000Y4300000D02*
X4200000Y4300000D01*
X13006687Y-242875D02*
X13793674Y-453748D01*
X4600000Y5490000D02*
G75*
G03*
X4400000Y5290000I0J-200000D01*
G01*
X7803659Y-453746D02*
G75*
G03*
X7662238Y-698697I51761J-193184D01*
G01*
X13640000Y540000D02*
X13640000Y4990000D01*
X13640000Y4990000D02*
G75*
G03*
X13440000Y5190000I-200000J0D01*
G01*
D11*
D12*
X2301450Y2377700D02*
X2341450Y2337700D01*
X2341450Y2377700D02*
X2301450Y2337700D01*
X2607500Y1139690D02*
X2647500Y1099690D01*
X2647500Y1139690D02*
X2607500Y1099690D01*
X4101380Y2315000D02*
X4141380Y2275000D01*
X4141380Y2315000D02*
X4101380Y2275000D01*
X4132630Y1348200D02*
X4172630Y1308200D01*
X4172630Y1348200D02*
X4132630Y1308200D01*
X4289530Y1257660D02*
X4329530Y1217660D01*
X4329530Y1257660D02*
X4289530Y1217660D01*
X4625880Y3748820D02*
X4665880Y3708820D01*
X4665880Y3748820D02*
X4625880Y3708820D01*
X4695900Y3989410D02*
X4735900Y3949410D01*
X4735900Y3989410D02*
X4695900Y3949410D01*
X6207500Y2325200D02*
X6247500Y2285200D01*
X6247500Y2325200D02*
X6207500Y2285200D01*
X7844828Y-517265D02*
X7884828Y-557265D01*
X7884828Y-517265D02*
X7844828Y-557265D01*
X8007500Y5219300D02*
X8047500Y5179300D01*
X8047500Y5219300D02*
X8007500Y5179300D01*
X8007500Y3497500D02*
X8047500Y3457500D01*
X8047500Y3497500D02*
X8007500Y3457500D01*
X8300350Y3842440D02*
X8340350Y3802440D01*
X8340350Y3842440D02*
X8300350Y3802440D01*
X9505000Y2671890D02*
X9545000Y2631890D01*
X9545000Y2671890D02*
X9505000Y2631890D01*
X9660350Y3770000D02*
X9700350Y3730000D01*
X9700350Y3770000D02*
X9660350Y3730000D01*
X9732380Y4793660D02*
X9772380Y4753660D01*
X9772380Y4793660D02*
X9732380Y4753660D01*
X9807500Y4272730D02*
X9847500Y4232730D01*
X9847500Y4272730D02*
X9807500Y4232730D01*
X10140000Y83500D02*
X10180000Y43500D01*
X10180000Y83500D02*
X10140000Y43500D01*
X10446510Y1734810D02*
X10486510Y1694810D01*
X10486510Y1734810D02*
X10446510Y1694810D01*
X10516970Y1807340D02*
X10556970Y1767340D01*
X10556970Y1807340D02*
X10516970Y1767340D01*
X10839130Y2269720D02*
X10879130Y2229720D01*
X10879130Y2269720D02*
X10839130Y2229720D01*
X11385380Y3730940D02*
X11425380Y3690940D01*
X11425380Y3730940D02*
X11385380Y3690940D01*
X11458330Y4393140D02*
X11498330Y4353140D01*
X11498330Y4393140D02*
X11458330Y4353140D01*
X11533670Y3272090D02*
X11573670Y3232090D01*
X11573670Y3272090D02*
X11533670Y3232090D01*
X11717970Y3280520D02*
X11757970Y3240520D01*
X11757970Y3280520D02*
X11717970Y3240520D01*
X12177560Y2214000D02*
X12217560Y2174000D01*
X12217560Y2214000D02*
X12177560Y2174000D01*
X12680000Y5049990D02*
X12720000Y5009990D01*
X12720000Y5049990D02*
X12680000Y5009990D01*
X12840060Y5137250D02*
X12880060Y5097250D01*
X12880060Y5137250D02*
X12840060Y5097250D01*
X13378500Y1316640D02*
X13418500Y1276640D01*
X13418500Y1316640D02*
X13378500Y1276640D01*
X13632500Y-488000D02*
X13672500Y-528000D01*
X13672500Y-488000D02*
X13632500Y-528000D01*
X12632800Y4607000D02*
G75*
G03*
X12632800Y4607000I-20000J0D01*
G01*
X12632800Y4353000D02*
G75*
G03*
X12632800Y4353000I-20000J0D01*
G01*
X12632800Y4099000D02*
G75*
G03*
X12632800Y4099000I-20000J0D01*
G01*
X12632800Y3845000D02*
G75*
G03*
X12632800Y3845000I-20000J0D01*
G01*
X12632800Y3591000D02*
G75*
G03*
X12632800Y3591000I-20000J0D01*
G01*
X12632800Y3337000D02*
G75*
G03*
X12632800Y3337000I-20000J0D01*
G01*
X12632800Y3083000D02*
G75*
G03*
X12632800Y3083000I-20000J0D01*
G01*
X12632800Y2829000D02*
G75*
G03*
X12632800Y2829000I-20000J0D01*
G01*
X12632800Y2575000D02*
G75*
G03*
X12632800Y2575000I-20000J0D01*
G01*
X12632800Y2321000D02*
G75*
G03*
X12632800Y2321000I-20000J0D01*
G01*
X12632800Y2067000D02*
G75*
G03*
X12632800Y2067000I-20000J0D01*
G01*
X12632800Y1813000D02*
G75*
G03*
X12632800Y1813000I-20000J0D01*
G01*
X12785200Y4607000D02*
G75*
G03*
X12785200Y4607000I-20000J0D01*
G01*
X12785200Y4353000D02*
G75*
G03*
X12785200Y4353000I-20000J0D01*
G01*
X12785200Y4099000D02*
G75*
G03*
X12785200Y4099000I-20000J0D01*
G01*
X12785200Y3845000D02*
G75*
G03*
X12785200Y3845000I-20000J0D01*
G01*
X12785200Y3591000D02*
G75*
G03*
X12785200Y3591000I-20000J0D01*
G01*
X12785200Y3337000D02*
G75*
G03*
X12785200Y3337000I-20000J0D01*
G01*
X12785200Y3083000D02*
G75*
G03*
X12785200Y3083000I-20000J0D01*
G01*
X12785200Y2829000D02*
G75*
G03*
X12785200Y2829000I-20000J0D01*
G01*
X12785200Y2575000D02*
G75*
G03*
X12785200Y2575000I-20000J0D01*
G01*
X12785200Y2321000D02*
G75*
G03*
X12785200Y2321000I-20000J0D01*
G01*
X12785200Y2067000D02*
G75*
G03*
X12785200Y2067000I-20000J0D01*
G01*
X12785200Y1813000D02*
G75*
G03*
X12785200Y1813000I-20000J0D01*
G01*
D13*
X12050500Y575000D02*
X12050500Y505000D01*
X12015500Y540000D02*
X12085500Y540000D01*
X12304500Y575000D02*
X12304500Y505000D01*
X12269500Y540000D02*
X12339500Y540000D01*
D14*
X1454023Y2864977D02*
X1454023Y2935023D01*
X1383977Y2935023D01*
X1383977Y2864977D01*
X1454023Y2864977D01*
X1454023Y1164977D02*
X1454023Y1235023D01*
X1383977Y1235023D01*
X1383977Y1164977D01*
X1454023Y1164977D01*
X1454023Y-535023D02*
X1454023Y-464977D01*
X1383977Y-464977D01*
X1383977Y-535023D01*
X1454023Y-535023D01*
X2216023Y2864977D02*
X2216023Y2935023D01*
X2145977Y2935023D01*
X2145977Y2864977D01*
X2216023Y2864977D01*
X2216023Y1164977D02*
X2216023Y1235023D01*
X2145977Y1235023D01*
X2145977Y1164977D01*
X2216023Y1164977D01*
X2216023Y-535023D02*
X2216023Y-464977D01*
X2145977Y-464977D01*
X2145977Y-535023D01*
X2216023Y-535023D01*
X3254023Y2864977D02*
X3254023Y2935023D01*
X3183977Y2935023D01*
X3183977Y2864977D01*
X3254023Y2864977D01*
X3254023Y1164977D02*
X3254023Y1235023D01*
X3183977Y1235023D01*
X3183977Y1164977D01*
X3254023Y1164977D01*
X3254023Y-535023D02*
X3254023Y-464977D01*
X3183977Y-464977D01*
X3183977Y-535023D01*
X3254023Y-535023D01*
X4016023Y2864977D02*
X4016023Y2935023D01*
X3945977Y2935023D01*
X3945977Y2864977D01*
X4016023Y2864977D01*
X4016023Y1164977D02*
X4016023Y1235023D01*
X3945977Y1235023D01*
X3945977Y1164977D01*
X4016023Y1164977D01*
X4016023Y-535023D02*
X4016023Y-464977D01*
X3945977Y-464977D01*
X3945977Y-535023D01*
X4016023Y-535023D01*
X5054023Y4054977D02*
X5054023Y4125023D01*
X4983977Y4125023D01*
X4983977Y4054977D01*
X5054023Y4054977D01*
X5054023Y2354977D02*
X5054023Y2425023D01*
X4983977Y2425023D01*
X4983977Y2354977D01*
X5054023Y2354977D01*
X5054023Y654977D02*
X5054023Y725023D01*
X4983977Y725023D01*
X4983977Y654977D01*
X5054023Y654977D01*
X5816023Y4054977D02*
X5816023Y4125023D01*
X5745977Y4125023D01*
X5745977Y4054977D01*
X5816023Y4054977D01*
X5816023Y2354977D02*
X5816023Y2425023D01*
X5745977Y2425023D01*
X5745977Y2354977D01*
X5816023Y2354977D01*
X5816023Y654977D02*
X5816023Y725023D01*
X5745977Y725023D01*
X5745977Y654977D01*
X5816023Y654977D01*
X6854023Y4479977D02*
X6854023Y4550023D01*
X6783977Y4550023D01*
X6783977Y4479977D01*
X6854023Y4479977D01*
X6854023Y2779977D02*
X6854023Y2850023D01*
X6783977Y2850023D01*
X6783977Y2779977D01*
X6854023Y2779977D01*
X6854023Y1079977D02*
X6854023Y1150023D01*
X6783977Y1150023D01*
X6783977Y1079977D01*
X6854023Y1079977D01*
X7616023Y4479977D02*
X7616023Y4550023D01*
X7545977Y4550023D01*
X7545977Y4479977D01*
X7616023Y4479977D01*
X7616023Y2779977D02*
X7616023Y2850023D01*
X7545977Y2850023D01*
X7545977Y2779977D01*
X7616023Y2779977D01*
X7616023Y1079977D02*
X7616023Y1150023D01*
X7545977Y1150023D01*
X7545977Y1079977D01*
X7616023Y1079977D01*
X8605756Y-1732623D02*
X8605756Y-1662577D01*
X8535709Y-1662577D01*
X8535709Y-1732623D01*
X8605756Y-1732623D01*
X8654023Y4054977D02*
X8654023Y4125023D01*
X8583977Y4125023D01*
X8583977Y4054977D01*
X8654023Y4054977D01*
X8654023Y2354977D02*
X8654023Y2425023D01*
X8583977Y2425023D01*
X8583977Y2354977D01*
X8654023Y2354977D01*
X8654023Y654977D02*
X8654023Y725023D01*
X8583977Y725023D01*
X8583977Y654977D01*
X8654023Y654977D01*
X9341791Y-1535403D02*
X9341791Y-1465357D01*
X9271744Y-1465357D01*
X9271744Y-1535403D01*
X9341791Y-1535403D01*
X9416023Y4054977D02*
X9416023Y4125023D01*
X9345977Y4125023D01*
X9345977Y4054977D01*
X9416023Y4054977D01*
X9416023Y2354977D02*
X9416023Y2425023D01*
X9345977Y2425023D01*
X9345977Y2354977D01*
X9416023Y2354977D01*
X9416023Y654977D02*
X9416023Y725023D01*
X9345977Y725023D01*
X9345977Y654977D01*
X9416023Y654977D01*
X10452693Y-1389153D02*
X10452693Y-1319107D01*
X10382647Y-1319107D01*
X10382647Y-1389153D01*
X10452693Y-1389153D01*
X10454023Y3714977D02*
X10454023Y3785023D01*
X10383977Y3785023D01*
X10383977Y3714977D01*
X10454023Y3714977D01*
X10454023Y2014977D02*
X10454023Y2085023D01*
X10383977Y2085023D01*
X10383977Y2014977D01*
X10454023Y2014977D01*
X10454023Y314977D02*
X10454023Y385023D01*
X10383977Y385023D01*
X10383977Y314977D01*
X10454023Y314977D01*
X11214693Y-1389153D02*
X11214693Y-1319107D01*
X11144647Y-1319107D01*
X11144647Y-1389153D01*
X11214693Y-1389153D01*
X11216023Y3714977D02*
X11216023Y3785023D01*
X11145977Y3785023D01*
X11145977Y3714977D01*
X11216023Y3714977D01*
X11216023Y2014977D02*
X11216023Y2085023D01*
X11145977Y2085023D01*
X11145977Y2014977D01*
X11216023Y2014977D01*
X11216023Y314977D02*
X11216023Y385023D01*
X11145977Y385023D01*
X11145977Y314977D01*
X11216023Y314977D01*
X12325596Y-1535403D02*
X12325596Y-1465357D01*
X12255549Y-1465357D01*
X12255549Y-1535403D01*
X12325596Y-1535403D01*
X13061631Y-1732623D02*
X13061631Y-1662577D01*
X12991584Y-1662577D01*
X12991584Y-1732623D01*
X13061631Y-1732623D01*
D15*
X11927000Y4552000D02*
X11982000Y4607000D01*
X11927000Y4662000D01*
X11872000Y4607000D01*
X11927000Y4552000D01*
X11927000Y4552000D02*
X11982000Y4607000D01*
X11927000Y4662000D01*
X11872000Y4607000D01*
X11927000Y4552000D01*
X11927000Y4298000D02*
X11982000Y4353000D01*
X11927000Y4408000D01*
X11872000Y4353000D01*
X11927000Y4298000D01*
X11927000Y4044000D02*
X11982000Y4099000D01*
X11927000Y4154000D01*
X11872000Y4099000D01*
X11927000Y4044000D01*
X11927000Y3790000D02*
X11982000Y3845000D01*
X11927000Y3900000D01*
X11872000Y3845000D01*
X11927000Y3790000D01*
X11927000Y3536000D02*
X11982000Y3591000D01*
X11927000Y3646000D01*
X11872000Y3591000D01*
X11927000Y3536000D01*
X11927000Y3282000D02*
X11982000Y3337000D01*
X11927000Y3392000D01*
X11872000Y3337000D01*
X11927000Y3282000D01*
X11927000Y3028000D02*
X11982000Y3083000D01*
X11927000Y3138000D01*
X11872000Y3083000D01*
X11927000Y3028000D01*
X11927000Y2774000D02*
X11982000Y2829000D01*
X11927000Y2884000D01*
X11872000Y2829000D01*
X11927000Y2774000D01*
X11927000Y2520000D02*
X11982000Y2575000D01*
X11927000Y2630000D01*
X11872000Y2575000D01*
X11927000Y2520000D01*
X11927000Y2266000D02*
X11982000Y2321000D01*
X11927000Y2376000D01*
X11872000Y2321000D01*
X11927000Y2266000D01*
X11927000Y2012000D02*
X11982000Y2067000D01*
X11927000Y2122000D01*
X11872000Y2067000D01*
X11927000Y2012000D01*
X11927000Y1758000D02*
X11982000Y1813000D01*
X11927000Y1868000D01*
X11872000Y1813000D01*
X11927000Y1758000D01*
X13451000Y4552000D02*
X13506000Y4607000D01*
X13451000Y4662000D01*
X13396000Y4607000D01*
X13451000Y4552000D01*
X13451000Y4552000D02*
X13506000Y4607000D01*
X13451000Y4662000D01*
X13396000Y4607000D01*
X13451000Y4552000D01*
X13451000Y4298000D02*
X13506000Y4353000D01*
X13451000Y4408000D01*
X13396000Y4353000D01*
X13451000Y4298000D01*
X13451000Y4044000D02*
X13506000Y4099000D01*
X13451000Y4154000D01*
X13396000Y4099000D01*
X13451000Y4044000D01*
X13451000Y3790000D02*
X13506000Y3845000D01*
X13451000Y3900000D01*
X13396000Y3845000D01*
X13451000Y3790000D01*
X13451000Y3536000D02*
X13506000Y3591000D01*
X13451000Y3646000D01*
X13396000Y3591000D01*
X13451000Y3536000D01*
X13451000Y3282000D02*
X13506000Y3337000D01*
X13451000Y3392000D01*
X13396000Y3337000D01*
X13451000Y3282000D01*
X13451000Y3028000D02*
X13506000Y3083000D01*
X13451000Y3138000D01*
X13396000Y3083000D01*
X13451000Y3028000D01*
X13451000Y2774000D02*
X13506000Y2829000D01*
X13451000Y2884000D01*
X13396000Y2829000D01*
X13451000Y2774000D01*
X13451000Y2520000D02*
X13506000Y2575000D01*
X13451000Y2630000D01*
X13396000Y2575000D01*
X13451000Y2520000D01*
X13451000Y2266000D02*
X13506000Y2321000D01*
X13451000Y2376000D01*
X13396000Y2321000D01*
X13451000Y2266000D01*
X13451000Y2012000D02*
X13506000Y2067000D01*
X13451000Y2122000D01*
X13396000Y2067000D01*
X13451000Y2012000D01*
X13451000Y1758000D02*
X13506000Y1813000D01*
X13451000Y1868000D01*
X13396000Y1813000D01*
X13451000Y1758000D01*
D11*
X1050119Y-2517209D02*
X1050119Y-2317209D01*
X1097738Y-2317209D01*
X1126310Y-2326733D01*
X1145357Y-2345781D01*
X1154881Y-2364828D01*
X1164405Y-2402923D01*
X1164405Y-2431495D01*
X1154881Y-2469590D01*
X1145357Y-2488638D01*
X1126310Y-2507685D01*
X1097738Y-2517209D01*
X1050119Y-2517209D01*
X1250119Y-2517209D02*
X1250119Y-2383876D01*
X1250119Y-2421971D02*
X1259643Y-2402923D01*
X1269167Y-2393400D01*
X1288214Y-2383876D01*
X1307262Y-2383876D01*
X1373929Y-2517209D02*
X1373929Y-2383876D01*
X1373929Y-2317209D02*
X1364405Y-2326733D01*
X1373929Y-2336257D01*
X1383452Y-2326733D01*
X1373929Y-2317209D01*
X1373929Y-2336257D01*
X1497738Y-2517209D02*
X1478690Y-2507685D01*
X1469167Y-2488638D01*
X1469167Y-2317209D01*
X1602500Y-2517209D02*
X1583452Y-2507685D01*
X1573928Y-2488638D01*
X1573928Y-2317209D01*
X1831071Y-2517209D02*
X1831071Y-2317209D01*
X1897738Y-2460066D01*
X1964405Y-2317209D01*
X1964405Y-2517209D01*
X2145357Y-2517209D02*
X2145357Y-2412447D01*
X2135833Y-2393400D01*
X2116786Y-2383876D01*
X2078690Y-2383876D01*
X2059643Y-2393400D01*
X2145357Y-2507685D02*
X2126310Y-2517209D01*
X2078690Y-2517209D01*
X2059643Y-2507685D01*
X2050119Y-2488638D01*
X2050119Y-2469590D01*
X2059643Y-2450543D01*
X2078690Y-2441019D01*
X2126310Y-2441019D01*
X2145357Y-2431495D01*
X2240595Y-2383876D02*
X2240595Y-2583876D01*
X2240595Y-2393400D02*
X2259643Y-2383876D01*
X2297738Y-2383876D01*
X2316786Y-2393400D01*
X2326310Y-2402923D01*
X2335833Y-2421971D01*
X2335833Y-2479114D01*
X2326310Y-2498162D01*
X2316786Y-2507685D01*
X2297738Y-2517209D01*
X2259643Y-2517209D01*
X2240595Y-2507685D01*
X2421548Y-2498162D02*
X2431071Y-2507685D01*
X2421548Y-2517209D01*
X2412024Y-2507685D01*
X2421548Y-2498162D01*
X2421548Y-2517209D01*
X2421548Y-2393400D02*
X2431071Y-2402923D01*
X2421548Y-2412447D01*
X2412024Y-2402923D01*
X2421548Y-2393400D01*
X2421548Y-2412447D01*
D12*
X752500Y-2826733D02*
X792500Y-2866733D01*
X792500Y-2826733D02*
X752500Y-2866733D01*
D11*
X1088214Y-2737209D02*
X1107262Y-2737209D01*
X1126310Y-2746733D01*
X1135833Y-2756257D01*
X1145357Y-2775304D01*
X1154881Y-2813400D01*
X1154881Y-2861019D01*
X1145357Y-2899114D01*
X1135833Y-2918161D01*
X1126310Y-2927685D01*
X1107262Y-2937209D01*
X1088214Y-2937209D01*
X1069167Y-2927685D01*
X1059643Y-2918161D01*
X1050119Y-2899114D01*
X1040595Y-2861019D01*
X1040595Y-2813400D01*
X1050119Y-2775304D01*
X1059643Y-2756257D01*
X1069167Y-2746733D01*
X1088214Y-2737209D01*
X1240595Y-2918161D02*
X1250119Y-2927685D01*
X1240595Y-2937209D01*
X1231071Y-2927685D01*
X1240595Y-2918161D01*
X1240595Y-2937209D01*
X1421548Y-2803876D02*
X1421548Y-2937209D01*
X1373929Y-2727685D02*
X1326310Y-2870542D01*
X1450119Y-2870542D01*
X1564405Y-2737209D02*
X1583452Y-2737209D01*
X1602500Y-2746733D01*
X1612024Y-2756257D01*
X1621548Y-2775304D01*
X1631071Y-2813400D01*
X1631071Y-2861019D01*
X1621548Y-2899114D01*
X1612024Y-2918161D01*
X1602500Y-2927685D01*
X1583452Y-2937209D01*
X1564405Y-2937209D01*
X1545357Y-2927685D01*
X1535833Y-2918161D01*
X1526309Y-2899114D01*
X1516786Y-2861019D01*
X1516786Y-2813400D01*
X1526309Y-2775304D01*
X1535833Y-2756257D01*
X1545357Y-2746733D01*
X1564405Y-2737209D01*
X1754881Y-2737209D02*
X1773928Y-2737209D01*
X1792976Y-2746733D01*
X1802500Y-2756257D01*
X1812024Y-2775304D01*
X1821548Y-2813400D01*
X1821548Y-2861019D01*
X1812024Y-2899114D01*
X1802500Y-2918161D01*
X1792976Y-2927685D01*
X1773928Y-2937209D01*
X1754881Y-2937209D01*
X1735833Y-2927685D01*
X1726309Y-2918161D01*
X1716786Y-2899114D01*
X1707262Y-2861019D01*
X1707262Y-2813400D01*
X1716786Y-2775304D01*
X1726309Y-2756257D01*
X1735833Y-2746733D01*
X1754881Y-2737209D01*
X1907262Y-2937209D02*
X1907262Y-2803876D01*
X1907262Y-2822923D02*
X1916786Y-2813400D01*
X1935833Y-2803876D01*
X1964405Y-2803876D01*
X1983452Y-2813400D01*
X1992976Y-2832447D01*
X1992976Y-2937209D01*
X1992976Y-2832447D02*
X2002500Y-2813400D01*
X2021548Y-2803876D01*
X2050119Y-2803876D01*
X2069167Y-2813400D01*
X2078690Y-2832447D01*
X2078690Y-2937209D01*
X2173929Y-2937209D02*
X2173929Y-2803876D01*
X2173929Y-2822923D02*
X2183452Y-2813400D01*
X2202500Y-2803876D01*
X2231071Y-2803876D01*
X2250119Y-2813400D01*
X2259643Y-2832447D01*
X2259643Y-2937209D01*
X2259643Y-2832447D02*
X2269167Y-2813400D01*
X2288214Y-2803876D01*
X2316786Y-2803876D01*
X2335833Y-2813400D01*
X2345357Y-2832447D01*
X2345357Y-2937209D01*
X2735833Y-2727685D02*
X2564405Y-2984828D01*
X2992976Y-2737209D02*
X3012024Y-2737209D01*
X3031071Y-2746733D01*
X3040595Y-2756257D01*
X3050119Y-2775304D01*
X3059643Y-2813400D01*
X3059643Y-2861019D01*
X3050119Y-2899114D01*
X3040595Y-2918161D01*
X3031071Y-2927685D01*
X3012024Y-2937209D01*
X2992976Y-2937209D01*
X2973928Y-2927685D01*
X2964405Y-2918161D01*
X2954881Y-2899114D01*
X2945357Y-2861019D01*
X2945357Y-2813400D01*
X2954881Y-2775304D01*
X2964405Y-2756257D01*
X2973928Y-2746733D01*
X2992976Y-2737209D01*
X3145357Y-2918161D02*
X3154881Y-2927685D01*
X3145357Y-2937209D01*
X3135833Y-2927685D01*
X3145357Y-2918161D01*
X3145357Y-2937209D01*
X3278690Y-2737209D02*
X3297738Y-2737209D01*
X3316786Y-2746733D01*
X3326309Y-2756257D01*
X3335833Y-2775304D01*
X3345357Y-2813400D01*
X3345357Y-2861019D01*
X3335833Y-2899114D01*
X3326309Y-2918161D01*
X3316786Y-2927685D01*
X3297738Y-2937209D01*
X3278690Y-2937209D01*
X3259643Y-2927685D01*
X3250119Y-2918161D01*
X3240595Y-2899114D01*
X3231071Y-2861019D01*
X3231071Y-2813400D01*
X3240595Y-2775304D01*
X3250119Y-2756257D01*
X3259643Y-2746733D01*
X3278690Y-2737209D01*
X3535833Y-2937209D02*
X3421548Y-2937209D01*
X3478690Y-2937209D02*
X3478690Y-2737209D01*
X3459643Y-2765781D01*
X3440595Y-2784828D01*
X3421548Y-2794352D01*
X3716786Y-2737209D02*
X3621548Y-2737209D01*
X3612024Y-2832447D01*
X3621548Y-2822923D01*
X3640595Y-2813400D01*
X3688214Y-2813400D01*
X3707262Y-2822923D01*
X3716786Y-2832447D01*
X3726309Y-2851495D01*
X3726309Y-2899114D01*
X3716786Y-2918161D01*
X3707262Y-2927685D01*
X3688214Y-2937209D01*
X3640595Y-2937209D01*
X3621548Y-2927685D01*
X3612024Y-2918161D01*
X3792976Y-2737209D02*
X3926309Y-2737209D01*
X3840595Y-2937209D01*
X3992976Y-2737209D02*
X3992976Y-2775304D01*
X4069167Y-2737209D02*
X4069167Y-2775304D01*
X4364405Y-3013400D02*
X4354881Y-3003876D01*
X4335833Y-2975304D01*
X4326310Y-2956257D01*
X4316786Y-2927685D01*
X4307262Y-2880066D01*
X4307262Y-2841971D01*
X4316786Y-2794352D01*
X4326310Y-2765781D01*
X4335833Y-2746733D01*
X4354881Y-2718162D01*
X4364405Y-2708638D01*
X4431071Y-2756257D02*
X4440595Y-2746733D01*
X4459643Y-2737209D01*
X4507262Y-2737209D01*
X4526310Y-2746733D01*
X4535833Y-2756257D01*
X4545357Y-2775304D01*
X4545357Y-2794352D01*
X4535833Y-2822923D01*
X4421548Y-2937209D01*
X4545357Y-2937209D01*
X4640595Y-2937209D02*
X4678690Y-2937209D01*
X4697738Y-2927685D01*
X4707262Y-2918161D01*
X4726310Y-2889590D01*
X4735833Y-2851495D01*
X4735833Y-2775304D01*
X4726310Y-2756257D01*
X4716786Y-2746733D01*
X4697738Y-2737209D01*
X4659643Y-2737209D01*
X4640595Y-2746733D01*
X4631071Y-2756257D01*
X4621548Y-2775304D01*
X4621548Y-2822923D01*
X4631071Y-2841971D01*
X4640595Y-2851495D01*
X4659643Y-2861019D01*
X4697738Y-2861019D01*
X4716786Y-2851495D01*
X4726310Y-2841971D01*
X4735833Y-2822923D01*
X4973929Y-2937209D02*
X4973929Y-2737209D01*
X5059643Y-2937209D02*
X5059643Y-2832447D01*
X5050119Y-2813400D01*
X5031071Y-2803876D01*
X5002500Y-2803876D01*
X4983452Y-2813400D01*
X4973929Y-2822923D01*
X5183452Y-2937209D02*
X5164405Y-2927685D01*
X5154881Y-2918161D01*
X5145357Y-2899114D01*
X5145357Y-2841971D01*
X5154881Y-2822923D01*
X5164405Y-2813400D01*
X5183452Y-2803876D01*
X5212024Y-2803876D01*
X5231071Y-2813400D01*
X5240595Y-2822923D01*
X5250119Y-2841971D01*
X5250119Y-2899114D01*
X5240595Y-2918161D01*
X5231071Y-2927685D01*
X5212024Y-2937209D01*
X5183452Y-2937209D01*
X5364405Y-2937209D02*
X5345357Y-2927685D01*
X5335833Y-2908638D01*
X5335833Y-2737209D01*
X5516786Y-2927685D02*
X5497738Y-2937209D01*
X5459643Y-2937209D01*
X5440595Y-2927685D01*
X5431071Y-2908638D01*
X5431071Y-2832447D01*
X5440595Y-2813400D01*
X5459643Y-2803876D01*
X5497738Y-2803876D01*
X5516786Y-2813400D01*
X5526310Y-2832447D01*
X5526310Y-2851495D01*
X5431071Y-2870542D01*
X5602500Y-2927685D02*
X5621548Y-2937209D01*
X5659643Y-2937209D01*
X5678690Y-2927685D01*
X5688214Y-2908638D01*
X5688214Y-2899114D01*
X5678690Y-2880066D01*
X5659643Y-2870542D01*
X5631071Y-2870542D01*
X5612024Y-2861019D01*
X5602500Y-2841971D01*
X5602500Y-2832447D01*
X5612024Y-2813400D01*
X5631071Y-2803876D01*
X5659643Y-2803876D01*
X5678690Y-2813400D01*
X5754881Y-3013400D02*
X5764405Y-3003876D01*
X5783452Y-2975304D01*
X5792976Y-2956257D01*
X5802500Y-2927685D01*
X5812024Y-2880066D01*
X5812024Y-2841971D01*
X5802500Y-2794352D01*
X5792976Y-2765781D01*
X5783452Y-2746733D01*
X5764405Y-2718162D01*
X5754881Y-2708638D01*
D12*
X792500Y-3110733D02*
G75*
G03*
X792500Y-3110733I-20000J0D01*
G01*
D11*
X1088214Y-3001209D02*
X1107262Y-3001209D01*
X1126310Y-3010733D01*
X1135833Y-3020257D01*
X1145357Y-3039304D01*
X1154881Y-3077400D01*
X1154881Y-3125019D01*
X1145357Y-3163114D01*
X1135833Y-3182161D01*
X1126310Y-3191685D01*
X1107262Y-3201209D01*
X1088214Y-3201209D01*
X1069167Y-3191685D01*
X1059643Y-3182161D01*
X1050119Y-3163114D01*
X1040595Y-3125019D01*
X1040595Y-3077400D01*
X1050119Y-3039304D01*
X1059643Y-3020257D01*
X1069167Y-3010733D01*
X1088214Y-3001209D01*
X1240595Y-3182161D02*
X1250119Y-3191685D01*
X1240595Y-3201209D01*
X1231071Y-3191685D01*
X1240595Y-3182161D01*
X1240595Y-3201209D01*
X1421548Y-3067876D02*
X1421548Y-3201209D01*
X1373929Y-2991685D02*
X1326310Y-3134542D01*
X1450119Y-3134542D01*
X1564405Y-3001209D02*
X1583452Y-3001209D01*
X1602500Y-3010733D01*
X1612024Y-3020257D01*
X1621548Y-3039304D01*
X1631071Y-3077400D01*
X1631071Y-3125019D01*
X1621548Y-3163114D01*
X1612024Y-3182161D01*
X1602500Y-3191685D01*
X1583452Y-3201209D01*
X1564405Y-3201209D01*
X1545357Y-3191685D01*
X1535833Y-3182161D01*
X1526309Y-3163114D01*
X1516786Y-3125019D01*
X1516786Y-3077400D01*
X1526309Y-3039304D01*
X1535833Y-3020257D01*
X1545357Y-3010733D01*
X1564405Y-3001209D01*
X1754881Y-3001209D02*
X1773928Y-3001209D01*
X1792976Y-3010733D01*
X1802500Y-3020257D01*
X1812024Y-3039304D01*
X1821548Y-3077400D01*
X1821548Y-3125019D01*
X1812024Y-3163114D01*
X1802500Y-3182161D01*
X1792976Y-3191685D01*
X1773928Y-3201209D01*
X1754881Y-3201209D01*
X1735833Y-3191685D01*
X1726309Y-3182161D01*
X1716786Y-3163114D01*
X1707262Y-3125019D01*
X1707262Y-3077400D01*
X1716786Y-3039304D01*
X1726309Y-3020257D01*
X1735833Y-3010733D01*
X1754881Y-3001209D01*
X1907262Y-3201209D02*
X1907262Y-3067876D01*
X1907262Y-3086923D02*
X1916786Y-3077400D01*
X1935833Y-3067876D01*
X1964405Y-3067876D01*
X1983452Y-3077400D01*
X1992976Y-3096447D01*
X1992976Y-3201209D01*
X1992976Y-3096447D02*
X2002500Y-3077400D01*
X2021548Y-3067876D01*
X2050119Y-3067876D01*
X2069167Y-3077400D01*
X2078690Y-3096447D01*
X2078690Y-3201209D01*
X2173929Y-3201209D02*
X2173929Y-3067876D01*
X2173929Y-3086923D02*
X2183452Y-3077400D01*
X2202500Y-3067876D01*
X2231071Y-3067876D01*
X2250119Y-3077400D01*
X2259643Y-3096447D01*
X2259643Y-3201209D01*
X2259643Y-3096447D02*
X2269167Y-3077400D01*
X2288214Y-3067876D01*
X2316786Y-3067876D01*
X2335833Y-3077400D01*
X2345357Y-3096447D01*
X2345357Y-3201209D01*
X2735833Y-2991685D02*
X2564405Y-3248828D01*
X2992976Y-3001209D02*
X3012024Y-3001209D01*
X3031071Y-3010733D01*
X3040595Y-3020257D01*
X3050119Y-3039304D01*
X3059643Y-3077400D01*
X3059643Y-3125019D01*
X3050119Y-3163114D01*
X3040595Y-3182161D01*
X3031071Y-3191685D01*
X3012024Y-3201209D01*
X2992976Y-3201209D01*
X2973928Y-3191685D01*
X2964405Y-3182161D01*
X2954881Y-3163114D01*
X2945357Y-3125019D01*
X2945357Y-3077400D01*
X2954881Y-3039304D01*
X2964405Y-3020257D01*
X2973928Y-3010733D01*
X2992976Y-3001209D01*
X3145357Y-3182161D02*
X3154881Y-3191685D01*
X3145357Y-3201209D01*
X3135833Y-3191685D01*
X3145357Y-3182161D01*
X3145357Y-3201209D01*
X3278690Y-3001209D02*
X3297738Y-3001209D01*
X3316786Y-3010733D01*
X3326309Y-3020257D01*
X3335833Y-3039304D01*
X3345357Y-3077400D01*
X3345357Y-3125019D01*
X3335833Y-3163114D01*
X3326309Y-3182161D01*
X3316786Y-3191685D01*
X3297738Y-3201209D01*
X3278690Y-3201209D01*
X3259643Y-3191685D01*
X3250119Y-3182161D01*
X3240595Y-3163114D01*
X3231071Y-3125019D01*
X3231071Y-3077400D01*
X3240595Y-3039304D01*
X3250119Y-3020257D01*
X3259643Y-3010733D01*
X3278690Y-3001209D01*
X3535833Y-3201209D02*
X3421548Y-3201209D01*
X3478690Y-3201209D02*
X3478690Y-3001209D01*
X3459643Y-3029781D01*
X3440595Y-3048828D01*
X3421548Y-3058352D01*
X3716786Y-3001209D02*
X3621548Y-3001209D01*
X3612024Y-3096447D01*
X3621548Y-3086923D01*
X3640595Y-3077400D01*
X3688214Y-3077400D01*
X3707262Y-3086923D01*
X3716786Y-3096447D01*
X3726309Y-3115495D01*
X3726309Y-3163114D01*
X3716786Y-3182161D01*
X3707262Y-3191685D01*
X3688214Y-3201209D01*
X3640595Y-3201209D01*
X3621548Y-3191685D01*
X3612024Y-3182161D01*
X3792976Y-3001209D02*
X3926309Y-3001209D01*
X3840595Y-3201209D01*
X3992976Y-3001209D02*
X3992976Y-3039304D01*
X4069167Y-3001209D02*
X4069167Y-3039304D01*
X4364405Y-3277400D02*
X4354881Y-3267876D01*
X4335833Y-3239304D01*
X4326310Y-3220257D01*
X4316786Y-3191685D01*
X4307262Y-3144066D01*
X4307262Y-3105971D01*
X4316786Y-3058352D01*
X4326310Y-3029781D01*
X4335833Y-3010733D01*
X4354881Y-2982161D01*
X4364405Y-2972638D01*
X4431071Y-3020257D02*
X4440595Y-3010733D01*
X4459643Y-3001209D01*
X4507262Y-3001209D01*
X4526310Y-3010733D01*
X4535833Y-3020257D01*
X4545357Y-3039304D01*
X4545357Y-3058352D01*
X4535833Y-3086923D01*
X4421548Y-3201209D01*
X4545357Y-3201209D01*
X4716786Y-3067876D02*
X4716786Y-3201209D01*
X4669167Y-2991685D02*
X4621548Y-3134542D01*
X4745357Y-3134542D01*
X4973929Y-3201209D02*
X4973929Y-3001209D01*
X5059643Y-3201209D02*
X5059643Y-3096447D01*
X5050119Y-3077400D01*
X5031071Y-3067876D01*
X5002500Y-3067876D01*
X4983452Y-3077400D01*
X4973929Y-3086923D01*
X5183452Y-3201209D02*
X5164405Y-3191685D01*
X5154881Y-3182161D01*
X5145357Y-3163114D01*
X5145357Y-3105971D01*
X5154881Y-3086923D01*
X5164405Y-3077400D01*
X5183452Y-3067876D01*
X5212024Y-3067876D01*
X5231071Y-3077400D01*
X5240595Y-3086923D01*
X5250119Y-3105971D01*
X5250119Y-3163114D01*
X5240595Y-3182161D01*
X5231071Y-3191685D01*
X5212024Y-3201209D01*
X5183452Y-3201209D01*
X5364405Y-3201209D02*
X5345357Y-3191685D01*
X5335833Y-3172638D01*
X5335833Y-3001209D01*
X5516786Y-3191685D02*
X5497738Y-3201209D01*
X5459643Y-3201209D01*
X5440595Y-3191685D01*
X5431071Y-3172638D01*
X5431071Y-3096447D01*
X5440595Y-3077400D01*
X5459643Y-3067876D01*
X5497738Y-3067876D01*
X5516786Y-3077400D01*
X5526310Y-3096447D01*
X5526310Y-3115495D01*
X5431071Y-3134542D01*
X5602500Y-3191685D02*
X5621548Y-3201209D01*
X5659643Y-3201209D01*
X5678690Y-3191685D01*
X5688214Y-3172638D01*
X5688214Y-3163114D01*
X5678690Y-3144066D01*
X5659643Y-3134542D01*
X5631071Y-3134542D01*
X5612024Y-3125019D01*
X5602500Y-3105971D01*
X5602500Y-3096447D01*
X5612024Y-3077400D01*
X5631071Y-3067876D01*
X5659643Y-3067876D01*
X5678690Y-3077400D01*
X5754881Y-3277400D02*
X5764405Y-3267876D01*
X5783452Y-3239304D01*
X5792976Y-3220257D01*
X5802500Y-3191685D01*
X5812024Y-3144066D01*
X5812024Y-3105971D01*
X5802500Y-3058352D01*
X5792976Y-3029781D01*
X5783452Y-3010733D01*
X5764405Y-2982161D01*
X5754881Y-2972638D01*
D13*
X757500Y-3339733D02*
X757500Y-3409733D01*
X722500Y-3374733D02*
X792500Y-3374733D01*
D11*
X1088214Y-3265209D02*
X1107262Y-3265209D01*
X1126310Y-3274733D01*
X1135833Y-3284257D01*
X1145357Y-3303304D01*
X1154881Y-3341400D01*
X1154881Y-3389019D01*
X1145357Y-3427114D01*
X1135833Y-3446161D01*
X1126310Y-3455685D01*
X1107262Y-3465209D01*
X1088214Y-3465209D01*
X1069167Y-3455685D01*
X1059643Y-3446161D01*
X1050119Y-3427114D01*
X1040595Y-3389019D01*
X1040595Y-3341400D01*
X1050119Y-3303304D01*
X1059643Y-3284257D01*
X1069167Y-3274733D01*
X1088214Y-3265209D01*
X1240595Y-3446161D02*
X1250119Y-3455685D01*
X1240595Y-3465209D01*
X1231071Y-3455685D01*
X1240595Y-3446161D01*
X1240595Y-3465209D01*
X1316786Y-3265209D02*
X1450119Y-3265209D01*
X1364405Y-3465209D01*
X1564405Y-3265209D02*
X1583452Y-3265209D01*
X1602500Y-3274733D01*
X1612024Y-3284257D01*
X1621548Y-3303304D01*
X1631071Y-3341400D01*
X1631071Y-3389019D01*
X1621548Y-3427114D01*
X1612024Y-3446161D01*
X1602500Y-3455685D01*
X1583452Y-3465209D01*
X1564405Y-3465209D01*
X1545357Y-3455685D01*
X1535833Y-3446161D01*
X1526309Y-3427114D01*
X1516786Y-3389019D01*
X1516786Y-3341400D01*
X1526309Y-3303304D01*
X1535833Y-3284257D01*
X1545357Y-3274733D01*
X1564405Y-3265209D01*
X1754881Y-3265209D02*
X1773928Y-3265209D01*
X1792976Y-3274733D01*
X1802500Y-3284257D01*
X1812024Y-3303304D01*
X1821548Y-3341400D01*
X1821548Y-3389019D01*
X1812024Y-3427114D01*
X1802500Y-3446161D01*
X1792976Y-3455685D01*
X1773928Y-3465209D01*
X1754881Y-3465209D01*
X1735833Y-3455685D01*
X1726309Y-3446161D01*
X1716786Y-3427114D01*
X1707262Y-3389019D01*
X1707262Y-3341400D01*
X1716786Y-3303304D01*
X1726309Y-3284257D01*
X1735833Y-3274733D01*
X1754881Y-3265209D01*
X1907262Y-3465209D02*
X1907262Y-3331876D01*
X1907262Y-3350923D02*
X1916786Y-3341400D01*
X1935833Y-3331876D01*
X1964405Y-3331876D01*
X1983452Y-3341400D01*
X1992976Y-3360447D01*
X1992976Y-3465209D01*
X1992976Y-3360447D02*
X2002500Y-3341400D01*
X2021548Y-3331876D01*
X2050119Y-3331876D01*
X2069167Y-3341400D01*
X2078690Y-3360447D01*
X2078690Y-3465209D01*
X2173929Y-3465209D02*
X2173929Y-3331876D01*
X2173929Y-3350923D02*
X2183452Y-3341400D01*
X2202500Y-3331876D01*
X2231071Y-3331876D01*
X2250119Y-3341400D01*
X2259643Y-3360447D01*
X2259643Y-3465209D01*
X2259643Y-3360447D02*
X2269167Y-3341400D01*
X2288214Y-3331876D01*
X2316786Y-3331876D01*
X2335833Y-3341400D01*
X2345357Y-3360447D01*
X2345357Y-3465209D01*
X2735833Y-3255685D02*
X2564405Y-3512828D01*
X2992976Y-3265209D02*
X3012024Y-3265209D01*
X3031071Y-3274733D01*
X3040595Y-3284257D01*
X3050119Y-3303304D01*
X3059643Y-3341400D01*
X3059643Y-3389019D01*
X3050119Y-3427114D01*
X3040595Y-3446161D01*
X3031071Y-3455685D01*
X3012024Y-3465209D01*
X2992976Y-3465209D01*
X2973928Y-3455685D01*
X2964405Y-3446161D01*
X2954881Y-3427114D01*
X2945357Y-3389019D01*
X2945357Y-3341400D01*
X2954881Y-3303304D01*
X2964405Y-3284257D01*
X2973928Y-3274733D01*
X2992976Y-3265209D01*
X3145357Y-3446161D02*
X3154881Y-3455685D01*
X3145357Y-3465209D01*
X3135833Y-3455685D01*
X3145357Y-3446161D01*
X3145357Y-3465209D01*
X3278690Y-3265209D02*
X3297738Y-3265209D01*
X3316786Y-3274733D01*
X3326309Y-3284257D01*
X3335833Y-3303304D01*
X3345357Y-3341400D01*
X3345357Y-3389019D01*
X3335833Y-3427114D01*
X3326309Y-3446161D01*
X3316786Y-3455685D01*
X3297738Y-3465209D01*
X3278690Y-3465209D01*
X3259643Y-3455685D01*
X3250119Y-3446161D01*
X3240595Y-3427114D01*
X3231071Y-3389019D01*
X3231071Y-3341400D01*
X3240595Y-3303304D01*
X3250119Y-3284257D01*
X3259643Y-3274733D01*
X3278690Y-3265209D01*
X3421548Y-3284257D02*
X3431071Y-3274733D01*
X3450119Y-3265209D01*
X3497738Y-3265209D01*
X3516786Y-3274733D01*
X3526309Y-3284257D01*
X3535833Y-3303304D01*
X3535833Y-3322352D01*
X3526309Y-3350923D01*
X3412024Y-3465209D01*
X3535833Y-3465209D01*
X3602500Y-3265209D02*
X3735833Y-3265209D01*
X3650119Y-3465209D01*
X3897738Y-3265209D02*
X3859643Y-3265209D01*
X3840595Y-3274733D01*
X3831071Y-3284257D01*
X3812024Y-3312828D01*
X3802500Y-3350923D01*
X3802500Y-3427114D01*
X3812024Y-3446161D01*
X3821548Y-3455685D01*
X3840595Y-3465209D01*
X3878690Y-3465209D01*
X3897738Y-3455685D01*
X3907262Y-3446161D01*
X3916786Y-3427114D01*
X3916786Y-3379495D01*
X3907262Y-3360447D01*
X3897738Y-3350923D01*
X3878690Y-3341400D01*
X3840595Y-3341400D01*
X3821548Y-3350923D01*
X3812024Y-3360447D01*
X3802500Y-3379495D01*
X3992976Y-3265209D02*
X3992976Y-3303304D01*
X4069167Y-3265209D02*
X4069167Y-3303304D01*
X4364405Y-3541400D02*
X4354881Y-3531876D01*
X4335833Y-3503304D01*
X4326310Y-3484257D01*
X4316786Y-3455685D01*
X4307262Y-3408066D01*
X4307262Y-3369971D01*
X4316786Y-3322352D01*
X4326310Y-3293781D01*
X4335833Y-3274733D01*
X4354881Y-3246161D01*
X4364405Y-3236638D01*
X4431071Y-3284257D02*
X4440595Y-3274733D01*
X4459643Y-3265209D01*
X4507262Y-3265209D01*
X4526310Y-3274733D01*
X4535833Y-3284257D01*
X4545357Y-3303304D01*
X4545357Y-3322352D01*
X4535833Y-3350923D01*
X4421548Y-3465209D01*
X4545357Y-3465209D01*
X4783452Y-3465209D02*
X4783452Y-3265209D01*
X4869167Y-3465209D02*
X4869167Y-3360447D01*
X4859643Y-3341400D01*
X4840595Y-3331876D01*
X4812024Y-3331876D01*
X4792976Y-3341400D01*
X4783452Y-3350923D01*
X4992976Y-3465209D02*
X4973929Y-3455685D01*
X4964405Y-3446161D01*
X4954881Y-3427114D01*
X4954881Y-3369971D01*
X4964405Y-3350923D01*
X4973929Y-3341400D01*
X4992976Y-3331876D01*
X5021548Y-3331876D01*
X5040595Y-3341400D01*
X5050119Y-3350923D01*
X5059643Y-3369971D01*
X5059643Y-3427114D01*
X5050119Y-3446161D01*
X5040595Y-3455685D01*
X5021548Y-3465209D01*
X4992976Y-3465209D01*
X5173929Y-3465209D02*
X5154881Y-3455685D01*
X5145357Y-3436638D01*
X5145357Y-3265209D01*
X5326310Y-3455685D02*
X5307262Y-3465209D01*
X5269167Y-3465209D01*
X5250119Y-3455685D01*
X5240595Y-3436638D01*
X5240595Y-3360447D01*
X5250119Y-3341400D01*
X5269167Y-3331876D01*
X5307262Y-3331876D01*
X5326310Y-3341400D01*
X5335833Y-3360447D01*
X5335833Y-3379495D01*
X5240595Y-3398542D01*
X5412024Y-3455685D02*
X5431071Y-3465209D01*
X5469167Y-3465209D01*
X5488214Y-3455685D01*
X5497738Y-3436638D01*
X5497738Y-3427114D01*
X5488214Y-3408066D01*
X5469167Y-3398542D01*
X5440595Y-3398542D01*
X5421548Y-3389019D01*
X5412024Y-3369971D01*
X5412024Y-3360447D01*
X5421548Y-3341400D01*
X5440595Y-3331876D01*
X5469167Y-3331876D01*
X5488214Y-3341400D01*
X5564405Y-3541400D02*
X5573929Y-3531876D01*
X5592976Y-3503304D01*
X5602500Y-3484257D01*
X5612024Y-3455685D01*
X5621548Y-3408066D01*
X5621548Y-3369971D01*
X5612024Y-3322352D01*
X5602500Y-3293781D01*
X5592976Y-3274733D01*
X5573929Y-3246161D01*
X5564405Y-3236638D01*
D14*
X777993Y-3673756D02*
X777993Y-3603710D01*
X707947Y-3603710D01*
X707947Y-3673756D01*
X777993Y-3673756D01*
D11*
X1088214Y-3529209D02*
X1107262Y-3529209D01*
X1126310Y-3538733D01*
X1135833Y-3548257D01*
X1145357Y-3567304D01*
X1154881Y-3605400D01*
X1154881Y-3653019D01*
X1145357Y-3691114D01*
X1135833Y-3710161D01*
X1126310Y-3719685D01*
X1107262Y-3729209D01*
X1088214Y-3729209D01*
X1069167Y-3719685D01*
X1059643Y-3710161D01*
X1050119Y-3691114D01*
X1040595Y-3653019D01*
X1040595Y-3605400D01*
X1050119Y-3567304D01*
X1059643Y-3548257D01*
X1069167Y-3538733D01*
X1088214Y-3529209D01*
X1240595Y-3710161D02*
X1250119Y-3719685D01*
X1240595Y-3729209D01*
X1231071Y-3719685D01*
X1240595Y-3710161D01*
X1240595Y-3729209D01*
X1345357Y-3729209D02*
X1383452Y-3729209D01*
X1402500Y-3719685D01*
X1412024Y-3710161D01*
X1431071Y-3681590D01*
X1440595Y-3643495D01*
X1440595Y-3567304D01*
X1431071Y-3548257D01*
X1421548Y-3538733D01*
X1402500Y-3529209D01*
X1364405Y-3529209D01*
X1345357Y-3538733D01*
X1335833Y-3548257D01*
X1326310Y-3567304D01*
X1326310Y-3614923D01*
X1335833Y-3633971D01*
X1345357Y-3643495D01*
X1364405Y-3653019D01*
X1402500Y-3653019D01*
X1421548Y-3643495D01*
X1431071Y-3633971D01*
X1440595Y-3614923D01*
X1535833Y-3729209D02*
X1573928Y-3729209D01*
X1592976Y-3719685D01*
X1602500Y-3710161D01*
X1621548Y-3681590D01*
X1631071Y-3643495D01*
X1631071Y-3567304D01*
X1621548Y-3548257D01*
X1612024Y-3538733D01*
X1592976Y-3529209D01*
X1554881Y-3529209D01*
X1535833Y-3538733D01*
X1526309Y-3548257D01*
X1516786Y-3567304D01*
X1516786Y-3614923D01*
X1526309Y-3633971D01*
X1535833Y-3643495D01*
X1554881Y-3653019D01*
X1592976Y-3653019D01*
X1612024Y-3643495D01*
X1621548Y-3633971D01*
X1631071Y-3614923D01*
X1821548Y-3729209D02*
X1707262Y-3729209D01*
X1764405Y-3729209D02*
X1764405Y-3529209D01*
X1745357Y-3557781D01*
X1726309Y-3576828D01*
X1707262Y-3586352D01*
X1907262Y-3729209D02*
X1907262Y-3595876D01*
X1907262Y-3614923D02*
X1916786Y-3605400D01*
X1935833Y-3595876D01*
X1964405Y-3595876D01*
X1983452Y-3605400D01*
X1992976Y-3624447D01*
X1992976Y-3729209D01*
X1992976Y-3624447D02*
X2002500Y-3605400D01*
X2021548Y-3595876D01*
X2050119Y-3595876D01*
X2069167Y-3605400D01*
X2078690Y-3624447D01*
X2078690Y-3729209D01*
X2173929Y-3729209D02*
X2173929Y-3595876D01*
X2173929Y-3614923D02*
X2183452Y-3605400D01*
X2202500Y-3595876D01*
X2231071Y-3595876D01*
X2250119Y-3605400D01*
X2259643Y-3624447D01*
X2259643Y-3729209D01*
X2259643Y-3624447D02*
X2269167Y-3605400D01*
X2288214Y-3595876D01*
X2316786Y-3595876D01*
X2335833Y-3605400D01*
X2345357Y-3624447D01*
X2345357Y-3729209D01*
X2735833Y-3519685D02*
X2564405Y-3776828D01*
X2992976Y-3529209D02*
X3012024Y-3529209D01*
X3031071Y-3538733D01*
X3040595Y-3548257D01*
X3050119Y-3567304D01*
X3059643Y-3605400D01*
X3059643Y-3653019D01*
X3050119Y-3691114D01*
X3040595Y-3710161D01*
X3031071Y-3719685D01*
X3012024Y-3729209D01*
X2992976Y-3729209D01*
X2973928Y-3719685D01*
X2964405Y-3710161D01*
X2954881Y-3691114D01*
X2945357Y-3653019D01*
X2945357Y-3605400D01*
X2954881Y-3567304D01*
X2964405Y-3548257D01*
X2973928Y-3538733D01*
X2992976Y-3529209D01*
X3145357Y-3710161D02*
X3154881Y-3719685D01*
X3145357Y-3729209D01*
X3135833Y-3719685D01*
X3145357Y-3710161D01*
X3145357Y-3729209D01*
X3278690Y-3529209D02*
X3297738Y-3529209D01*
X3316786Y-3538733D01*
X3326309Y-3548257D01*
X3335833Y-3567304D01*
X3345357Y-3605400D01*
X3345357Y-3653019D01*
X3335833Y-3691114D01*
X3326309Y-3710161D01*
X3316786Y-3719685D01*
X3297738Y-3729209D01*
X3278690Y-3729209D01*
X3259643Y-3719685D01*
X3250119Y-3710161D01*
X3240595Y-3691114D01*
X3231071Y-3653019D01*
X3231071Y-3605400D01*
X3240595Y-3567304D01*
X3250119Y-3548257D01*
X3259643Y-3538733D01*
X3278690Y-3529209D01*
X3412024Y-3529209D02*
X3535833Y-3529209D01*
X3469167Y-3605400D01*
X3497738Y-3605400D01*
X3516786Y-3614923D01*
X3526309Y-3624447D01*
X3535833Y-3643495D01*
X3535833Y-3691114D01*
X3526309Y-3710161D01*
X3516786Y-3719685D01*
X3497738Y-3729209D01*
X3440595Y-3729209D01*
X3421548Y-3719685D01*
X3412024Y-3710161D01*
X3631071Y-3729209D02*
X3669167Y-3729209D01*
X3688214Y-3719685D01*
X3697738Y-3710161D01*
X3716786Y-3681590D01*
X3726309Y-3643495D01*
X3726309Y-3567304D01*
X3716786Y-3548257D01*
X3707262Y-3538733D01*
X3688214Y-3529209D01*
X3650119Y-3529209D01*
X3631071Y-3538733D01*
X3621548Y-3548257D01*
X3612024Y-3567304D01*
X3612024Y-3614923D01*
X3621548Y-3633971D01*
X3631071Y-3643495D01*
X3650119Y-3653019D01*
X3688214Y-3653019D01*
X3707262Y-3643495D01*
X3716786Y-3633971D01*
X3726309Y-3614923D01*
X3850119Y-3529209D02*
X3869167Y-3529209D01*
X3888214Y-3538733D01*
X3897738Y-3548257D01*
X3907262Y-3567304D01*
X3916786Y-3605400D01*
X3916786Y-3653019D01*
X3907262Y-3691114D01*
X3897738Y-3710161D01*
X3888214Y-3719685D01*
X3869167Y-3729209D01*
X3850119Y-3729209D01*
X3831071Y-3719685D01*
X3821548Y-3710161D01*
X3812024Y-3691114D01*
X3802500Y-3653019D01*
X3802500Y-3605400D01*
X3812024Y-3567304D01*
X3821548Y-3548257D01*
X3831071Y-3538733D01*
X3850119Y-3529209D01*
X3992976Y-3529209D02*
X3992976Y-3567304D01*
X4069167Y-3529209D02*
X4069167Y-3567304D01*
X4364405Y-3805400D02*
X4354881Y-3795876D01*
X4335833Y-3767304D01*
X4326310Y-3748257D01*
X4316786Y-3719685D01*
X4307262Y-3672066D01*
X4307262Y-3633971D01*
X4316786Y-3586352D01*
X4326310Y-3557781D01*
X4335833Y-3538733D01*
X4354881Y-3510161D01*
X4364405Y-3500638D01*
X4526310Y-3595876D02*
X4526310Y-3729209D01*
X4478690Y-3519685D02*
X4431071Y-3662542D01*
X4554881Y-3662542D01*
X4621548Y-3548257D02*
X4631071Y-3538733D01*
X4650119Y-3529209D01*
X4697738Y-3529209D01*
X4716786Y-3538733D01*
X4726310Y-3548257D01*
X4735833Y-3567304D01*
X4735833Y-3586352D01*
X4726310Y-3614923D01*
X4612024Y-3729209D01*
X4735833Y-3729209D01*
X4973929Y-3729209D02*
X4973929Y-3529209D01*
X5059643Y-3729209D02*
X5059643Y-3624447D01*
X5050119Y-3605400D01*
X5031071Y-3595876D01*
X5002500Y-3595876D01*
X4983452Y-3605400D01*
X4973929Y-3614923D01*
X5183452Y-3729209D02*
X5164405Y-3719685D01*
X5154881Y-3710161D01*
X5145357Y-3691114D01*
X5145357Y-3633971D01*
X5154881Y-3614923D01*
X5164405Y-3605400D01*
X5183452Y-3595876D01*
X5212024Y-3595876D01*
X5231071Y-3605400D01*
X5240595Y-3614923D01*
X5250119Y-3633971D01*
X5250119Y-3691114D01*
X5240595Y-3710161D01*
X5231071Y-3719685D01*
X5212024Y-3729209D01*
X5183452Y-3729209D01*
X5364405Y-3729209D02*
X5345357Y-3719685D01*
X5335833Y-3700638D01*
X5335833Y-3529209D01*
X5516786Y-3719685D02*
X5497738Y-3729209D01*
X5459643Y-3729209D01*
X5440595Y-3719685D01*
X5431071Y-3700638D01*
X5431071Y-3624447D01*
X5440595Y-3605400D01*
X5459643Y-3595876D01*
X5497738Y-3595876D01*
X5516786Y-3605400D01*
X5526310Y-3624447D01*
X5526310Y-3643495D01*
X5431071Y-3662542D01*
X5602500Y-3719685D02*
X5621548Y-3729209D01*
X5659643Y-3729209D01*
X5678690Y-3719685D01*
X5688214Y-3700638D01*
X5688214Y-3691114D01*
X5678690Y-3672066D01*
X5659643Y-3662542D01*
X5631071Y-3662542D01*
X5612024Y-3653019D01*
X5602500Y-3633971D01*
X5602500Y-3624447D01*
X5612024Y-3605400D01*
X5631071Y-3595876D01*
X5659643Y-3595876D01*
X5678690Y-3605400D01*
X5754881Y-3805400D02*
X5764405Y-3795876D01*
X5783452Y-3767304D01*
X5792976Y-3748257D01*
X5802500Y-3719685D01*
X5812024Y-3672066D01*
X5812024Y-3633971D01*
X5802500Y-3586352D01*
X5792976Y-3557781D01*
X5783452Y-3538733D01*
X5764405Y-3510161D01*
X5754881Y-3500638D01*
D15*
X737500Y-3957733D02*
X792500Y-3902733D01*
X737500Y-3847733D01*
X682500Y-3902733D01*
X737500Y-3957733D01*
D11*
X1154881Y-3993209D02*
X1040595Y-3993209D01*
X1097738Y-3993209D02*
X1097738Y-3793209D01*
X1078690Y-3821781D01*
X1059643Y-3840828D01*
X1040595Y-3850352D01*
X1240595Y-3974161D02*
X1250119Y-3983685D01*
X1240595Y-3993209D01*
X1231071Y-3983685D01*
X1240595Y-3974161D01*
X1240595Y-3993209D01*
X1440595Y-3993209D02*
X1326310Y-3993209D01*
X1383452Y-3993209D02*
X1383452Y-3793209D01*
X1364405Y-3821781D01*
X1345357Y-3840828D01*
X1326310Y-3850352D01*
X1564405Y-3793209D02*
X1583452Y-3793209D01*
X1602500Y-3802733D01*
X1612024Y-3812257D01*
X1621548Y-3831304D01*
X1631071Y-3869400D01*
X1631071Y-3917019D01*
X1621548Y-3955114D01*
X1612024Y-3974161D01*
X1602500Y-3983685D01*
X1583452Y-3993209D01*
X1564405Y-3993209D01*
X1545357Y-3983685D01*
X1535833Y-3974161D01*
X1526309Y-3955114D01*
X1516786Y-3917019D01*
X1516786Y-3869400D01*
X1526309Y-3831304D01*
X1535833Y-3812257D01*
X1545357Y-3802733D01*
X1564405Y-3793209D01*
X1754881Y-3793209D02*
X1773928Y-3793209D01*
X1792976Y-3802733D01*
X1802500Y-3812257D01*
X1812024Y-3831304D01*
X1821548Y-3869400D01*
X1821548Y-3917019D01*
X1812024Y-3955114D01*
X1802500Y-3974161D01*
X1792976Y-3983685D01*
X1773928Y-3993209D01*
X1754881Y-3993209D01*
X1735833Y-3983685D01*
X1726309Y-3974161D01*
X1716786Y-3955114D01*
X1707262Y-3917019D01*
X1707262Y-3869400D01*
X1716786Y-3831304D01*
X1726309Y-3812257D01*
X1735833Y-3802733D01*
X1754881Y-3793209D01*
X1907262Y-3993209D02*
X1907262Y-3859876D01*
X1907262Y-3878923D02*
X1916786Y-3869400D01*
X1935833Y-3859876D01*
X1964405Y-3859876D01*
X1983452Y-3869400D01*
X1992976Y-3888447D01*
X1992976Y-3993209D01*
X1992976Y-3888447D02*
X2002500Y-3869400D01*
X2021548Y-3859876D01*
X2050119Y-3859876D01*
X2069167Y-3869400D01*
X2078690Y-3888447D01*
X2078690Y-3993209D01*
X2173929Y-3993209D02*
X2173929Y-3859876D01*
X2173929Y-3878923D02*
X2183452Y-3869400D01*
X2202500Y-3859876D01*
X2231071Y-3859876D01*
X2250119Y-3869400D01*
X2259643Y-3888447D01*
X2259643Y-3993209D01*
X2259643Y-3888447D02*
X2269167Y-3869400D01*
X2288214Y-3859876D01*
X2316786Y-3859876D01*
X2335833Y-3869400D01*
X2345357Y-3888447D01*
X2345357Y-3993209D01*
X2735833Y-3783685D02*
X2564405Y-4040828D01*
X2992976Y-3793209D02*
X3012024Y-3793209D01*
X3031071Y-3802733D01*
X3040595Y-3812257D01*
X3050119Y-3831304D01*
X3059643Y-3869400D01*
X3059643Y-3917019D01*
X3050119Y-3955114D01*
X3040595Y-3974161D01*
X3031071Y-3983685D01*
X3012024Y-3993209D01*
X2992976Y-3993209D01*
X2973928Y-3983685D01*
X2964405Y-3974161D01*
X2954881Y-3955114D01*
X2945357Y-3917019D01*
X2945357Y-3869400D01*
X2954881Y-3831304D01*
X2964405Y-3812257D01*
X2973928Y-3802733D01*
X2992976Y-3793209D01*
X3145357Y-3974161D02*
X3154881Y-3983685D01*
X3145357Y-3993209D01*
X3135833Y-3983685D01*
X3145357Y-3974161D01*
X3145357Y-3993209D01*
X3278690Y-3793209D02*
X3297738Y-3793209D01*
X3316786Y-3802733D01*
X3326309Y-3812257D01*
X3335833Y-3831304D01*
X3345357Y-3869400D01*
X3345357Y-3917019D01*
X3335833Y-3955114D01*
X3326309Y-3974161D01*
X3316786Y-3983685D01*
X3297738Y-3993209D01*
X3278690Y-3993209D01*
X3259643Y-3983685D01*
X3250119Y-3974161D01*
X3240595Y-3955114D01*
X3231071Y-3917019D01*
X3231071Y-3869400D01*
X3240595Y-3831304D01*
X3250119Y-3812257D01*
X3259643Y-3802733D01*
X3278690Y-3793209D01*
X3516786Y-3859876D02*
X3516786Y-3993209D01*
X3469167Y-3783685D02*
X3421548Y-3926542D01*
X3545357Y-3926542D01*
X3602500Y-3793209D02*
X3726309Y-3793209D01*
X3659643Y-3869400D01*
X3688214Y-3869400D01*
X3707262Y-3878923D01*
X3716786Y-3888447D01*
X3726309Y-3907495D01*
X3726309Y-3955114D01*
X3716786Y-3974161D01*
X3707262Y-3983685D01*
X3688214Y-3993209D01*
X3631071Y-3993209D01*
X3612024Y-3983685D01*
X3602500Y-3974161D01*
X3792976Y-3793209D02*
X3916786Y-3793209D01*
X3850119Y-3869400D01*
X3878690Y-3869400D01*
X3897738Y-3878923D01*
X3907262Y-3888447D01*
X3916786Y-3907495D01*
X3916786Y-3955114D01*
X3907262Y-3974161D01*
X3897738Y-3983685D01*
X3878690Y-3993209D01*
X3821548Y-3993209D01*
X3802500Y-3983685D01*
X3792976Y-3974161D01*
X3992976Y-3793209D02*
X3992976Y-3831304D01*
X4069167Y-3793209D02*
X4069167Y-3831304D01*
X4364405Y-4069400D02*
X4354881Y-4059876D01*
X4335833Y-4031304D01*
X4326310Y-4012257D01*
X4316786Y-3983685D01*
X4307262Y-3936066D01*
X4307262Y-3897971D01*
X4316786Y-3850352D01*
X4326310Y-3821781D01*
X4335833Y-3802733D01*
X4354881Y-3774161D01*
X4364405Y-3764638D01*
X4431071Y-3812257D02*
X4440595Y-3802733D01*
X4459643Y-3793209D01*
X4507262Y-3793209D01*
X4526310Y-3802733D01*
X4535833Y-3812257D01*
X4545357Y-3831304D01*
X4545357Y-3850352D01*
X4535833Y-3878923D01*
X4421548Y-3993209D01*
X4545357Y-3993209D01*
X4716786Y-3793209D02*
X4678690Y-3793209D01*
X4659643Y-3802733D01*
X4650119Y-3812257D01*
X4631071Y-3840828D01*
X4621548Y-3878923D01*
X4621548Y-3955114D01*
X4631071Y-3974161D01*
X4640595Y-3983685D01*
X4659643Y-3993209D01*
X4697738Y-3993209D01*
X4716786Y-3983685D01*
X4726310Y-3974161D01*
X4735833Y-3955114D01*
X4735833Y-3907495D01*
X4726310Y-3888447D01*
X4716786Y-3878923D01*
X4697738Y-3869400D01*
X4659643Y-3869400D01*
X4640595Y-3878923D01*
X4631071Y-3888447D01*
X4621548Y-3907495D01*
X4973929Y-3993209D02*
X4973929Y-3793209D01*
X5059643Y-3993209D02*
X5059643Y-3888447D01*
X5050119Y-3869400D01*
X5031071Y-3859876D01*
X5002500Y-3859876D01*
X4983452Y-3869400D01*
X4973929Y-3878923D01*
X5183452Y-3993209D02*
X5164405Y-3983685D01*
X5154881Y-3974161D01*
X5145357Y-3955114D01*
X5145357Y-3897971D01*
X5154881Y-3878923D01*
X5164405Y-3869400D01*
X5183452Y-3859876D01*
X5212024Y-3859876D01*
X5231071Y-3869400D01*
X5240595Y-3878923D01*
X5250119Y-3897971D01*
X5250119Y-3955114D01*
X5240595Y-3974161D01*
X5231071Y-3983685D01*
X5212024Y-3993209D01*
X5183452Y-3993209D01*
X5364405Y-3993209D02*
X5345357Y-3983685D01*
X5335833Y-3964638D01*
X5335833Y-3793209D01*
X5516786Y-3983685D02*
X5497738Y-3993209D01*
X5459643Y-3993209D01*
X5440595Y-3983685D01*
X5431071Y-3964638D01*
X5431071Y-3888447D01*
X5440595Y-3869400D01*
X5459643Y-3859876D01*
X5497738Y-3859876D01*
X5516786Y-3869400D01*
X5526310Y-3888447D01*
X5526310Y-3907495D01*
X5431071Y-3926542D01*
X5602500Y-3983685D02*
X5621548Y-3993209D01*
X5659643Y-3993209D01*
X5678690Y-3983685D01*
X5688214Y-3964638D01*
X5688214Y-3955114D01*
X5678690Y-3936066D01*
X5659643Y-3926542D01*
X5631071Y-3926542D01*
X5612024Y-3917019D01*
X5602500Y-3897971D01*
X5602500Y-3888447D01*
X5612024Y-3869400D01*
X5631071Y-3859876D01*
X5659643Y-3859876D01*
X5678690Y-3869400D01*
X5754881Y-4069400D02*
X5764405Y-4059876D01*
X5783452Y-4031304D01*
X5792976Y-4012257D01*
X5802500Y-3983685D01*
X5812024Y-3936066D01*
X5812024Y-3897971D01*
X5802500Y-3850352D01*
X5792976Y-3821781D01*
X5783452Y-3802733D01*
X5764405Y-3774161D01*
X5754881Y-3764638D01*
M02*
