M48
; DRILL file {KiCad (6.0.4)} date Fri Jul 15 23:35:48 2022
; FORMAT={-:-/ absolute / metric / decimal}
; #@! TF.CreationDate,2022-07-15T23:35:48-07:00
; #@! TF.GenerationSoftware,Kicad,Pcbnew,(6.0.4)
; #@! TF.FileFunction,Plated,1,2,PTH
FMAT,2
METRIC
; #@! TA.AperFunction,Plated,PTH,ViaDrill
T1C0.400
; #@! TA.AperFunction,Plated,PTH,ComponentDrill
T2C0.400
; #@! TA.AperFunction,Plated,PTH,ComponentDrill
T3C0.800
; #@! TA.AperFunction,Plated,PTH,ComponentDrill
T4C0.991
; #@! TA.AperFunction,Plated,PTH,ComponentDrill
T5C1.100
%
G90
G05
T1
X23.214Y23.577
X26.275Y11.197
X41.214Y22.95
X41.526Y13.282
X43.095Y12.377
X46.459Y37.288
X47.159Y39.694
X62.275Y23.052
X78.648Y-5.373
X80.275Y51.993
X80.275Y34.775
X83.203Y38.224
X95.25Y26.519
X96.803Y37.5
X97.524Y47.737
X98.275Y42.527
X101.6Y0.635
X104.665Y17.148
X105.37Y17.873
X108.591Y22.497
X114.054Y37.109
X114.783Y43.731
X115.537Y32.521
X117.38Y32.605
X121.976Y21.94
X127.0Y50.3
X128.601Y51.172
X133.985Y12.966
X136.525Y-5.08
T2
X126.128Y46.07
X126.128Y43.53
X126.128Y40.99
X126.128Y38.45
X126.128Y35.91
X126.128Y33.37
X126.128Y30.83
X126.128Y28.29
X126.128Y25.75
X126.128Y23.21
X126.128Y20.67
X126.128Y18.13
X127.652Y46.07
X127.652Y43.53
X127.652Y40.99
X127.652Y38.45
X127.652Y35.91
X127.652Y33.37
X127.652Y30.83
X127.652Y28.29
X127.652Y25.75
X127.652Y23.21
X127.652Y20.67
X127.652Y18.13
T3
X123.105Y5.4
X125.645Y5.4
T4
X14.19Y29.0
X14.19Y12.0
X14.19Y-5.0
X21.81Y29.0
X21.81Y12.0
X21.81Y-5.0
X32.19Y29.0
X32.19Y12.0
X32.19Y-5.0
X39.81Y29.0
X39.81Y12.0
X39.81Y-5.0
X50.19Y40.9
X50.19Y23.9
X50.19Y6.9
X57.81Y40.9
X57.81Y23.9
X57.81Y6.9
X68.19Y45.15
X68.19Y28.15
X68.19Y11.15
X75.81Y45.15
X75.81Y28.15
X75.81Y11.15
X85.707Y-16.976
X86.19Y40.9
X86.19Y23.9
X86.19Y6.9
X93.068Y-15.004
X93.81Y40.9
X93.81Y23.9
X93.81Y6.9
X104.177Y-13.541
X104.19Y37.5
X104.19Y20.5
X104.19Y3.5
X111.797Y-13.541
X111.81Y37.5
X111.81Y20.5
X111.81Y3.5
X122.906Y-15.004
X130.266Y-16.976
T5
X119.27Y46.07
X119.27Y46.07
X119.27Y43.53
X119.27Y40.99
X119.27Y38.45
X119.27Y35.91
X119.27Y33.37
X119.27Y30.83
X119.27Y28.29
X119.27Y25.75
X119.27Y23.21
X119.27Y20.67
X119.27Y18.13
X134.51Y46.07
X134.51Y46.07
X134.51Y43.53
X134.51Y40.99
X134.51Y38.45
X134.51Y35.91
X134.51Y33.37
X134.51Y30.83
X134.51Y28.29
X134.51Y25.75
X134.51Y23.21
X134.51Y20.67
X134.51Y18.13
T0
M30
