M48
; DRILL file {KiCad (6.0.4)} date Sun Jul  3 12:25:18 2022
; FORMAT={-:-/ absolute / metric / decimal}
; #@! TF.CreationDate,2022-07-03T12:25:18-07:00
; #@! TF.GenerationSoftware,Kicad,Pcbnew,(6.0.4)
; #@! TF.FileFunction,NonPlated,1,2,NPTH
FMAT,2
METRIC
; #@! TA.AperFunction,NonPlated,NPTH,ComponentDrill
T1C0.900
; #@! TA.AperFunction,NonPlated,NPTH,ComponentDrill
T2C1.702
; #@! TA.AperFunction,NonPlated,NPTH,ComponentDrill
T3C3.000
; #@! TA.AperFunction,NonPlated,NPTH,ComponentDrill
T4C3.429
%
G90
G05
T1
X125.39Y50.005
X125.39Y50.005
X128.39Y50.005
X128.39Y50.005
T2
X12.5Y34.0
X12.5Y17.0
X12.5Y0.0
X23.5Y34.0
X23.5Y17.0
X23.5Y0.0
X30.5Y34.0
X30.5Y17.0
X30.5Y0.0
X41.5Y34.0
X41.5Y17.0
X41.5Y0.0
X48.5Y45.9
X48.5Y28.9
X48.5Y11.9
X59.5Y45.9
X59.5Y28.9
X59.5Y11.9
X66.5Y50.15
X66.5Y33.15
X66.5Y16.15
X77.5Y50.15
X77.5Y33.15
X77.5Y16.15
X82.781Y-12.584
X84.5Y45.9
X84.5Y28.9
X84.5Y11.9
X93.406Y-9.737
X95.5Y45.9
X95.5Y28.9
X95.5Y11.9
X102.487Y-8.541
X102.5Y42.5
X102.5Y25.5
X102.5Y8.5
X113.487Y-8.541
X113.5Y42.5
X113.5Y25.5
X113.5Y8.5
X122.567Y-9.737
X133.193Y-12.584
T3
X13.0Y37.75
X13.0Y20.75
X13.0Y3.75
X18.0Y39.95
X18.0Y39.95
X18.0Y22.95
X18.0Y22.95
X18.0Y5.95
X18.0Y5.95
X23.0Y37.75
X23.0Y20.75
X23.0Y3.75
X31.0Y37.75
X31.0Y20.75
X31.0Y3.75
X36.0Y39.95
X36.0Y39.95
X36.0Y22.95
X36.0Y22.95
X36.0Y5.95
X36.0Y5.95
X41.0Y37.75
X41.0Y20.75
X41.0Y3.75
X49.0Y49.65
X49.0Y32.65
X49.0Y15.65
X54.0Y51.85
X54.0Y51.85
X54.0Y34.85
X54.0Y34.85
X54.0Y17.85
X54.0Y17.85
X59.0Y49.65
X59.0Y32.65
X59.0Y15.65
X67.0Y53.9
X67.0Y36.9
X67.0Y19.9
X72.0Y56.1
X72.0Y56.1
X72.0Y39.1
X72.0Y39.1
X72.0Y22.1
X72.0Y22.1
X77.0Y53.9
X77.0Y36.9
X77.0Y19.9
X82.293Y-8.832
X85.0Y49.65
X85.0Y32.65
X85.0Y15.65
X86.553Y-5.413
X86.553Y-5.413
X90.0Y51.85
X90.0Y51.85
X90.0Y34.85
X90.0Y34.85
X90.0Y17.85
X90.0Y17.85
X91.952Y-6.244
X95.0Y49.65
X95.0Y32.65
X95.0Y15.65
X102.987Y-4.791
X103.0Y46.25
X103.0Y29.25
X103.0Y12.25
X107.987Y-2.591
X107.987Y-2.591
X108.0Y48.45
X108.0Y48.45
X108.0Y31.45
X108.0Y31.45
X108.0Y14.45
X108.0Y14.45
X112.987Y-4.791
X113.0Y46.25
X113.0Y29.25
X113.0Y12.25
X124.021Y-6.244
X129.42Y-5.413
X129.42Y-5.413
X133.68Y-8.832
T4
X18.0Y34.0
X18.0Y17.0
X18.0Y0.0
X36.0Y34.0
X36.0Y17.0
X36.0Y0.0
X54.0Y45.9
X54.0Y28.9
X54.0Y11.9
X72.0Y50.15
X72.0Y33.15
X72.0Y16.15
X88.093Y-11.16
X90.0Y45.9
X90.0Y28.9
X90.0Y11.9
X107.987Y-8.541
X108.0Y42.5
X108.0Y25.5
X108.0Y8.5
X127.88Y-11.16
T0
M30
