%TF.GenerationSoftware,KiCad,Pcbnew,(6.0.4)*%
%TF.CreationDate,2022-07-15T23:35:53-07:00*%
%TF.ProjectId,danns87_corne_custom,64616e6e-7338-4375-9f63-6f726e655f63,v1.0.0*%
%TF.SameCoordinates,Original*%
%TF.FileFunction,Legend,Bot*%
%TF.FilePolarity,Positive*%
%FSLAX46Y46*%
G04 Gerber Fmt 4.6, Leading zero omitted, Abs format (unit mm)*
G04 Created by KiCad (PCBNEW (6.0.4)) date 2022-07-15 23:35:53*
%MOMM*%
%LPD*%
G01*
G04 APERTURE LIST*
%ADD10C,0.100000*%
%ADD11C,0.150000*%
%ADD12C,1.000000*%
G04 APERTURE END LIST*
D10*
%TO.C,D10*%
X71650000Y11150000D02*
X72250000Y11550000D01*
X72250000Y11150000D02*
X72750000Y11150000D01*
X71250000Y11150000D02*
X71650000Y11150000D01*
X72250000Y11550000D02*
X72250000Y10750000D01*
X71650000Y11150000D02*
X71650000Y10600000D01*
X71650000Y11150000D02*
X71650000Y11700000D01*
X72250000Y10750000D02*
X71650000Y11150000D01*
%TO.C,D9*%
X53650000Y40900000D02*
X53650000Y40350000D01*
X54250000Y41300000D02*
X54250000Y40500000D01*
X53650000Y40900000D02*
X54250000Y41300000D01*
X54250000Y40900000D02*
X54750000Y40900000D01*
X54250000Y40500000D02*
X53650000Y40900000D01*
X53250000Y40900000D02*
X53650000Y40900000D01*
X53650000Y40900000D02*
X53650000Y41450000D01*
%TO.C,D7*%
X53250000Y6900000D02*
X53650000Y6900000D01*
X53650000Y6900000D02*
X53650000Y6350000D01*
X54250000Y6500000D02*
X53650000Y6900000D01*
X54250000Y6900000D02*
X54750000Y6900000D01*
X54250000Y7300000D02*
X54250000Y6500000D01*
X53650000Y6900000D02*
X53650000Y7450000D01*
X53650000Y6900000D02*
X54250000Y7300000D01*
%TO.C,D2*%
X18250000Y12400000D02*
X18250000Y11600000D01*
X17250000Y12000000D02*
X17650000Y12000000D01*
X17650000Y12000000D02*
X17650000Y11450000D01*
X18250000Y12000000D02*
X18750000Y12000000D01*
X17650000Y12000000D02*
X17650000Y12550000D01*
X18250000Y11600000D02*
X17650000Y12000000D01*
X17650000Y12000000D02*
X18250000Y12400000D01*
%TO.C,D16*%
X107650000Y3500000D02*
X107650000Y2950000D01*
X108250000Y3100000D02*
X107650000Y3500000D01*
X107650000Y3500000D02*
X108250000Y3900000D01*
X107650000Y3500000D02*
X107650000Y4050000D01*
X108250000Y3500000D02*
X108750000Y3500000D01*
X107250000Y3500000D02*
X107650000Y3500000D01*
X108250000Y3900000D02*
X108250000Y3100000D01*
%TO.C,D1*%
X18250000Y-5400000D02*
X17650000Y-5000000D01*
X17650000Y-5000000D02*
X17650000Y-5550000D01*
X18250000Y-5000000D02*
X18750000Y-5000000D01*
X17250000Y-5000000D02*
X17650000Y-5000000D01*
X17650000Y-5000000D02*
X17650000Y-4450000D01*
X18250000Y-4600000D02*
X18250000Y-5400000D01*
X17650000Y-5000000D02*
X18250000Y-4600000D01*
%TO.C,D6*%
X36250000Y28600000D02*
X35650000Y29000000D01*
X35650000Y29000000D02*
X35650000Y28450000D01*
X35650000Y29000000D02*
X36250000Y29400000D01*
X36250000Y29400000D02*
X36250000Y28600000D01*
X35250000Y29000000D02*
X35650000Y29000000D01*
X36250000Y29000000D02*
X36750000Y29000000D01*
X35650000Y29000000D02*
X35650000Y29550000D01*
%TO.C,D13*%
X90250000Y6500000D02*
X89650000Y6900000D01*
X89250000Y6900000D02*
X89650000Y6900000D01*
X89650000Y6900000D02*
X89650000Y7450000D01*
X90250000Y7300000D02*
X90250000Y6500000D01*
X89650000Y6900000D02*
X90250000Y7300000D01*
X89650000Y6900000D02*
X89650000Y6350000D01*
X90250000Y6900000D02*
X90750000Y6900000D01*
%TO.C,D4*%
X35650000Y-5000000D02*
X35650000Y-5550000D01*
X35650000Y-5000000D02*
X36250000Y-4600000D01*
X36250000Y-5000000D02*
X36750000Y-5000000D01*
X35250000Y-5000000D02*
X35650000Y-5000000D01*
X36250000Y-5400000D02*
X35650000Y-5000000D01*
X36250000Y-4600000D02*
X36250000Y-5400000D01*
X35650000Y-5000000D02*
X35650000Y-4450000D01*
D11*
%TO.C,MCU1*%
X133240000Y47340000D02*
X135780000Y47340000D01*
X135780000Y44800000D02*
X135780000Y47340000D01*
X133240000Y44800000D02*
X135780000Y44800000D01*
X133240000Y47340000D02*
X133240000Y44800000D01*
D10*
%TO.C,D14*%
X89250000Y23900000D02*
X89650000Y23900000D01*
X89650000Y23900000D02*
X90250000Y24300000D01*
X90250000Y24300000D02*
X90250000Y23500000D01*
X90250000Y23500000D02*
X89650000Y23900000D01*
X89650000Y23900000D02*
X89650000Y23350000D01*
X90250000Y23900000D02*
X90750000Y23900000D01*
X89650000Y23900000D02*
X89650000Y24450000D01*
%TO.C,D18*%
X107650000Y37500000D02*
X107650000Y38050000D01*
X108250000Y37900000D02*
X108250000Y37100000D01*
X107650000Y37500000D02*
X108250000Y37900000D01*
X108250000Y37500000D02*
X108750000Y37500000D01*
X107650000Y37500000D02*
X107650000Y36950000D01*
X107250000Y37500000D02*
X107650000Y37500000D01*
X108250000Y37100000D02*
X107650000Y37500000D01*
%TO.C,D8*%
X53250000Y23900000D02*
X53650000Y23900000D01*
X54250000Y24300000D02*
X54250000Y23500000D01*
X53650000Y23900000D02*
X53650000Y24450000D01*
X54250000Y23900000D02*
X54750000Y23900000D01*
X54250000Y23500000D02*
X53650000Y23900000D01*
X53650000Y23900000D02*
X53650000Y23350000D01*
X53650000Y23900000D02*
X54250000Y24300000D01*
%TO.C,D11*%
X71650000Y28150000D02*
X71650000Y28700000D01*
X72250000Y28150000D02*
X72750000Y28150000D01*
X71650000Y28150000D02*
X72250000Y28550000D01*
X71250000Y28150000D02*
X71650000Y28150000D01*
X71650000Y28150000D02*
X71650000Y27600000D01*
X72250000Y27750000D02*
X71650000Y28150000D01*
X72250000Y28550000D02*
X72250000Y27750000D01*
%TO.C,D3*%
X17650000Y29000000D02*
X18250000Y29400000D01*
X17650000Y29000000D02*
X17650000Y28450000D01*
X18250000Y29400000D02*
X18250000Y28600000D01*
X18250000Y28600000D02*
X17650000Y29000000D01*
X18250000Y29000000D02*
X18750000Y29000000D01*
X17250000Y29000000D02*
X17650000Y29000000D01*
X17650000Y29000000D02*
X17650000Y29550000D01*
%TO.C,D5*%
X36250000Y12400000D02*
X36250000Y11600000D01*
X36250000Y11600000D02*
X35650000Y12000000D01*
X35650000Y12000000D02*
X35650000Y12550000D01*
X36250000Y12000000D02*
X36750000Y12000000D01*
X35650000Y12000000D02*
X36250000Y12400000D01*
X35650000Y12000000D02*
X35650000Y11450000D01*
X35250000Y12000000D02*
X35650000Y12000000D01*
%TO.C,D17*%
X107650000Y20500000D02*
X108250000Y20900000D01*
X107650000Y20500000D02*
X107650000Y19950000D01*
X108250000Y20100000D02*
X107650000Y20500000D01*
X107250000Y20500000D02*
X107650000Y20500000D01*
X108250000Y20500000D02*
X108750000Y20500000D01*
X108250000Y20900000D02*
X108250000Y20100000D01*
X107650000Y20500000D02*
X107650000Y21050000D01*
%TO.C,D20*%
X107636700Y-13541300D02*
X107636700Y-14091300D01*
X107636700Y-13541300D02*
X108236700Y-13141300D01*
X108236700Y-13141300D02*
X108236700Y-13941300D01*
X107236700Y-13541300D02*
X107636700Y-13541300D01*
X107636700Y-13541300D02*
X107636700Y-12991300D01*
X108236700Y-13941300D02*
X107636700Y-13541300D01*
X108236700Y-13541300D02*
X108736700Y-13541300D01*
%TO.C,D21*%
X126247826Y-15899313D02*
X126105475Y-16430573D01*
X126247826Y-15899313D02*
X126390176Y-15368054D01*
X126247826Y-15899313D02*
X126930909Y-15668234D01*
X126827381Y-16054605D02*
X127310344Y-16184014D01*
X126723854Y-16440975D02*
X126247826Y-15899313D01*
X125861456Y-15795786D02*
X126247826Y-15899313D01*
X126930909Y-15668234D02*
X126723854Y-16440975D01*
%TO.C,D12*%
X72250000Y45550000D02*
X72250000Y44750000D01*
X72250000Y44750000D02*
X71650000Y45150000D01*
X71650000Y45150000D02*
X71650000Y45700000D01*
X71650000Y45150000D02*
X71650000Y44600000D01*
X71650000Y45150000D02*
X72250000Y45550000D01*
X72250000Y45150000D02*
X72750000Y45150000D01*
X71250000Y45150000D02*
X71650000Y45150000D01*
%TO.C,D15*%
X89650000Y40900000D02*
X89650000Y41450000D01*
X89650000Y40900000D02*
X90250000Y41300000D01*
X90250000Y40900000D02*
X90750000Y40900000D01*
X90250000Y40500000D02*
X89650000Y40900000D01*
X89650000Y40900000D02*
X89650000Y40350000D01*
X90250000Y41300000D02*
X90250000Y40500000D01*
X89250000Y40900000D02*
X89650000Y40900000D01*
%TO.C,D19*%
X89628981Y-15925195D02*
X90111944Y-15795786D01*
X89049426Y-16080487D02*
X89191776Y-16611746D01*
X89525454Y-15538825D02*
X89732509Y-16311566D01*
X89732509Y-16311566D02*
X89049426Y-16080487D01*
X89049426Y-16080487D02*
X88907075Y-15549227D01*
X89049426Y-16080487D02*
X89525454Y-15538825D01*
X88663056Y-16184014D02*
X89049426Y-16080487D01*
%TD*%
D12*
%TO.C,PAD1*%
X123105000Y5400000D03*
X125645000Y5400000D03*
%TD*%
M02*
