%TF.GenerationSoftware,KiCad,Pcbnew,(6.0.4)*%
%TF.CreationDate,2022-07-15T23:35:53-07:00*%
%TF.ProjectId,danns87_corne_custom,64616e6e-7338-4375-9f63-6f726e655f63,v1.0.0*%
%TF.SameCoordinates,Original*%
%TF.FileFunction,Soldermask,Top*%
%TF.FilePolarity,Negative*%
%FSLAX46Y46*%
G04 Gerber Fmt 4.6, Leading zero omitted, Abs format (unit mm)*
G04 Created by KiCad (PCBNEW (6.0.4)) date 2022-07-15 23:35:53*
%MOMM*%
%LPD*%
G01*
G04 APERTURE LIST*
G04 Aperture macros list*
%AMRoundRect*
0 Rectangle with rounded corners*
0 $1 Rounding radius*
0 $2 $3 $4 $5 $6 $7 $8 $9 X,Y pos of 4 corners*
0 Add a 4 corners polygon primitive as box body*
4,1,4,$2,$3,$4,$5,$6,$7,$8,$9,$2,$3,0*
0 Add four circle primitives for the rounded corners*
1,1,$1+$1,$2,$3*
1,1,$1+$1,$4,$5*
1,1,$1+$1,$6,$7*
1,1,$1+$1,$8,$9*
0 Add four rect primitives between the rounded corners*
20,1,$1+$1,$2,$3,$4,$5,0*
20,1,$1+$1,$4,$5,$6,$7,0*
20,1,$1+$1,$6,$7,$8,$9,0*
20,1,$1+$1,$8,$9,$2,$3,0*%
%AMFreePoly0*
4,1,14,0.635355,0.435355,0.650000,0.400000,0.650000,0.200000,0.635355,0.164645,0.035355,-0.435355,0.000000,-0.450000,-0.035355,-0.435355,-0.635355,0.164645,-0.650000,0.200000,-0.650000,0.400000,-0.635355,0.435355,-0.600000,0.450000,0.600000,0.450000,0.635355,0.435355,0.635355,0.435355,$1*%
%AMFreePoly1*
4,1,16,0.635355,1.035355,0.650000,1.000000,0.650000,-0.250000,0.635355,-0.285355,0.600000,-0.300000,-0.600000,-0.300000,-0.635355,-0.285355,-0.650000,-0.250000,-0.650000,1.000000,-0.635355,1.035355,-0.600000,1.050000,-0.564645,1.035355,0.000000,0.470710,0.564645,1.035355,0.600000,1.050000,0.635355,1.035355,0.635355,1.035355,$1*%
G04 Aperture macros list end*
%ADD10C,0.250000*%
%ADD11C,0.100000*%
%ADD12C,1.100000*%
%ADD13C,2.005000*%
%ADD14RoundRect,0.050000X-0.450000X-0.600000X0.450000X-0.600000X0.450000X0.600000X-0.450000X0.600000X0*%
%ADD15RoundRect,0.050000X-0.889000X-0.889000X0.889000X-0.889000X0.889000X0.889000X-0.889000X0.889000X0*%
%ADD16C,3.100000*%
%ADD17C,3.529000*%
%ADD18C,1.801800*%
%ADD19RoundRect,0.050000X-1.300000X-1.300000X1.300000X-1.300000X1.300000X1.300000X-1.300000X1.300000X0*%
%ADD20RoundRect,0.050000X1.000000X-0.500000X1.000000X0.500000X-1.000000X0.500000X-1.000000X-0.500000X0*%
%ADD21FreePoly0,270.000000*%
%ADD22FreePoly0,90.000000*%
%ADD23RoundRect,0.050000X-0.800000X0.800000X-0.800000X-0.800000X0.800000X-0.800000X0.800000X0.800000X0*%
%ADD24C,1.700000*%
%ADD25FreePoly1,270.000000*%
%ADD26FreePoly1,90.000000*%
%ADD27RoundRect,0.050000X0.500000X0.400000X-0.500000X0.400000X-0.500000X-0.400000X0.500000X-0.400000X0*%
%ADD28C,1.000000*%
%ADD29RoundRect,0.050000X0.350000X0.750000X-0.350000X0.750000X-0.350000X-0.750000X0.350000X-0.750000X0*%
%ADD30RoundRect,0.050000X-0.589958X-0.463087X0.279375X-0.696024X0.589958X0.463087X-0.279375X0.696024X0*%
%ADD31RoundRect,0.050000X-1.088798X-0.628618X0.628618X-1.088798X1.088798X0.628618X-0.628618X1.088798X0*%
%ADD32RoundRect,0.050000X-0.279375X-0.696024X0.589958X-0.463087X0.279375X0.696024X-0.589958X0.463087X0*%
%ADD33RoundRect,0.050000X-0.628618X-1.088798X1.088798X-0.628618X0.628618X1.088798X-1.088798X0.628618X0*%
%ADD34RoundRect,0.050000X-1.592168X-0.919239X0.919239X-1.592168X1.592168X0.919239X-0.919239X1.592168X0*%
%ADD35RoundRect,0.050000X-0.919239X-1.592168X1.592168X-0.919239X0.919239X1.592168X-1.592168X0.919239X0*%
G04 APERTURE END LIST*
D10*
%TO.C,MCU1*%
X127777000Y33370000D02*
G75*
G03*
X127777000Y33370000I-125000J0D01*
G01*
X126253000Y20670000D02*
G75*
G03*
X126253000Y20670000I-125000J0D01*
G01*
X127777000Y35910000D02*
G75*
G03*
X127777000Y35910000I-125000J0D01*
G01*
X127777000Y18130000D02*
G75*
G03*
X127777000Y18130000I-125000J0D01*
G01*
X126253000Y40990000D02*
G75*
G03*
X126253000Y40990000I-125000J0D01*
G01*
X127777000Y46070000D02*
G75*
G03*
X127777000Y46070000I-125000J0D01*
G01*
X126253000Y35910000D02*
G75*
G03*
X126253000Y35910000I-125000J0D01*
G01*
X127777000Y20670000D02*
G75*
G03*
X127777000Y20670000I-125000J0D01*
G01*
X127777000Y28290000D02*
G75*
G03*
X127777000Y28290000I-125000J0D01*
G01*
X126253000Y23210000D02*
G75*
G03*
X126253000Y23210000I-125000J0D01*
G01*
X126253000Y46070000D02*
G75*
G03*
X126253000Y46070000I-125000J0D01*
G01*
X127777000Y38450000D02*
G75*
G03*
X127777000Y38450000I-125000J0D01*
G01*
X127777000Y25750000D02*
G75*
G03*
X127777000Y25750000I-125000J0D01*
G01*
X126253000Y30830000D02*
G75*
G03*
X126253000Y30830000I-125000J0D01*
G01*
X127777000Y30830000D02*
G75*
G03*
X127777000Y30830000I-125000J0D01*
G01*
X127777000Y40990000D02*
G75*
G03*
X127777000Y40990000I-125000J0D01*
G01*
X127777000Y43530000D02*
G75*
G03*
X127777000Y43530000I-125000J0D01*
G01*
X127777000Y23210000D02*
G75*
G03*
X127777000Y23210000I-125000J0D01*
G01*
X126253000Y25750000D02*
G75*
G03*
X126253000Y25750000I-125000J0D01*
G01*
X126253000Y18130000D02*
G75*
G03*
X126253000Y18130000I-125000J0D01*
G01*
X126253000Y43530000D02*
G75*
G03*
X126253000Y43530000I-125000J0D01*
G01*
X126253000Y38450000D02*
G75*
G03*
X126253000Y38450000I-125000J0D01*
G01*
X126253000Y28290000D02*
G75*
G03*
X126253000Y28290000I-125000J0D01*
G01*
X126253000Y33370000D02*
G75*
G03*
X126253000Y33370000I-125000J0D01*
G01*
G36*
X121810000Y20162000D02*
G01*
X120794000Y20162000D01*
X120794000Y21178000D01*
X121810000Y21178000D01*
X121810000Y20162000D01*
G37*
D11*
X121810000Y20162000D02*
X120794000Y20162000D01*
X120794000Y21178000D01*
X121810000Y21178000D01*
X121810000Y20162000D01*
G36*
X132986000Y22702000D02*
G01*
X131970000Y22702000D01*
X131970000Y23718000D01*
X132986000Y23718000D01*
X132986000Y22702000D01*
G37*
X132986000Y22702000D02*
X131970000Y22702000D01*
X131970000Y23718000D01*
X132986000Y23718000D01*
X132986000Y22702000D01*
G36*
X132986000Y20162000D02*
G01*
X131970000Y20162000D01*
X131970000Y21178000D01*
X132986000Y21178000D01*
X132986000Y20162000D01*
G37*
X132986000Y20162000D02*
X131970000Y20162000D01*
X131970000Y21178000D01*
X132986000Y21178000D01*
X132986000Y20162000D01*
G36*
X121810000Y37942000D02*
G01*
X120794000Y37942000D01*
X120794000Y38958000D01*
X121810000Y38958000D01*
X121810000Y37942000D01*
G37*
X121810000Y37942000D02*
X120794000Y37942000D01*
X120794000Y38958000D01*
X121810000Y38958000D01*
X121810000Y37942000D01*
G36*
X132986000Y43022000D02*
G01*
X131970000Y43022000D01*
X131970000Y44038000D01*
X132986000Y44038000D01*
X132986000Y43022000D01*
G37*
X132986000Y43022000D02*
X131970000Y43022000D01*
X131970000Y44038000D01*
X132986000Y44038000D01*
X132986000Y43022000D01*
G36*
X132986000Y27782000D02*
G01*
X131970000Y27782000D01*
X131970000Y28798000D01*
X132986000Y28798000D01*
X132986000Y27782000D01*
G37*
X132986000Y27782000D02*
X131970000Y27782000D01*
X131970000Y28798000D01*
X132986000Y28798000D01*
X132986000Y27782000D01*
G36*
X121810000Y43022000D02*
G01*
X120794000Y43022000D01*
X120794000Y44038000D01*
X121810000Y44038000D01*
X121810000Y43022000D01*
G37*
X121810000Y43022000D02*
X120794000Y43022000D01*
X120794000Y44038000D01*
X121810000Y44038000D01*
X121810000Y43022000D01*
G36*
X121810000Y35402000D02*
G01*
X120794000Y35402000D01*
X120794000Y36418000D01*
X121810000Y36418000D01*
X121810000Y35402000D01*
G37*
X121810000Y35402000D02*
X120794000Y35402000D01*
X120794000Y36418000D01*
X121810000Y36418000D01*
X121810000Y35402000D01*
G36*
X132986000Y17622000D02*
G01*
X131970000Y17622000D01*
X131970000Y18638000D01*
X132986000Y18638000D01*
X132986000Y17622000D01*
G37*
X132986000Y17622000D02*
X131970000Y17622000D01*
X131970000Y18638000D01*
X132986000Y18638000D01*
X132986000Y17622000D01*
G36*
X132986000Y45562000D02*
G01*
X131970000Y45562000D01*
X131970000Y46578000D01*
X132986000Y46578000D01*
X132986000Y45562000D01*
G37*
X132986000Y45562000D02*
X131970000Y45562000D01*
X131970000Y46578000D01*
X132986000Y46578000D01*
X132986000Y45562000D01*
G36*
X132986000Y37942000D02*
G01*
X131970000Y37942000D01*
X131970000Y38958000D01*
X132986000Y38958000D01*
X132986000Y37942000D01*
G37*
X132986000Y37942000D02*
X131970000Y37942000D01*
X131970000Y38958000D01*
X132986000Y38958000D01*
X132986000Y37942000D01*
G36*
X132986000Y35402000D02*
G01*
X131970000Y35402000D01*
X131970000Y36418000D01*
X132986000Y36418000D01*
X132986000Y35402000D01*
G37*
X132986000Y35402000D02*
X131970000Y35402000D01*
X131970000Y36418000D01*
X132986000Y36418000D01*
X132986000Y35402000D01*
G36*
X121810000Y17622000D02*
G01*
X120794000Y17622000D01*
X120794000Y18638000D01*
X121810000Y18638000D01*
X121810000Y17622000D01*
G37*
X121810000Y17622000D02*
X120794000Y17622000D01*
X120794000Y18638000D01*
X121810000Y18638000D01*
X121810000Y17622000D01*
G36*
X121810000Y45562000D02*
G01*
X120794000Y45562000D01*
X120794000Y46578000D01*
X121810000Y46578000D01*
X121810000Y45562000D01*
G37*
X121810000Y45562000D02*
X120794000Y45562000D01*
X120794000Y46578000D01*
X121810000Y46578000D01*
X121810000Y45562000D01*
G36*
X132986000Y25242000D02*
G01*
X131970000Y25242000D01*
X131970000Y26258000D01*
X132986000Y26258000D01*
X132986000Y25242000D01*
G37*
X132986000Y25242000D02*
X131970000Y25242000D01*
X131970000Y26258000D01*
X132986000Y26258000D01*
X132986000Y25242000D01*
G36*
X132986000Y40482000D02*
G01*
X131970000Y40482000D01*
X131970000Y41498000D01*
X132986000Y41498000D01*
X132986000Y40482000D01*
G37*
X132986000Y40482000D02*
X131970000Y40482000D01*
X131970000Y41498000D01*
X132986000Y41498000D01*
X132986000Y40482000D01*
G36*
X121810000Y30322000D02*
G01*
X120794000Y30322000D01*
X120794000Y31338000D01*
X121810000Y31338000D01*
X121810000Y30322000D01*
G37*
X121810000Y30322000D02*
X120794000Y30322000D01*
X120794000Y31338000D01*
X121810000Y31338000D01*
X121810000Y30322000D01*
G36*
X121810000Y40482000D02*
G01*
X120794000Y40482000D01*
X120794000Y41498000D01*
X121810000Y41498000D01*
X121810000Y40482000D01*
G37*
X121810000Y40482000D02*
X120794000Y40482000D01*
X120794000Y41498000D01*
X121810000Y41498000D01*
X121810000Y40482000D01*
G36*
X121810000Y25242000D02*
G01*
X120794000Y25242000D01*
X120794000Y26258000D01*
X121810000Y26258000D01*
X121810000Y25242000D01*
G37*
X121810000Y25242000D02*
X120794000Y25242000D01*
X120794000Y26258000D01*
X121810000Y26258000D01*
X121810000Y25242000D01*
G36*
X121810000Y27782000D02*
G01*
X120794000Y27782000D01*
X120794000Y28798000D01*
X121810000Y28798000D01*
X121810000Y27782000D01*
G37*
X121810000Y27782000D02*
X120794000Y27782000D01*
X120794000Y28798000D01*
X121810000Y28798000D01*
X121810000Y27782000D01*
G36*
X132986000Y32862000D02*
G01*
X131970000Y32862000D01*
X131970000Y33878000D01*
X132986000Y33878000D01*
X132986000Y32862000D01*
G37*
X132986000Y32862000D02*
X131970000Y32862000D01*
X131970000Y33878000D01*
X132986000Y33878000D01*
X132986000Y32862000D01*
G36*
X132986000Y30322000D02*
G01*
X131970000Y30322000D01*
X131970000Y31338000D01*
X132986000Y31338000D01*
X132986000Y30322000D01*
G37*
X132986000Y30322000D02*
X131970000Y30322000D01*
X131970000Y31338000D01*
X132986000Y31338000D01*
X132986000Y30322000D01*
G36*
X121810000Y22702000D02*
G01*
X120794000Y22702000D01*
X120794000Y23718000D01*
X121810000Y23718000D01*
X121810000Y22702000D01*
G37*
X121810000Y22702000D02*
X120794000Y22702000D01*
X120794000Y23718000D01*
X121810000Y23718000D01*
X121810000Y22702000D01*
G36*
X121810000Y32862000D02*
G01*
X120794000Y32862000D01*
X120794000Y33878000D01*
X121810000Y33878000D01*
X121810000Y32862000D01*
G37*
X121810000Y32862000D02*
X120794000Y32862000D01*
X120794000Y33878000D01*
X121810000Y33878000D01*
X121810000Y32862000D01*
%TD*%
D12*
%TO.C,PAD1*%
X123105000Y5400000D03*
X125645000Y5400000D03*
%TD*%
D13*
%TO.C,D10*%
X75810000Y11150000D03*
D14*
X70350000Y11150000D03*
X73650000Y11150000D03*
D15*
X68190000Y11150000D03*
%TD*%
D14*
%TO.C,D9*%
X52350000Y40900000D03*
D13*
X57810000Y40900000D03*
D15*
X50190000Y40900000D03*
D14*
X55650000Y40900000D03*
%TD*%
D13*
%TO.C,D7*%
X57810000Y6900000D03*
D14*
X52350000Y6900000D03*
X55650000Y6900000D03*
D15*
X50190000Y6900000D03*
%TD*%
D14*
%TO.C,D2*%
X16350000Y12000000D03*
D13*
X21810000Y12000000D03*
D14*
X19650000Y12000000D03*
D15*
X14190000Y12000000D03*
%TD*%
D14*
%TO.C,D16*%
X106350000Y3500000D03*
D13*
X111810000Y3500000D03*
D15*
X104190000Y3500000D03*
D14*
X109650000Y3500000D03*
%TD*%
D16*
%TO.C,S2*%
X23000000Y20750000D03*
D17*
X18000000Y17000000D03*
D16*
X18000000Y22950000D03*
D18*
X23500000Y17000000D03*
D16*
X18000000Y22950000D03*
X13000000Y20750000D03*
D18*
X12500000Y17000000D03*
D19*
X21275000Y22950000D03*
X9725000Y20750000D03*
%TD*%
D14*
%TO.C,D1*%
X16350000Y-5000000D03*
D13*
X21810000Y-5000000D03*
D14*
X19650000Y-5000000D03*
D15*
X14190000Y-5000000D03*
%TD*%
D13*
%TO.C,D6*%
X39810000Y29000000D03*
D14*
X34350000Y29000000D03*
D15*
X32190000Y29000000D03*
D14*
X37650000Y29000000D03*
%TD*%
D20*
%TO.C,S22*%
X130810000Y14075000D03*
X130810000Y7075000D03*
%TD*%
D13*
%TO.C,D13*%
X93810000Y6900000D03*
D14*
X88350000Y6900000D03*
D15*
X86190000Y6900000D03*
D14*
X91650000Y6900000D03*
%TD*%
%TO.C,D4*%
X34350000Y-5000000D03*
D13*
X39810000Y-5000000D03*
D14*
X37650000Y-5000000D03*
D15*
X32190000Y-5000000D03*
%TD*%
D21*
%TO.C,MCU1*%
X132732000Y23210000D03*
D22*
X121048000Y20670000D03*
D23*
X119270000Y46070000D03*
D22*
X121048000Y46070000D03*
D24*
X119270000Y43530000D03*
X119270000Y33370000D03*
X119270000Y23210000D03*
X134510000Y25750000D03*
D22*
X121048000Y30830000D03*
D24*
X119270000Y25750000D03*
X134510000Y20670000D03*
D22*
X121048000Y35910000D03*
D21*
X132732000Y33370000D03*
X132732000Y35910000D03*
D24*
X134510000Y28290000D03*
X134510000Y18130000D03*
X134510000Y40990000D03*
D21*
X132732000Y46070000D03*
D24*
X119270000Y20670000D03*
X134510000Y33370000D03*
X119270000Y35910000D03*
D21*
X132732000Y18130000D03*
D24*
X134510000Y23210000D03*
D21*
X132732000Y20670000D03*
D24*
X134510000Y30830000D03*
D21*
X132732000Y28290000D03*
D24*
X134510000Y46070000D03*
D22*
X121048000Y25750000D03*
D24*
X134510000Y43530000D03*
D22*
X121048000Y23210000D03*
D24*
X119270000Y46070000D03*
D22*
X121048000Y38450000D03*
D24*
X119270000Y40990000D03*
D21*
X132732000Y30830000D03*
D24*
X119270000Y18130000D03*
D22*
X121048000Y40990000D03*
D21*
X132732000Y40990000D03*
X132732000Y38450000D03*
D24*
X134510000Y35910000D03*
X119270000Y28290000D03*
D22*
X121048000Y33370000D03*
D21*
X132732000Y43530000D03*
D24*
X119270000Y38450000D03*
D21*
X132732000Y25750000D03*
D24*
X134510000Y38450000D03*
X119270000Y30830000D03*
D22*
X121048000Y43530000D03*
X121048000Y28290000D03*
X121048000Y18130000D03*
D25*
X131716000Y46070000D03*
X131716000Y43530000D03*
X131716000Y40990000D03*
X131716000Y38450000D03*
X131716000Y35910000D03*
X131716000Y33370000D03*
X131716000Y30830000D03*
X131716000Y28290000D03*
X131716000Y25750000D03*
X131716000Y23210000D03*
X131716000Y20670000D03*
X131716000Y18130000D03*
D26*
X122064000Y18130000D03*
X122064000Y20670000D03*
X122064000Y23210000D03*
X122064000Y25750000D03*
X122064000Y28290000D03*
X122064000Y30830000D03*
X122064000Y33370000D03*
X122064000Y35910000D03*
X122064000Y38450000D03*
X122064000Y40990000D03*
X122064000Y43530000D03*
X122064000Y46070000D03*
%TD*%
D16*
%TO.C,S1*%
X23000000Y3750000D03*
X18000000Y5950000D03*
D18*
X23500000Y0D03*
D16*
X13000000Y3750000D03*
D18*
X12500000Y0D03*
D17*
X18000000Y0D03*
D16*
X18000000Y5950000D03*
D19*
X21275000Y5950000D03*
X9725000Y3750000D03*
%TD*%
D16*
%TO.C,S5*%
X36000000Y22950000D03*
X41000000Y20750000D03*
X31000000Y20750000D03*
D18*
X30500000Y17000000D03*
X41500000Y17000000D03*
D17*
X36000000Y17000000D03*
D16*
X36000000Y22950000D03*
D19*
X39275000Y22950000D03*
X27725000Y20750000D03*
%TD*%
D16*
%TO.C,S15*%
X90000000Y51850000D03*
D17*
X90000000Y45900000D03*
D16*
X90000000Y51850000D03*
D18*
X95500000Y45900000D03*
D16*
X85000000Y49650000D03*
X95000000Y49650000D03*
D18*
X84500000Y45900000D03*
D19*
X93275000Y51850000D03*
X81725000Y49650000D03*
%TD*%
D14*
%TO.C,D14*%
X88350000Y23900000D03*
D13*
X93810000Y23900000D03*
D15*
X86190000Y23900000D03*
D14*
X91650000Y23900000D03*
%TD*%
D18*
%TO.C,S6*%
X41500000Y34000000D03*
D17*
X36000000Y34000000D03*
D18*
X30500000Y34000000D03*
D16*
X41000000Y37750000D03*
X31000000Y37750000D03*
X36000000Y39950000D03*
X36000000Y39950000D03*
D19*
X39275000Y39950000D03*
X27725000Y37750000D03*
%TD*%
D16*
%TO.C,S9*%
X54000000Y51850000D03*
D17*
X54000000Y45900000D03*
D16*
X49000000Y49650000D03*
D18*
X59500000Y45900000D03*
D16*
X54000000Y51850000D03*
X59000000Y49650000D03*
D18*
X48500000Y45900000D03*
D19*
X57275000Y51850000D03*
X45725000Y49650000D03*
%TD*%
D16*
%TO.C,S8*%
X49000000Y32650000D03*
D18*
X59500000Y28900000D03*
D16*
X54000000Y34850000D03*
D18*
X48500000Y28900000D03*
D16*
X59000000Y32650000D03*
D17*
X54000000Y28900000D03*
D16*
X54000000Y34850000D03*
D19*
X57275000Y34850000D03*
X45725000Y32650000D03*
%TD*%
D14*
%TO.C,D18*%
X106350000Y37500000D03*
D13*
X111810000Y37500000D03*
D14*
X109650000Y37500000D03*
D15*
X104190000Y37500000D03*
%TD*%
D16*
%TO.C,S4*%
X36000000Y5950000D03*
D18*
X30500000Y0D03*
D16*
X31000000Y3750000D03*
D18*
X41500000Y0D03*
D16*
X41000000Y3750000D03*
X36000000Y5950000D03*
D17*
X36000000Y0D03*
D19*
X39275000Y5950000D03*
X27725000Y3750000D03*
%TD*%
D13*
%TO.C,D8*%
X57810000Y23900000D03*
D14*
X52350000Y23900000D03*
D15*
X50190000Y23900000D03*
D14*
X55650000Y23900000D03*
%TD*%
D16*
%TO.C,S18*%
X108000000Y48450000D03*
X108000000Y48450000D03*
D18*
X102500000Y42500000D03*
X113500000Y42500000D03*
D16*
X103000000Y46250000D03*
D17*
X108000000Y42500000D03*
D16*
X113000000Y46250000D03*
D19*
X111275000Y48450000D03*
X99725000Y46250000D03*
%TD*%
D16*
%TO.C,S13*%
X90000000Y17850000D03*
D18*
X84500000Y11900000D03*
X95500000Y11900000D03*
D16*
X85000000Y15650000D03*
X90000000Y17850000D03*
X95000000Y15650000D03*
D17*
X90000000Y11900000D03*
D19*
X93275000Y17850000D03*
X81725000Y15650000D03*
%TD*%
D13*
%TO.C,D11*%
X75810000Y28150000D03*
D14*
X70350000Y28150000D03*
D15*
X68190000Y28150000D03*
D14*
X73650000Y28150000D03*
%TD*%
D16*
%TO.C,S12*%
X72000000Y56100000D03*
X67000000Y53900000D03*
D17*
X72000000Y50150000D03*
D18*
X77500000Y50150000D03*
X66500000Y50150000D03*
D16*
X77000000Y53900000D03*
X72000000Y56100000D03*
D19*
X75275000Y56100000D03*
X63725000Y53900000D03*
%TD*%
D14*
%TO.C,D3*%
X16350000Y29000000D03*
D13*
X21810000Y29000000D03*
D15*
X14190000Y29000000D03*
D14*
X19650000Y29000000D03*
%TD*%
D13*
%TO.C,D5*%
X39810000Y12000000D03*
D14*
X34350000Y12000000D03*
X37650000Y12000000D03*
D15*
X32190000Y12000000D03*
%TD*%
D27*
%TO.C,T1*%
X130540000Y51105000D03*
D28*
X125390000Y50005000D03*
X128390000Y50005000D03*
D27*
X123240000Y48895000D03*
D28*
X125390000Y50005000D03*
X128390000Y50005000D03*
D27*
X123240000Y51105000D03*
X130540000Y48895000D03*
D29*
X129140000Y48245000D03*
X126140000Y48245000D03*
X124640000Y48245000D03*
%TD*%
D16*
%TO.C,S11*%
X72000000Y39100000D03*
X77000000Y36900000D03*
D18*
X77500000Y33150000D03*
X66500000Y33150000D03*
D17*
X72000000Y33150000D03*
D16*
X67000000Y36900000D03*
X72000000Y39100000D03*
D19*
X75275000Y39100000D03*
X63725000Y36900000D03*
%TD*%
D18*
%TO.C,S10*%
X77500000Y16150000D03*
D16*
X72000000Y22100000D03*
X67000000Y19900000D03*
D18*
X66500000Y16150000D03*
D16*
X72000000Y22100000D03*
X77000000Y19900000D03*
D17*
X72000000Y16150000D03*
D19*
X75275000Y22100000D03*
X63725000Y19900000D03*
%TD*%
D13*
%TO.C,D17*%
X111810000Y20500000D03*
D14*
X106350000Y20500000D03*
X109650000Y20500000D03*
D15*
X104190000Y20500000D03*
%TD*%
D13*
%TO.C,D20*%
X111796700Y-13541300D03*
D14*
X106336700Y-13541300D03*
D15*
X104176700Y-13541300D03*
D14*
X109636700Y-13541300D03*
%TD*%
D30*
%TO.C,D21*%
X124992122Y-15562849D03*
D13*
X130266077Y-16976001D03*
D31*
X122905723Y-15003799D03*
D30*
X128179678Y-16416951D03*
%TD*%
D16*
%TO.C,S7*%
X59000000Y15650000D03*
X49000000Y15650000D03*
X54000000Y17850000D03*
D18*
X48500000Y11900000D03*
D16*
X54000000Y17850000D03*
D17*
X54000000Y11900000D03*
D18*
X59500000Y11900000D03*
D19*
X57275000Y17850000D03*
X45725000Y15650000D03*
%TD*%
D18*
%TO.C,S17*%
X102500000Y25500000D03*
D16*
X103000000Y29250000D03*
D18*
X113500000Y25500000D03*
D17*
X108000000Y25500000D03*
D16*
X108000000Y31450000D03*
X108000000Y31450000D03*
X113000000Y29250000D03*
D19*
X111275000Y31450000D03*
X99725000Y29250000D03*
%TD*%
D13*
%TO.C,D12*%
X75810000Y45150000D03*
D14*
X70350000Y45150000D03*
D15*
X68190000Y45150000D03*
D14*
X73650000Y45150000D03*
%TD*%
%TO.C,D15*%
X88350000Y40900000D03*
D13*
X93810000Y40900000D03*
D14*
X91650000Y40900000D03*
D15*
X86190000Y40900000D03*
%TD*%
D16*
%TO.C,S20*%
X107986700Y-2591300D03*
X107986700Y-2591300D03*
D18*
X102486700Y-8541300D03*
D16*
X112986700Y-4791300D03*
D18*
X113486700Y-8541300D03*
D16*
X102986700Y-4791300D03*
D17*
X107986700Y-8541300D03*
D19*
X111261700Y-2591300D03*
X99711700Y-4791300D03*
%TD*%
D32*
%TO.C,D19*%
X87793722Y-16416951D03*
D13*
X93067677Y-15003799D03*
D33*
X85707323Y-16976001D03*
D32*
X90981278Y-15562849D03*
%TD*%
D16*
%TO.C,S21*%
X129419973Y-5413041D03*
D18*
X122567408Y-9736795D03*
D16*
X133680201Y-8832173D03*
D17*
X127880000Y-11160300D03*
D16*
X124020942Y-6243983D03*
D18*
X133192592Y-12583805D03*
D16*
X129419973Y-5413041D03*
D34*
X132583380Y-6260674D03*
X120857535Y-5396351D03*
%TD*%
D16*
%TO.C,S3*%
X13000000Y37750000D03*
X23000000Y37750000D03*
D18*
X12500000Y34000000D03*
D16*
X18000000Y39950000D03*
D18*
X23500000Y34000000D03*
D17*
X18000000Y34000000D03*
D16*
X18000000Y39950000D03*
D19*
X21275000Y39950000D03*
X9725000Y37750000D03*
%TD*%
D16*
%TO.C,S19*%
X86553427Y-5413041D03*
D18*
X93405992Y-9736795D03*
D17*
X88093400Y-11160300D03*
D16*
X91952458Y-6243983D03*
X86553427Y-5413041D03*
X82293199Y-8832173D03*
D18*
X82780808Y-12583805D03*
D35*
X89716834Y-4565409D03*
X79129792Y-9679806D03*
%TD*%
D16*
%TO.C,S14*%
X90000000Y34850000D03*
X90000000Y34850000D03*
D17*
X90000000Y28900000D03*
D16*
X85000000Y32650000D03*
X95000000Y32650000D03*
D18*
X84500000Y28900000D03*
X95500000Y28900000D03*
D19*
X93275000Y34850000D03*
X81725000Y32650000D03*
%TD*%
D16*
%TO.C,S16*%
X108000000Y14450000D03*
X108000000Y14450000D03*
X113000000Y12250000D03*
D18*
X102500000Y8500000D03*
D16*
X103000000Y12250000D03*
D18*
X113500000Y8500000D03*
D17*
X108000000Y8500000D03*
D19*
X111275000Y14450000D03*
X99725000Y12250000D03*
%TD*%
M02*
