%TF.GenerationSoftware,KiCad,Pcbnew,(6.0.4)*%
%TF.CreationDate,2022-07-03T12:25:36-07:00*%
%TF.ProjectId,danns87_corne_custom,64616e6e-7338-4375-9f63-6f726e655f63,v1.0.0*%
%TF.SameCoordinates,Original*%
%TF.FileFunction,Profile,NP*%
%FSLAX46Y46*%
G04 Gerber Fmt 4.6, Leading zero omitted, Abs format (unit mm)*
G04 Created by KiCad (PCBNEW (6.0.4)) date 2022-07-03 12:25:36*
%MOMM*%
%LPD*%
G01*
G04 APERTURE LIST*
%TA.AperFunction,Profile*%
%ADD10C,0.150000*%
%TD*%
G04 APERTURE END LIST*
D10*
X99500000Y54000000D02*
X99500000Y53900000D01*
X47500000Y2900000D02*
X61500000Y2900000D01*
X99315796Y-17541254D02*
G75*
G03*
X98798158Y-17609405I4J-1999946D01*
G01*
X42000000Y43000000D02*
G75*
G03*
X44000000Y45000000I0J2000000D01*
G01*
X60500000Y54900000D02*
G75*
G03*
X62500000Y56900000I0J2000000D01*
G01*
X135727484Y-20509930D02*
X139350951Y-6986969D01*
X62500000Y56900000D02*
X62500000Y58050000D01*
X85909115Y-2428035D02*
G75*
G03*
X86890967Y-1819646I-517615J1931835D01*
G01*
X43500000Y-9000000D02*
G75*
G03*
X45500000Y-7000000I0J2000000D01*
G01*
X45500000Y-7000000D02*
X45500000Y900000D01*
X117175170Y-17609413D02*
G75*
G03*
X116657534Y-17541258I-517670J-1931887D01*
G01*
X128913700Y3400000D02*
G75*
G03*
X127412876Y78060I0J-2000000D01*
G01*
X82500000Y2900000D02*
X86623764Y2900000D01*
X134400000Y3400000D02*
G75*
G03*
X136400000Y5400000I0J2000000D01*
G01*
X101500000Y51900000D02*
X134400000Y51900000D01*
X81500000Y58000000D02*
G75*
G03*
X83500000Y56000000I2000000J0D01*
G01*
X128913700Y3400000D02*
X134400000Y3400000D01*
X64500000Y60050000D02*
G75*
G03*
X62500000Y58050000I0J-2000000D01*
G01*
X47500000Y2900000D02*
G75*
G03*
X45500000Y900000I0J-2000000D01*
G01*
X61500000Y2900000D02*
G75*
G03*
X63500000Y4900000I0J2000000D01*
G01*
X80500000Y4900000D02*
G75*
G03*
X82500000Y2900000I2000000J0D01*
G01*
X81500000Y58050000D02*
X81500000Y58000000D01*
X65500000Y7150000D02*
X78500000Y7150000D01*
X44000000Y45000000D02*
X44000000Y52900000D01*
X99500000Y54000000D02*
G75*
G03*
X97500000Y56000000I-2000000J0D01*
G01*
X139350915Y-6986959D02*
G75*
G03*
X137936737Y-4537479I-1931815J517659D01*
G01*
X10000000Y43000000D02*
G75*
G03*
X8000000Y41000000I0J-2000000D01*
G01*
X83500000Y56000000D02*
X97500000Y56000000D01*
X78036593Y-4537479D02*
X85909117Y-2428042D01*
X80500000Y4900000D02*
X80500000Y5150000D01*
X64500000Y60050000D02*
X79500000Y60050000D01*
X81500000Y58050000D02*
G75*
G03*
X79500000Y60050000I-2000000J0D01*
G01*
X88123272Y-423474D02*
G75*
G03*
X86623764Y2900000I-1499472J1323474D01*
G01*
X10000000Y-9000000D02*
X43500000Y-9000000D01*
X133277983Y-21924188D02*
G75*
G03*
X135727485Y-20509930I517617J1931888D01*
G01*
X46000000Y54900000D02*
X60500000Y54900000D01*
X99315796Y-17541257D02*
X116657534Y-17541257D01*
X99500000Y53900000D02*
G75*
G03*
X101500000Y51900000I2000000J0D01*
G01*
X117175172Y-17609405D02*
X133277994Y-21924144D01*
X8000000Y-7000000D02*
G75*
G03*
X10000000Y-9000000I2000000J0D01*
G01*
X63500000Y5150000D02*
X63500000Y4900000D01*
X129083685Y-1818843D02*
X127412875Y78060D01*
X82695335Y-21924144D02*
X98798158Y-17609405D01*
X80500000Y5150000D02*
G75*
G03*
X78500000Y7150000I-2000000J0D01*
G01*
X88123252Y-423456D02*
X86890967Y-1819647D01*
X76622379Y-6986969D02*
X80245846Y-20509930D01*
X129083681Y-1818846D02*
G75*
G03*
X130066871Y-2428754I1500819J1321946D01*
G01*
X65500000Y7150000D02*
G75*
G03*
X63500000Y5150000I0J-2000000D01*
G01*
X8000000Y-7000000D02*
X8000000Y41000000D01*
X80245855Y-20509928D02*
G75*
G03*
X82695335Y-21924143I1931845J517628D01*
G01*
X10000000Y43000000D02*
X42000000Y43000000D01*
X130066871Y-2428755D02*
X137936737Y-4537479D01*
X46000000Y54900000D02*
G75*
G03*
X44000000Y52900000I0J-2000000D01*
G01*
X78036589Y-4537464D02*
G75*
G03*
X76622379Y-6986969I517611J-1931836D01*
G01*
X136400000Y5400000D02*
X136400000Y49900000D01*
X136400000Y49900000D02*
G75*
G03*
X134400000Y51900000I-2000000J0D01*
G01*
M02*
