0
SECTION
2
HEADER
9
$INSUNITS
70
4
0
ENDSEC
0
SECTION
2
TABLES
0
TABLE
2
LTYPE
0
LTYPE
72
65
70
64
2
CONTINUOUS
3
______
73
0
40
0
0
ENDTAB
0
TABLE
2
LAYER
0
ENDTAB
0
ENDSEC
0
SECTION
2
ENTITIES
0
LINE
8
0
10
9.25
20
-8.25
11
26.75
21
-8.25
0
LINE
8
0
10
26.75
20
-8.25
11
26.75
21
8.25
0
LINE
8
0
10
26.75
20
8.25
11
9.25
21
8.25
0
LINE
8
0
10
9.25
20
8.25
11
9.25
21
-8.25
0
LINE
8
0
10
9.25
20
8.75
11
26.75
21
8.75
0
LINE
8
0
10
26.75
20
8.75
11
26.75
21
25.25
0
LINE
8
0
10
26.75
20
25.25
11
9.25
21
25.25
0
LINE
8
0
10
9.25
20
25.25
11
9.25
21
8.75
0
LINE
8
0
10
9.25
20
25.75
11
26.75
21
25.75
0
LINE
8
0
10
26.75
20
25.75
11
26.75
21
42.25
0
LINE
8
0
10
26.75
20
42.25
11
9.25
21
42.25
0
LINE
8
0
10
9.25
20
42.25
11
9.25
21
25.75
0
LINE
8
0
10
27.25
20
-8.25
11
44.75
21
-8.25
0
LINE
8
0
10
44.75
20
-8.25
11
44.75
21
8.25
0
LINE
8
0
10
44.75
20
8.25
11
27.25
21
8.25
0
LINE
8
0
10
27.25
20
8.25
11
27.25
21
-8.25
0
LINE
8
0
10
27.25
20
8.75
11
44.75
21
8.75
0
LINE
8
0
10
44.75
20
8.75
11
44.75
21
25.25
0
LINE
8
0
10
44.75
20
25.25
11
27.25
21
25.25
0
LINE
8
0
10
27.25
20
25.25
11
27.25
21
8.75
0
LINE
8
0
10
27.25
20
25.75
11
44.75
21
25.75
0
LINE
8
0
10
44.75
20
25.75
11
44.75
21
42.25
0
LINE
8
0
10
44.75
20
42.25
11
27.25
21
42.25
0
LINE
8
0
10
27.25
20
42.25
11
27.25
21
25.75
0
LINE
8
0
10
45.25
20
3.65
11
62.75
21
3.65
0
LINE
8
0
10
62.75
20
3.65
11
62.75
21
20.15
0
LINE
8
0
10
62.75
20
20.15
11
45.25
21
20.15
0
LINE
8
0
10
45.25
20
20.15
11
45.25
21
3.65
0
LINE
8
0
10
45.25
20
20.65
11
62.75
21
20.65
0
LINE
8
0
10
62.75
20
20.65
11
62.75
21
37.15
0
LINE
8
0
10
62.75
20
37.15
11
45.25
21
37.15
0
LINE
8
0
10
45.25
20
37.15
11
45.25
21
20.65
0
LINE
8
0
10
45.25
20
37.65
11
62.75
21
37.65
0
LINE
8
0
10
62.75
20
37.65
11
62.75
21
54.15
0
LINE
8
0
10
62.75
20
54.15
11
45.25
21
54.15
0
LINE
8
0
10
45.25
20
54.15
11
45.25
21
37.65
0
LINE
8
0
10
63.25
20
7.9
11
80.75
21
7.9
0
LINE
8
0
10
80.75
20
7.9
11
80.75
21
24.4
0
LINE
8
0
10
80.75
20
24.4
11
63.25
21
24.4
0
LINE
8
0
10
63.25
20
24.4
11
63.25
21
7.9
0
LINE
8
0
10
63.25
20
24.9
11
80.75
21
24.9
0
LINE
8
0
10
80.75
20
24.9
11
80.75
21
41.4
0
LINE
8
0
10
80.75
20
41.4
11
63.25
21
41.4
0
LINE
8
0
10
63.25
20
41.4
11
63.25
21
24.9
0
LINE
8
0
10
63.25
20
41.9
11
80.75
21
41.9
0
LINE
8
0
10
80.75
20
41.9
11
80.75
21
58.4
0
LINE
8
0
10
80.75
20
58.4
11
63.25
21
58.4
0
LINE
8
0
10
63.25
20
58.4
11
63.25
21
41.9
0
LINE
8
0
10
81.25
20
3.65
11
98.75
21
3.65
0
LINE
8
0
10
98.75
20
3.65
11
98.75
21
20.15
0
LINE
8
0
10
98.75
20
20.15
11
81.25
21
20.15
0
LINE
8
0
10
81.25
20
20.15
11
81.25
21
3.65
0
LINE
8
0
10
81.25
20
20.65
11
98.75
21
20.65
0
LINE
8
0
10
98.75
20
20.65
11
98.75
21
37.15
0
LINE
8
0
10
98.75
20
37.15
11
81.25
21
37.15
0
LINE
8
0
10
81.25
20
37.15
11
81.25
21
20.65
0
LINE
8
0
10
81.25
20
37.65
11
98.75
21
37.65
0
LINE
8
0
10
98.75
20
37.65
11
98.75
21
54.15
0
LINE
8
0
10
98.75
20
54.15
11
81.25
21
54.15
0
LINE
8
0
10
81.25
20
54.15
11
81.25
21
37.65
0
LINE
8
0
10
99.25
20
0.25
11
116.75
21
0.25
0
LINE
8
0
10
116.75
20
0.25
11
116.75
21
16.75
0
LINE
8
0
10
116.75
20
16.75
11
99.25
21
16.75
0
LINE
8
0
10
99.25
20
16.75
11
99.25
21
0.25
0
LINE
8
0
10
99.25
20
17.25
11
116.75
21
17.25
0
LINE
8
0
10
116.75
20
17.25
11
116.75
21
33.75
0
LINE
8
0
10
116.75
20
33.75
11
99.25
21
33.75
0
LINE
8
0
10
99.25
20
33.75
11
99.25
21
17.25
0
LINE
8
0
10
99.25
20
34.25
11
116.75
21
34.25
0
LINE
8
0
10
116.75
20
34.25
11
116.75
21
50.75
0
LINE
8
0
10
116.75
20
50.75
11
99.25
21
50.75
0
LINE
8
0
10
99.25
20
50.75
11
99.25
21
34.25
0
LINE
8
0
10
81.7767767
20
-21.3938138
11
98.6804787
21
-16.8644805
0
LINE
8
0
10
98.6804787
20
-16.8644805
11
94.4099645
21
-0.9267044
0
LINE
8
0
10
94.4099645
20
-0.9267044
11
77.5062625
21
-5.4560377
0
LINE
8
0
10
77.5062625
20
-5.4560377
11
81.7767767
21
-21.3938138
0
LINE
8
0
10
99.2366648
20
-16.7912572
11
116.7366648
21
-16.7912572
0
LINE
8
0
10
116.7366648
20
-16.7912572
11
116.7366648
21
-0.2912572
0
LINE
8
0
10
116.7366648
20
-0.2912572
11
99.2366648
21
-0.2912572
0
LINE
8
0
10
99.2366648
20
-0.2912572
11
99.2366648
21
-16.7912572
0
LINE
8
0
10
117.2928511
20
-16.8644804
11
134.1965531
21
-21.3938137
0
LINE
8
0
10
134.1965531
20
-21.3938137
11
138.4670673
21
-5.4560376
0
LINE
8
0
10
138.4670673
20
-5.4560376
11
121.5633653
21
-0.9267043
0
LINE
8
0
10
121.5633653
20
-0.9267043
11
117.2928511
21
-16.8644804
0
ENDSEC
0
EOF