0
SECTION
2
HEADER
9
$INSUNITS
70
4
0
ENDSEC
0
SECTION
2
TABLES
0
TABLE
2
LTYPE
0
LTYPE
72
65
70
64
2
CONTINUOUS
3
______
73
0
40
0
0
ENDTAB
0
TABLE
2
LAYER
0
ENDTAB
0
ENDSEC
0
SECTION
2
ENTITIES
0
LINE
8
0
10
8.5
20
-9
11
45.5
21
-9
0
LINE
8
0
10
8.5
20
-9
11
8.5
21
43
0
LINE
8
0
10
8.5
20
43
11
44.5
21
43
0
LINE
8
0
10
45.5
20
-9
11
45.5
21
2.9
0
LINE
8
0
10
63.5
20
7.15
11
63.5
21
2.9
0
LINE
8
0
10
45.5
20
2.9
11
63.5
21
2.9
0
LINE
8
0
10
44.5
20
54.9
11
62.5
21
54.9
0
LINE
8
0
10
44.5
20
43
11
44.5
21
54.9
0
LINE
8
0
10
63.5
20
7.15
11
80.5
21
7.15
0
LINE
8
0
10
62.5
20
59.45
11
81.5
21
59.45
0
LINE
8
0
10
81.5
20
59.45
11
81.5
21
55.4
0
LINE
8
0
10
62.5
20
54.9
11
62.5
21
59.45
0
LINE
8
0
10
80.5
20
2.9
11
98.5
21
2.9
0
LINE
8
0
10
80.5
20
2.9
11
80.5
21
7.15
0
LINE
8
0
10
81.5
20
55.4
11
99.5
21
55.4
0
LINE
8
0
10
99.5
20
55.4
11
99.5
21
51.3
0
LINE
8
0
10
117.5
20
-0.5
11
117.5
21
51.3
0
LINE
8
0
10
117.5
20
-0.5
11
117.4866648
21
-0.5
0
LINE
8
0
10
98.5
20
0.4587428
11
98.5
21
2.9
0
LINE
8
0
10
99.5
20
51.3
11
117.5
21
51.3
0
LINE
8
0
10
76.5877038
20
-4.9257076
11
94.9402945
21
-0.0081457
0
LINE
8
0
10
94.9402945
20
-0.0081457
11
98.4866648
21
-13.2433797
0
LINE
8
0
10
81.2464467
20
-22.3123725
11
99.0524912
21
-17.5412572
0
LINE
8
0
10
76.5877038
20
-4.9257076
11
81.2464467
21
-22.3123725
0
LINE
8
0
10
117.4866648
20
-13.2433804
11
117.4866648
21
-0.5
0
LINE
8
0
10
99.0524912
20
-17.5412572
11
116.9208389
21
-17.5412572
0
LINE
8
0
10
98.4866648
20
-13.2433797
11
98.4866648
21
0.4587428
0
LINE
8
0
10
98.4866648
20
0.4587428
11
98.5
21
0.4587428
0
LINE
8
0
10
121.0330353
20
-0.0081456
11
139.385626
21
-4.9257075
0
LINE
8
0
10
134.7268831
20
-22.3123724
11
139.385626
21
-4.9257075
0
LINE
8
0
10
116.9208389
20
-17.5412572
11
134.7268831
21
-22.3123724
0
LINE
8
0
10
117.4866648
20
-13.2433804
11
121.0330353
21
-0.0081456
0
ENDSEC
0
EOF