0
SECTION
2
HEADER
9
$INSUNITS
70
4
0
ENDSEC
0
SECTION
2
TABLES
0
TABLE
2
LTYPE
0
LTYPE
72
65
70
64
2
CONTINUOUS
3
______
73
0
40
0
0
ENDTAB
0
TABLE
2
LAYER
0
ENDTAB
0
ENDSEC
0
SECTION
2
ENTITIES
0
LINE
8
0
10
10
20
-9
11
43.5
21
-9
0
LINE
8
0
10
8
20
-7
11
8
21
41
0
LINE
8
0
10
10
20
43
11
42
21
43
0
LINE
8
0
10
45.5
20
-7
11
45.5
21
0.9
0
LINE
8
0
10
63.5
20
5.15
11
63.5
21
4.9
0
LINE
8
0
10
47.5
20
2.9
11
61.5
21
2.9
0
LINE
8
0
10
46
20
54.9
11
60.5
21
54.9
0
LINE
8
0
10
44
20
45
11
44
21
52.9
0
LINE
8
0
10
65.5
20
7.15
11
78.5
21
7.15
0
LINE
8
0
10
64.5
20
60.05
11
79.5
21
60.05
0
LINE
8
0
10
81.5
20
58.05
11
81.5
21
58
0
LINE
8
0
10
62.5
20
56.9
11
62.5
21
58.05
0
LINE
8
0
10
82.5
20
2.9
11
86.6237644
21
2.9
0
LINE
8
0
10
80.5
20
4.9
11
80.5
21
5.15
0
LINE
8
0
10
83.5
20
56
11
97.5
21
56
0
LINE
8
0
10
99.5
20
54
11
99.5
21
53.9
0
LINE
8
0
10
101.5
20
51.9
11
134.4
21
51.9
0
LINE
8
0
10
78.0365927
20
-4.537479
11
85.9091171
21
-2.4280424
0
LINE
8
0
10
82.6953353
20
-21.9241439
11
98.7981584
21
-17.6094055
0
LINE
8
0
10
76.622379
20
-6.9869687
11
80.2458456
21
-20.5099302
0
LINE
8
0
10
99.3157964
20
-17.5412572
11
116.6575338
21
-17.5412572
0
LINE
8
0
10
130.0668714
20
-2.4287547
11
137.9367371
21
-4.5374789
0
LINE
8
0
10
135.7274842
20
-20.5099301
11
139.3509508
21
-6.9869686
0
LINE
8
0
10
117.1751718
20
-17.6094055
11
133.2779945
21
-21.9241438
0
LINE
8
0
10
88.1232524
20
-0.423456
11
86.8909671
21
-1.8196467
0
LINE
8
0
10
129.083685
20
-1.8188432
11
127.4128752
21
0.0780598
0
LINE
8
0
10
136.4
20
5.4
11
136.4
21
49.9
0
LINE
8
0
10
128.9136996
20
3.4
11
134.4
21
3.4
0
ARC
8
0
10
43.5
20
-7
40
2
50
270
51
0
0
ARC
8
0
10
47.5
20
0.9
40
2
50
90
51
180
0
ARC
8
0
10
61.5
20
4.9
40
2
50
270
51
0
0
ARC
8
0
10
65.5
20
5.15
40
2
50
90
51
180
0
ARC
8
0
10
78.5
20
5.15
40
2
50
0
51
90
0
ARC
8
0
10
82.5
20
4.9
40
2
50
180
51
270
0
ARC
8
0
10
86.6237644
20
0.9
40
2
50
318.5682069
51
90
0
ARC
8
0
10
85.3914791
20
-0.4961907
40
2
50
284.9999979
51
318.5682069
0
ARC
8
0
10
78.5542307
20
-6.4693307
40
2
50
104.9999979
51
194.9999979
0
ARC
8
0
10
82.1776973
20
-19.9922922
40
2
50
194.9999979
51
284.9999979
0
ARC
8
0
10
99.3157964
20
-19.5412572
40
2
50
90
51
104.9999979
0
ARC
8
0
10
116.6575338
20
-19.5412572
40
2
50
75.0000021
51
90
0
ARC
8
0
10
133.7956325
20
-19.9922921
40
2
50
255.0000021
51
345.0000021
0
ARC
8
0
10
137.4190991
20
-6.4693306
40
2
50
345.0000021
51
75.0000021
0
ARC
8
0
10
130.5845095
20
-0.496903
40
2
50
221.3739016
51
255.0000021
0
ARC
8
0
10
128.9136996
20
1.4
40
2
50
90
51
221.3739016
0
ARC
8
0
10
134.4
20
5.4
40
2
50
270
51
0
0
ARC
8
0
10
134.4
20
49.9
40
2
50
0
51
90
0
ARC
8
0
10
101.5
20
53.9
40
2
50
180
51
270
0
ARC
8
0
10
97.5
20
54
40
2
50
0
51
90
0
ARC
8
0
10
83.5
20
58
40
2
50
180
51
270
0
ARC
8
0
10
79.5
20
58.05
40
2
50
0
51
90
0
ARC
8
0
10
64.5
20
58.05
40
2
50
90
51
180
0
ARC
8
0
10
60.5
20
56.9
40
2
50
270
51
0
0
ARC
8
0
10
46
20
52.9
40
2
50
90
51
180
0
ARC
8
0
10
42
20
45
40
2
50
270
51
0
0
ARC
8
0
10
10
20
41
40
2
50
90
51
180
0
ARC
8
0
10
10
20
-7
40
2
50
180
51
270
0
ENDSEC
0
EOF