0
SECTION
2
HEADER
9
$INSUNITS
70
4
0
ENDSEC
0
SECTION
2
TABLES
0
TABLE
2
LTYPE
0
LTYPE
72
65
70
64
2
CONTINUOUS
3
______
73
0
40
0
0
ENDTAB
0
TABLE
2
LAYER
0
ENDTAB
0
ENDSEC
0
SECTION
2
ENTITIES
0
LINE
8
0
10
10
20
-9
11
43.5
21
-9
0
LINE
8
0
10
8
20
-7
11
8
21
41
0
LINE
8
0
10
10
20
43
11
42
21
43
0
LINE
8
0
10
45.5
20
-7
11
45.5
21
0.9
0
LINE
8
0
10
63.5
20
5.15
11
63.5
21
4.9
0
LINE
8
0
10
47.5
20
2.9
11
61.5
21
2.9
0
LINE
8
0
10
46
20
54.9
11
60.5
21
54.9
0
LINE
8
0
10
44
20
45
11
44
21
52.9
0
LINE
8
0
10
65.5
20
7.15
11
78.5
21
7.15
0
LINE
8
0
10
64.5
20
60.05
11
79.5
21
60.05
0
LINE
8
0
10
81.5
20
58.05
11
81.5
21
58
0
LINE
8
0
10
62.5
20
56.9
11
62.5
21
58.05
0
LINE
8
0
10
82.5
20
2.9
11
86.6237644
21
2.9
0
LINE
8
0
10
80.5
20
4.9
11
80.5
21
5.15
0
LINE
8
0
10
83.5
20
56
11
97.5
21
56
0
LINE
8
0
10
99.5
20
54
11
99.5
21
53.9
0
LINE
8
0
10
101.5
20
51.9
11
121.51
21
51.9
0
LINE
8
0
10
132.27
20
51.9
11
134.4
21
51.9
0
LINE
8
0
10
78.0365927
20
-4.537479
11
85.9091171
21
-2.4280424
0
LINE
8
0
10
82.6953353
20
-21.9241439
11
98.7981584
21
-17.6094055
0
LINE
8
0
10
76.622379
20
-6.9869687
11
80.2458456
21
-20.5099302
0
LINE
8
0
10
99.3157964
20
-17.5412572
11
116.6575338
21
-17.5412572
0
LINE
8
0
10
130.0668714
20
-2.4287547
11
137.9367371
21
-4.5374789
0
LINE
8
0
10
135.7274842
20
-20.5099301
11
139.3509508
21
-6.9869686
0
LINE
8
0
10
117.1751718
20
-17.6094055
11
133.2779945
21
-21.9241438
0
LINE
8
0
10
88.1232524
20
-0.423456
11
86.8909671
21
-1.8196467
0
LINE
8
0
10
129.083685
20
-1.8188432
11
127.4128752
21
0.0780598
0
LINE
8
0
10
136.4
20
5.4
11
136.4
21
49.9
0
LINE
8
0
10
128.9136996
20
3.4
11
134.4
21
3.4
0
ARC
8
0
10
43.5
20
-7
40
2
50
270
51
0
0
ARC
8
0
10
47.5
20
0.9
40
2
50
90
51
180
0
ARC
8
0
10
61.5
20
4.9
40
2
50
270
51
0
0
ARC
8
0
10
65.5
20
5.15
40
2
50
90
51
180
0
ARC
8
0
10
78.5
20
5.15
40
2
50
0
51
90
0
ARC
8
0
10
82.5
20
4.9
40
2
50
180
51
270
0
ARC
8
0
10
86.6237644
20
0.9
40
2
50
318.5682069
51
90
0
ARC
8
0
10
85.3914791
20
-0.4961907
40
2
50
284.9999979
51
318.5682069
0
ARC
8
0
10
78.5542307
20
-6.4693307
40
2
50
104.9999979
51
194.9999979
0
ARC
8
0
10
82.1776973
20
-19.9922922
40
2
50
194.9999979
51
284.9999979
0
ARC
8
0
10
99.3157964
20
-19.5412572
40
2
50
90
51
104.9999979
0
ARC
8
0
10
116.6575338
20
-19.5412572
40
2
50
75.0000021
51
90
0
ARC
8
0
10
133.7956325
20
-19.9922921
40
2
50
255.0000021
51
345.0000021
0
ARC
8
0
10
137.4190991
20
-6.4693306
40
2
50
345.0000021
51
75.0000021
0
ARC
8
0
10
130.5845095
20
-0.496903
40
2
50
221.3739016
51
255.0000021
0
ARC
8
0
10
128.9136996
20
1.4
40
2
50
90
51
221.3739016
0
ARC
8
0
10
134.4
20
5.4
40
2
50
270
51
0
0
ARC
8
0
10
134.4
20
49.9
40
2
50
0
51
90
0
ARC
8
0
10
101.5
20
53.9
40
2
50
180
51
270
0
ARC
8
0
10
97.5
20
54
40
2
50
0
51
90
0
ARC
8
0
10
83.5
20
58
40
2
50
180
51
270
0
ARC
8
0
10
79.5
20
58.05
40
2
50
0
51
90
0
ARC
8
0
10
64.5
20
58.05
40
2
50
90
51
180
0
ARC
8
0
10
60.5
20
56.9
40
2
50
270
51
0
0
ARC
8
0
10
46
20
52.9
40
2
50
90
51
180
0
ARC
8
0
10
42
20
45
40
2
50
270
51
0
0
ARC
8
0
10
10
20
41
40
2
50
90
51
180
0
ARC
8
0
10
10
20
-7
40
2
50
180
51
270
0
LINE
8
0
10
11.25
20
-8.25
11
24.75
21
-8.25
0
LINE
8
0
10
26.75
20
-6.25
11
26.75
21
6.25
0
LINE
8
0
10
24.75
20
8.25
11
11.25
21
8.25
0
LINE
8
0
10
9.25
20
6.25
11
9.25
21
-6.25
0
LINE
8
0
10
11.25
20
8.75
11
24.75
21
8.75
0
LINE
8
0
10
26.75
20
10.75
11
26.75
21
23.25
0
LINE
8
0
10
24.75
20
25.25
11
11.25
21
25.25
0
LINE
8
0
10
9.25
20
23.25
11
9.25
21
10.75
0
LINE
8
0
10
11.25
20
25.75
11
24.75
21
25.75
0
LINE
8
0
10
26.75
20
27.75
11
26.75
21
40.25
0
LINE
8
0
10
24.75
20
42.25
11
11.25
21
42.25
0
LINE
8
0
10
9.25
20
40.25
11
9.25
21
27.75
0
LINE
8
0
10
29.25
20
-8.25
11
42.75
21
-8.25
0
LINE
8
0
10
44.75
20
-6.25
11
44.75
21
6.25
0
LINE
8
0
10
42.75
20
8.25
11
29.25
21
8.25
0
LINE
8
0
10
27.25
20
6.25
11
27.25
21
-6.25
0
LINE
8
0
10
29.25
20
8.75
11
42.75
21
8.75
0
LINE
8
0
10
44.75
20
10.75
11
44.75
21
23.25
0
LINE
8
0
10
42.75
20
25.25
11
29.25
21
25.25
0
LINE
8
0
10
27.25
20
23.25
11
27.25
21
10.75
0
LINE
8
0
10
29.25
20
25.75
11
42.75
21
25.75
0
LINE
8
0
10
44.75
20
27.75
11
44.75
21
40.25
0
LINE
8
0
10
42.75
20
42.25
11
29.25
21
42.25
0
LINE
8
0
10
27.25
20
40.25
11
27.25
21
27.75
0
LINE
8
0
10
47.25
20
3.65
11
60.75
21
3.65
0
LINE
8
0
10
62.75
20
5.65
11
62.75
21
18.15
0
LINE
8
0
10
60.75
20
20.15
11
47.25
21
20.15
0
LINE
8
0
10
45.25
20
18.15
11
45.25
21
5.65
0
LINE
8
0
10
47.25
20
20.65
11
60.75
21
20.65
0
LINE
8
0
10
62.75
20
22.65
11
62.75
21
35.15
0
LINE
8
0
10
60.75
20
37.15
11
47.25
21
37.15
0
LINE
8
0
10
45.25
20
35.15
11
45.25
21
22.65
0
LINE
8
0
10
47.25
20
37.65
11
60.75
21
37.65
0
LINE
8
0
10
62.75
20
39.65
11
62.75
21
52.15
0
LINE
8
0
10
60.75
20
54.15
11
47.25
21
54.15
0
LINE
8
0
10
45.25
20
52.15
11
45.25
21
39.65
0
LINE
8
0
10
65.25
20
7.9
11
78.75
21
7.9
0
LINE
8
0
10
80.75
20
9.9
11
80.75
21
22.4
0
LINE
8
0
10
78.75
20
24.4
11
65.25
21
24.4
0
LINE
8
0
10
63.25
20
22.4
11
63.25
21
9.9
0
LINE
8
0
10
65.25
20
24.9
11
78.75
21
24.9
0
LINE
8
0
10
80.75
20
26.9
11
80.75
21
39.4
0
LINE
8
0
10
78.75
20
41.4
11
65.25
21
41.4
0
LINE
8
0
10
63.25
20
39.4
11
63.25
21
26.9
0
LINE
8
0
10
65.25
20
41.9
11
78.75
21
41.9
0
LINE
8
0
10
80.75
20
43.9
11
80.75
21
56.4
0
LINE
8
0
10
78.75
20
58.4
11
65.25
21
58.4
0
LINE
8
0
10
63.25
20
56.4
11
63.25
21
43.9
0
LINE
8
0
10
83.25
20
3.65
11
96.75
21
3.65
0
LINE
8
0
10
98.75
20
5.65
11
98.75
21
18.15
0
LINE
8
0
10
96.75
20
20.15
11
83.25
21
20.15
0
LINE
8
0
10
81.25
20
18.15
11
81.25
21
5.65
0
LINE
8
0
10
83.25
20
20.65
11
96.75
21
20.65
0
LINE
8
0
10
98.75
20
22.65
11
98.75
21
35.15
0
LINE
8
0
10
96.75
20
37.15
11
83.25
21
37.15
0
LINE
8
0
10
81.25
20
35.15
11
81.25
21
22.65
0
LINE
8
0
10
83.25
20
37.65
11
96.75
21
37.65
0
LINE
8
0
10
98.75
20
39.65
11
98.75
21
52.15
0
LINE
8
0
10
96.75
20
54.15
11
83.25
21
54.15
0
LINE
8
0
10
81.25
20
52.15
11
81.25
21
39.65
0
LINE
8
0
10
101.25
20
0.25
11
114.75
21
0.25
0
LINE
8
0
10
116.75
20
2.25
11
116.75
21
14.75
0
LINE
8
0
10
114.75
20
16.75
11
101.25
21
16.75
0
LINE
8
0
10
99.25
20
14.75
11
99.25
21
2.25
0
LINE
8
0
10
101.25
20
17.25
11
114.75
21
17.25
0
LINE
8
0
10
116.75
20
19.25
11
116.75
21
31.75
0
LINE
8
0
10
114.75
20
33.75
11
101.25
21
33.75
0
LINE
8
0
10
99.25
20
31.75
11
99.25
21
19.25
0
LINE
8
0
10
101.25
20
34.25
11
114.75
21
34.25
0
LINE
8
0
10
116.75
20
36.25
11
116.75
21
48.75
0
LINE
8
0
10
114.75
20
50.75
11
101.25
21
50.75
0
LINE
8
0
10
99.25
20
48.75
11
99.25
21
36.25
0
LINE
8
0
10
83.7086283
20
-20.8761757
11
96.7486269
21
-17.3821186
0
LINE
8
0
10
98.1628406
20
-14.9326289
11
94.9276026
21
-2.8585562
0
LINE
8
0
10
92.4781129
20
-1.4443425
11
79.4381143
21
-4.9383996
0
LINE
8
0
10
78.0239006
20
-7.3878893
11
81.2591386
21
-19.461962
0
LINE
8
0
10
101.2366648
20
-16.7912572
11
114.7366648
21
-16.7912572
0
LINE
8
0
10
116.7366648
20
-14.7912572
11
116.7366648
21
-2.2912572
0
LINE
8
0
10
114.7366648
20
-0.2912572
11
101.2366648
21
-0.2912572
0
LINE
8
0
10
99.2366648
20
-2.2912572
11
99.2366648
21
-14.7912572
0
LINE
8
0
10
119.2247029
20
-17.3821185
11
132.2647015
21
-20.8761756
0
LINE
8
0
10
134.7141912
20
-19.4619619
11
137.9494292
21
-7.3878892
0
LINE
8
0
10
136.5352155
20
-4.9383995
11
123.4952169
21
-1.4443424
0
LINE
8
0
10
121.0457272
20
-2.8585561
11
117.8104892
21
-14.9326288
0
ARC
8
0
10
24.75
20
-6.25
40
2
50
270
51
0
0
ARC
8
0
10
24.75
20
6.25
40
2
50
0
51
90
0
ARC
8
0
10
11.25
20
6.25
40
2
50
90
51
180
0
ARC
8
0
10
11.25
20
-6.25
40
2
50
180
51
270
0
ARC
8
0
10
24.75
20
10.75
40
2
50
270
51
0
0
ARC
8
0
10
24.75
20
23.25
40
2
50
0
51
90
0
ARC
8
0
10
11.25
20
23.25
40
2
50
90
51
180
0
ARC
8
0
10
11.25
20
10.75
40
2
50
180
51
270
0
ARC
8
0
10
24.75
20
27.75
40
2
50
270
51
0
0
ARC
8
0
10
24.75
20
40.25
40
2
50
0
51
90
0
ARC
8
0
10
11.25
20
40.25
40
2
50
90
51
180
0
ARC
8
0
10
11.25
20
27.75
40
2
50
180
51
270
0
ARC
8
0
10
42.75
20
-6.25
40
2
50
270
51
0
0
ARC
8
0
10
42.75
20
6.25
40
2
50
0
51
90
0
ARC
8
0
10
29.25
20
6.25
40
2
50
90
51
180
0
ARC
8
0
10
29.25
20
-6.25
40
2
50
180
51
270
0
ARC
8
0
10
42.75
20
10.75
40
2
50
270
51
0
0
ARC
8
0
10
42.75
20
23.25
40
2
50
0
51
90
0
ARC
8
0
10
29.25
20
23.25
40
2
50
90
51
180
0
ARC
8
0
10
29.25
20
10.75
40
2
50
180
51
270
0
ARC
8
0
10
42.75
20
27.75
40
2
50
270
51
0
0
ARC
8
0
10
42.75
20
40.25
40
2
50
0
51
90
0
ARC
8
0
10
29.25
20
40.25
40
2
50
90
51
180
0
ARC
8
0
10
29.25
20
27.75
40
2
50
180
51
270
0
ARC
8
0
10
60.75
20
5.65
40
2
50
270
51
0
0
ARC
8
0
10
60.75
20
18.15
40
2
50
0
51
90
0
ARC
8
0
10
47.25
20
18.15
40
2
50
90
51
180
0
ARC
8
0
10
47.25
20
5.65
40
2
50
180
51
270
0
ARC
8
0
10
60.75
20
22.65
40
2
50
270
51
0
0
ARC
8
0
10
60.75
20
35.15
40
2
50
0
51
90
0
ARC
8
0
10
47.25
20
35.15
40
2
50
90
51
180
0
ARC
8
0
10
47.25
20
22.65
40
2
50
180
51
270
0
ARC
8
0
10
60.75
20
39.65
40
2
50
270
51
0
0
ARC
8
0
10
60.75
20
52.15
40
2
50
0
51
90
0
ARC
8
0
10
47.25
20
52.15
40
2
50
90
51
180
0
ARC
8
0
10
47.25
20
39.65
40
2
50
180
51
270
0
ARC
8
0
10
78.75
20
9.9
40
2
50
270
51
0
0
ARC
8
0
10
78.75
20
22.4
40
2
50
0
51
90
0
ARC
8
0
10
65.25
20
22.4
40
2
50
90
51
180
0
ARC
8
0
10
65.25
20
9.9
40
2
50
180
51
270
0
ARC
8
0
10
78.75
20
26.9
40
2
50
270
51
0
0
ARC
8
0
10
78.75
20
39.4
40
2
50
0
51
90
0
ARC
8
0
10
65.25
20
39.4
40
2
50
90
51
180
0
ARC
8
0
10
65.25
20
26.9
40
2
50
180
51
270
0
ARC
8
0
10
78.75
20
43.9
40
2
50
270
51
0
0
ARC
8
0
10
78.75
20
56.4
40
2
50
0
51
90
0
ARC
8
0
10
65.25
20
56.4
40
2
50
90
51
180
0
ARC
8
0
10
65.25
20
43.9
40
2
50
180
51
270
0
ARC
8
0
10
96.75
20
5.65
40
2
50
270
51
0
0
ARC
8
0
10
96.75
20
18.15
40
2
50
0
51
90
0
ARC
8
0
10
83.25
20
18.15
40
2
50
90
51
180
0
ARC
8
0
10
83.25
20
5.65
40
2
50
180
51
270
0
ARC
8
0
10
96.75
20
22.65
40
2
50
270
51
0
0
ARC
8
0
10
96.75
20
35.15
40
2
50
0
51
90
0
ARC
8
0
10
83.25
20
35.15
40
2
50
90
51
180
0
ARC
8
0
10
83.25
20
22.65
40
2
50
180
51
270
0
ARC
8
0
10
96.75
20
39.65
40
2
50
270
51
0
0
ARC
8
0
10
96.75
20
52.15
40
2
50
0
51
90
0
ARC
8
0
10
83.25
20
52.15
40
2
50
90
51
180
0
ARC
8
0
10
83.25
20
39.65
40
2
50
180
51
270
0
ARC
8
0
10
114.75
20
2.25
40
2
50
270
51
0
0
ARC
8
0
10
114.75
20
14.75
40
2
50
0
51
90
0
ARC
8
0
10
101.25
20
14.75
40
2
50
90
51
180
0
ARC
8
0
10
101.25
20
2.25
40
2
50
180
51
270
0
ARC
8
0
10
114.75
20
19.25
40
2
50
270
51
0
0
ARC
8
0
10
114.75
20
31.75
40
2
50
0
51
90
0
ARC
8
0
10
101.25
20
31.75
40
2
50
90
51
180
0
ARC
8
0
10
101.25
20
19.25
40
2
50
180
51
270
0
ARC
8
0
10
114.75
20
36.25
40
2
50
270
51
0
0
ARC
8
0
10
114.75
20
48.75
40
2
50
0
51
90
0
ARC
8
0
10
101.25
20
48.75
40
2
50
90
51
180
0
ARC
8
0
10
101.25
20
36.25
40
2
50
180
51
270
0
ARC
8
0
10
114.7366648
20
-14.7912572
40
2
50
270
51
0
0
ARC
8
0
10
114.7366648
20
-2.2912572
40
2
50
0
51
90
0
ARC
8
0
10
101.2366648
20
-2.2912572
40
2
50
90
51
180
0
ARC
8
0
10
101.2366648
20
-14.7912572
40
2
50
180
51
270
0
ARC
8
0
10
96.2309889
20
-15.4502669
40
2
50
284.9999979
51
14.9999979
0
ARC
8
0
10
92.9957509
20
-3.3761942
40
2
50
14.9999979
51
104.9999979
0
ARC
8
0
10
79.9557523
20
-6.8702513
40
2
50
104.9999979
51
194.9999979
0
ARC
8
0
10
83.1909903
20
-18.944324
40
2
50
194.9999979
51
284.9999979
0
ARC
8
0
10
132.7823395
20
-18.9443239
40
2
50
255.0000021
51
345.0000021
0
ARC
8
0
10
136.0175775
20
-6.8702512
40
2
50
345.0000021
51
75.0000021
0
ARC
8
0
10
122.9775789
20
-3.3761941
40
2
50
75.0000021
51
165.0000021
0
ARC
8
0
10
119.7423409
20
-15.4502668
40
2
50
165.0000021
51
255.0000021
0
LINE
8
0
10
118
20
17.25
11
135.78
21
17.25
0
LINE
8
0
10
135.78
20
17.25
11
135.78
21
50.5
0
LINE
8
0
10
135.78
20
50.5
11
132.27
21
50.5
0
LINE
8
0
10
121.51
20
50.5
11
118
21
50.5
0
LINE
8
0
10
118
20
50.5
11
118
21
17.25
0
LINE
8
0
10
132.27
20
50.5
11
132.27
21
51.9
0
LINE
8
0
10
121.51
20
51.9
11
121.51
21
50.5
0
LINE
8
0
10
129.05
20
7.575
11
132.57
21
7.575
0
LINE
8
0
10
132.57
20
7.575
11
132.57
21
13.575
0
LINE
8
0
10
132.57
20
13.575
11
129.05
21
13.575
0
LINE
8
0
10
129.05
20
13.575
11
129.05
21
7.575
0
LINE
8
0
10
118
20
5.4
11
125.55
21
5.4
0
LINE
8
0
10
125.55
20
5.4
11
125.55
21
15.75
0
LINE
8
0
10
125.55
20
15.75
11
118
21
15.75
0
LINE
8
0
10
118
20
15.75
11
118
21
5.4
0
ENDSEC
0
EOF