0
SECTION
2
HEADER
9
$INSUNITS
70
4
0
ENDSEC
0
SECTION
2
TABLES
0
TABLE
2
LTYPE
0
LTYPE
72
65
70
64
2
CONTINUOUS
3
______
73
0
40
0
0
ENDTAB
0
TABLE
2
LAYER
0
ENDTAB
0
ENDSEC
0
SECTION
2
ENTITIES
0
LINE
8
0
10
10.5
20
-9
11
43.5
21
-9
0
LINE
8
0
10
8.5
20
-7
11
8.5
21
41
0
LINE
8
0
10
10.5
20
43
11
42.5
21
43
0
LINE
8
0
10
45.5
20
-7
11
45.5
21
0.9
0
LINE
8
0
10
63.5
20
5.15
11
63.5
21
4.9
0
LINE
8
0
10
47.5
20
2.9
11
61.5
21
2.9
0
LINE
8
0
10
46.5
20
54.9
11
60.5
21
54.9
0
LINE
8
0
10
44.5
20
45
11
44.5
21
52.9
0
LINE
8
0
10
65.5
20
7.15
11
78.5
21
7.15
0
LINE
8
0
10
64.5
20
59.45
11
79.5
21
59.45
0
LINE
8
0
10
81.5
20
57.45
11
81.5
21
57.4
0
LINE
8
0
10
62.5
20
56.9
11
62.5
21
57.45
0
LINE
8
0
10
82.5
20
2.9
11
86.6237644
21
2.9
0
LINE
8
0
10
80.5
20
4.9
11
80.5
21
5.15
0
LINE
8
0
10
83.5
20
55.4
11
97.5
21
55.4
0
LINE
8
0
10
99.5
20
53.4
11
99.5
21
53.3
0
LINE
8
0
10
101.5
20
51.3
11
134.4
21
51.3
0
LINE
8
0
10
78.5195556
20
-4.4080695
11
85.9091171
21
-2.4280424
0
LINE
8
0
10
83.1782983
20
-21.7947344
11
98.7981584
21
-17.6094055
0
LINE
8
0
10
77.1053419
20
-6.8575592
11
80.7288086
21
-20.3805207
0
LINE
8
0
10
99.3157964
20
-17.5412572
11
116.6575337
21
-17.5412572
0
LINE
8
0
10
130.0668714
20
-2.4287547
11
137.4537742
21
-4.4080694
0
LINE
8
0
10
135.2445212
20
-20.3805206
11
138.8679879
21
-6.8575591
0
LINE
8
0
10
117.1751718
20
-17.6094055
11
132.7950315
21
-21.7947343
0
LINE
8
0
10
88.1232524
20
-0.423456
11
86.8909671
21
-1.8196467
0
LINE
8
0
10
129.083685
20
-1.8188433
11
127.4128752
21
0.0780598
0
LINE
8
0
10
136.4
20
5.4
11
136.4
21
49.3
0
LINE
8
0
10
128.9136996
20
3.4
11
134.4
21
3.4
0
ARC
8
0
10
43.5
20
-7
40
2
50
270
51
0
0
ARC
8
0
10
47.5
20
0.9
40
2
50
90
51
180
0
ARC
8
0
10
61.5
20
4.9
40
2
50
270
51
0
0
ARC
8
0
10
65.5
20
5.15
40
2
50
90
51
180
0
ARC
8
0
10
78.5
20
5.15
40
2
50
0
51
90
0
ARC
8
0
10
82.5
20
4.9
40
2
50
180
51
270
0
ARC
8
0
10
86.6237644
20
0.9
40
2
50
318.5682069
51
90
0
ARC
8
0
10
85.3914791
20
-0.4961907
40
2
50
284.9999979
51
318.5682069
0
ARC
8
0
10
79.0371936
20
-6.3399212
40
2
50
104.9999979
51
194.9999979
0
ARC
8
0
10
82.6606603
20
-19.8628827
40
2
50
194.9999979
51
284.9999979
0
ARC
8
0
10
99.3157964
20
-19.5412572
40
2
50
90
51
104.9999979
0
ARC
8
0
10
116.6575337
20
-19.5412572
40
2
50
75.0000021
51
90
0
ARC
8
0
10
133.3126695
20
-19.8628826
40
2
50
255.0000021
51
345.0000021
0
ARC
8
0
10
136.9361362
20
-6.3399211
40
2
50
345.0000021
51
75.0000021
0
ARC
8
0
10
130.5845095
20
-0.496903
40
2
50
221.3739016
51
255.0000021
0
ARC
8
0
10
128.9136996
20
1.4
40
2
50
90
51
221.3739016
0
ARC
8
0
10
134.4
20
5.4
40
2
50
270
51
0
0
ARC
8
0
10
134.4
20
49.3
40
2
50
0
51
90
0
ARC
8
0
10
101.5
20
53.3
40
2
50
180
51
270
0
ARC
8
0
10
97.5
20
53.4
40
2
50
0
51
90
0
ARC
8
0
10
83.5
20
57.4
40
2
50
180
51
270
0
ARC
8
0
10
79.5
20
57.45
40
2
50
0
51
90
0
ARC
8
0
10
64.5
20
57.45
40
2
50
90
51
180
0
ARC
8
0
10
60.5
20
56.9
40
2
50
270
51
0
0
ARC
8
0
10
46.5
20
52.9
40
2
50
90
51
180
0
ARC
8
0
10
42.5
20
45
40
2
50
270
51
0
0
ARC
8
0
10
10.5
20
41
40
2
50
90
51
180
0
ARC
8
0
10
10.5
20
-7
40
2
50
180
51
270
0
ENDSEC
0
EOF