0
SECTION
2
HEADER
9
$INSUNITS
70
4
0
ENDSEC
0
SECTION
2
TABLES
0
TABLE
2
LTYPE
0
LTYPE
72
65
70
64
2
CONTINUOUS
3
______
73
0
40
0
0
ENDTAB
0
TABLE
2
LAYER
0
ENDTAB
0
ENDSEC
0
SECTION
2
ENTITIES
0
LINE
8
0
10
4.0227961
20
9.3073059
11
18.3579569
21
19.3448936
0
LINE
8
0
10
18.3579569
20
19.3448936
11
8.8939457
21
32.8609023
0
LINE
8
0
10
8.8939457
20
32.8609023
11
-5.4412151
21
22.8233146
0
LINE
8
0
10
-5.4412151
20
22.8233146
11
4.0227961
21
9.3073059
0
LINE
8
0
10
-5.7280034
20
23.2328906
11
8.6071574
21
33.2704783
0
LINE
8
0
10
8.6071574
20
33.2704783
11
-0.8568538
21
46.786487
0
LINE
8
0
10
-0.8568538
20
46.786487
11
-15.1920146
21
36.7488993
0
LINE
8
0
10
-15.1920146
20
36.7488993
11
-5.7280034
21
23.2328906
0
LINE
8
0
10
21.0278436
20
16.0797984
11
36.1832882
21
24.8297984
0
LINE
8
0
10
36.1832882
20
24.8297984
11
27.9332882
21
39.1192176
0
LINE
8
0
10
27.9332882
20
39.1192176
11
12.7778436
21
30.3692176
0
LINE
8
0
10
12.7778436
20
30.3692176
11
21.0278436
21
16.0797984
0
LINE
8
0
10
12.5278436
20
30.8022302
11
27.6832882
21
39.5522302
0
LINE
8
0
10
27.6832882
20
39.5522302
11
19.4332882
21
53.8416494
0
LINE
8
0
10
19.4332882
20
53.8416494
11
4.2778436
21
45.0916494
0
LINE
8
0
10
4.2778436
20
45.0916494
11
12.5278436
21
30.8022302
0
LINE
8
0
10
40.6254306
20
16.764305
11
56.4858169
21
24.1601245
0
LINE
8
0
10
56.4858169
20
24.1601245
11
49.5126156
21
39.114203
0
LINE
8
0
10
49.5126156
20
39.114203
11
33.6522293
21
31.7183835
0
LINE
8
0
10
33.6522293
20
31.7183835
11
40.6254306
21
16.764305
0
LINE
8
0
10
33.4409201
20
32.1715373
11
49.3013064
21
39.5673568
0
LINE
8
0
10
49.3013064
20
39.5673568
11
42.3281051
21
54.5214353
0
LINE
8
0
10
42.3281051
20
54.5214353
11
26.4677188
21
47.1256158
0
LINE
8
0
10
26.4677188
20
47.1256158
11
33.4409201
21
32.1715373
0
LINE
8
0
10
14.8368025
20
-4.8470911
11
-2.1970692
21
15.4530867
0
LINE
8
0
10
-2.1970692
20
15.4530867
11
-14.8368025
21
4.8470911
0
LINE
8
0
10
-14.8368025
20
4.8470911
11
2.1970692
21
-15.4530867
0
LINE
8
0
10
2.1970692
20
-15.4530867
11
14.8368025
21
-4.8470911
0
LINE
8
0
10
83.0865386
20
10.4488181
11
74.0230048
21
35.3506725
0
LINE
8
0
10
74.0230048
20
35.3506725
11
58.5180766
21
29.7073401
0
LINE
8
0
10
58.5180766
20
29.7073401
11
67.5816104
21
4.8054857
0
LINE
8
0
10
67.5816104
20
4.8054857
11
83.0865386
21
10.4488181
0
LINE
8
0
10
100.7714139
20
11.5646974
11
91.7078801
21
36.4665518
0
LINE
8
0
10
91.7078801
20
36.4665518
11
76.2029519
21
30.8232194
0
LINE
8
0
10
76.2029519
20
30.8232194
11
85.2664857
21
5.921365
0
LINE
8
0
10
85.2664857
20
5.921365
11
100.7714139
21
11.5646974
0
ENDSEC
0
EOF