0
SECTION
2
HEADER
9
$INSUNITS
70
4
0
ENDSEC
0
SECTION
2
TABLES
0
TABLE
2
LTYPE
0
LTYPE
72
65
70
64
2
CONTINUOUS
3
______
73
0
40
0
0
ENDTAB
0
TABLE
2
LAYER
0
ENDTAB
0
ENDSEC
0
SECTION
2
ENTITIES
0
LINE
8
0
10
10
20
-8.5
11
26
21
-8.5
0
ARC
8
0
10
26
20
-7.5
40
1
50
270
51
360
0
ARC
8
0
10
26
20
7.5
40
1
50
0
51
90
0
ARC
8
0
10
10
20
7.5
40
1
50
90
51
180
0
LINE
8
0
10
9
20
7.5
11
9
21
-7.5
0
ARC
8
0
10
10
20
-7.5
40
1
50
180
51
270
0
ARC
8
0
10
26
20
9.5
40
1
50
270
51
360
0
ARC
8
0
10
26
20
24.5
40
1
50
0
51
90
0
ARC
8
0
10
10
20
24.5
40
1
50
90
51
180
0
LINE
8
0
10
9
20
24.5
11
9
21
9.5
0
ARC
8
0
10
10
20
9.5
40
1
50
180
51
270
0
ARC
8
0
10
26
20
26.5
40
1
50
270
51
360
0
ARC
8
0
10
26
20
41.5
40
1
50
0
51
90
0
LINE
8
0
10
26
20
42.5
11
10
21
42.5
0
ARC
8
0
10
10
20
41.5
40
1
50
90
51
180
0
LINE
8
0
10
9
20
41.5
11
9
21
26.5
0
ARC
8
0
10
10
20
26.5
40
1
50
180
51
270
0
LINE
8
0
10
28
20
-8.5
11
44
21
-8.5
0
ARC
8
0
10
44
20
-7.5
40
1
50
270
51
360
0
LINE
8
0
10
45
20
-7.5
11
45
21
-0.94
0
ARC
8
0
10
44
20
7.5
40
1
50
0
51
90
0
ARC
8
0
10
28
20
7.5
40
1
50
90
51
180
0
ARC
8
0
10
28
20
-7.5
40
1
50
180
51
270
0
ARC
8
0
10
44
20
9.5
40
1
50
270
51
360
0
LINE
8
0
10
45
20
14.06
11
45
21
16.06
0
ARC
8
0
10
44
20
24.5
40
1
50
0
51
90
0
ARC
8
0
10
28
20
24.5
40
1
50
90
51
180
0
ARC
8
0
10
28
20
9.5
40
1
50
180
51
270
0
ARC
8
0
10
44
20
26.5
40
1
50
270
51
360
0
LINE
8
0
10
45
20
31.06
11
45
21
33.06
0
ARC
8
0
10
44
20
41.5
40
1
50
0
51
90
0
LINE
8
0
10
44
20
42.5
11
28
21
42.5
0
ARC
8
0
10
28
20
41.5
40
1
50
90
51
180
0
ARC
8
0
10
28
20
26.5
40
1
50
180
51
270
0
LINE
8
0
10
46
20
-1.94
11
62
21
-1.94
0
ARC
8
0
10
62
20
-0.94
40
1
50
270
51
360
0
LINE
8
0
10
63
20
-0.94
11
63
21
1.42
0
ARC
8
0
10
62
20
14.06
40
1
50
0
51
90
0
ARC
8
0
10
46
20
14.06
40
1
50
90
51
180
0
LINE
8
0
10
45
20
9.5
11
45
21
7.5
0
ARC
8
0
10
46
20
-0.94
40
1
50
180
51
270
0
ARC
8
0
10
62
20
16.06
40
1
50
270
51
360
0
LINE
8
0
10
63
20
16.42
11
63
21
18.42
0
ARC
8
0
10
62
20
31.06
40
1
50
0
51
90
0
ARC
8
0
10
46
20
31.06
40
1
50
90
51
180
0
LINE
8
0
10
45
20
26.5
11
45
21
24.5
0
ARC
8
0
10
46
20
16.06
40
1
50
180
51
270
0
ARC
8
0
10
62
20
33.06
40
1
50
270
51
360
0
LINE
8
0
10
63
20
33.42
11
63
21
35.42
0
ARC
8
0
10
62
20
48.06
40
1
50
0
51
90
0
LINE
8
0
10
62
20
49.06
11
46
21
49.06
0
ARC
8
0
10
46
20
48.06
40
1
50
90
51
180
0
LINE
8
0
10
45
20
48.06
11
45
21
41.5
0
ARC
8
0
10
46
20
33.06
40
1
50
180
51
270
0
LINE
8
0
10
64
20
0.42
11
80
21
0.42
0
ARC
8
0
10
80
20
1.42
40
1
50
270
51
360
0
LINE
8
0
10
81
20
14.06
11
81
21
16.06
0
ARC
8
0
10
80
20
16.42
40
1
50
0
51
90
0
ARC
8
0
10
64
20
16.42
40
1
50
90
51
180
0
LINE
8
0
10
63
20
16.06
11
63
21
14.06
0
ARC
8
0
10
64
20
1.42
40
1
50
180
51
270
0
ARC
8
0
10
80
20
18.42
40
1
50
270
51
360
0
LINE
8
0
10
81
20
31.06
11
81
21
33.06
0
ARC
8
0
10
80
20
33.42
40
1
50
0
51
90
0
ARC
8
0
10
64
20
33.42
40
1
50
90
51
180
0
LINE
8
0
10
63
20
33.06
11
63
21
31.06
0
ARC
8
0
10
64
20
18.42
40
1
50
180
51
270
0
ARC
8
0
10
80
20
35.42
40
1
50
270
51
360
0
LINE
8
0
10
81
20
48.06
11
81
21
50.42
0
ARC
8
0
10
80
20
50.42
40
1
50
0
51
90
0
LINE
8
0
10
80
20
51.42
11
64
21
51.42
0
ARC
8
0
10
64
20
50.42
40
1
50
90
51
180
0
LINE
8
0
10
63
20
50.42
11
63
21
48.06
0
ARC
8
0
10
64
20
35.42
40
1
50
180
51
270
0
LINE
8
0
10
82
20
-1.94
11
98
21
-1.94
0
ARC
8
0
10
98
20
-0.94
40
1
50
270
51
360
0
LINE
8
0
10
99
20
11.68
11
99
21
13.68
0
ARC
8
0
10
98
20
14.06
40
1
50
0
51
90
0
ARC
8
0
10
82
20
14.06
40
1
50
90
51
180
0
LINE
8
0
10
81
20
1.42
11
81
21
-0.94
0
ARC
8
0
10
82
20
-0.94
40
1
50
180
51
270
0
ARC
8
0
10
98
20
16.06
40
1
50
270
51
360
0
LINE
8
0
10
99
20
28.68
11
99
21
30.68
0
ARC
8
0
10
98
20
31.06
40
1
50
0
51
90
0
ARC
8
0
10
82
20
31.06
40
1
50
90
51
180
0
LINE
8
0
10
81
20
18.42
11
81
21
16.42
0
ARC
8
0
10
82
20
16.06
40
1
50
180
51
270
0
ARC
8
0
10
98
20
33.06
40
1
50
270
51
360
0
LINE
8
0
10
99
20
45.68
11
99
21
48.06
0
ARC
8
0
10
98
20
48.06
40
1
50
0
51
90
0
LINE
8
0
10
98
20
49.06
11
82
21
49.06
0
ARC
8
0
10
82
20
48.06
40
1
50
90
51
180
0
LINE
8
0
10
81
20
35.42
11
81
21
33.42
0
ARC
8
0
10
82
20
33.06
40
1
50
180
51
270
0
LINE
8
0
10
100
20
-4.32
11
116
21
-4.32
0
ARC
8
0
10
116
20
-3.32
40
1
50
270
51
360
0
LINE
8
0
10
117
20
-3.32
11
117
21
11.68
0
ARC
8
0
10
116
20
11.68
40
1
50
0
51
90
0
ARC
8
0
10
100
20
11.68
40
1
50
90
51
180
0
LINE
8
0
10
99
20
-0.94
11
99
21
-3.32
0
ARC
8
0
10
100
20
-3.32
40
1
50
180
51
270
0
ARC
8
0
10
116
20
13.68
40
1
50
270
51
360
0
LINE
8
0
10
117
20
13.68
11
117
21
28.68
0
ARC
8
0
10
116
20
28.68
40
1
50
0
51
90
0
ARC
8
0
10
100
20
28.68
40
1
50
90
51
180
0
LINE
8
0
10
99
20
16.06
11
99
21
14.06
0
ARC
8
0
10
100
20
13.68
40
1
50
180
51
270
0
ARC
8
0
10
116
20
30.68
40
1
50
270
51
360
0
LINE
8
0
10
117
20
30.68
11
117
21
45.68
0
ARC
8
0
10
116
20
45.68
40
1
50
0
51
90
0
LINE
8
0
10
116
20
46.68
11
100
21
46.68
0
ARC
8
0
10
100
20
45.68
40
1
50
90
51
180
0
LINE
8
0
10
99
20
33.06
11
99
21
31.06
0
ARC
8
0
10
100
20
30.68
40
1
50
180
51
270
0
LINE
8
0
10
76.1
20
-21.91
11
92.1
21
-21.91
0
ARC
8
0
10
92.1
20
-20.91
40
1
50
270
51
360
0
LINE
8
0
10
93.1
20
-20.91
11
93.1
21
-5.91
0
ARC
8
0
10
92.1
20
-5.91
40
1
50
0
51
90
0
LINE
8
0
10
92.1
20
-4.91
11
76.1
21
-4.91
0
ARC
8
0
10
76.1
20
-5.91
40
1
50
90
51
180
0
LINE
8
0
10
75.1
20
-5.91
11
75.1
21
-20.91
0
ARC
8
0
10
76.1
20
-20.91
40
1
50
180
51
270
0
LINE
8
0
10
94.5289258
20
-22.1688191
11
109.983739
21
-26.3099238
0
ARC
8
0
10
110.2425581
20
-25.343998
40
1
50
255
51
345
0
LINE
8
0
10
111.2084839
20
-25.602817
11
115.0907696
21
-11.1139296
0
ARC
8
0
10
114.1248437
20
-10.8551106
40
1
50
345
51
75
0
LINE
8
0
10
114.3836628
20
-9.8891847
11
98.9288496
21
-5.74808
0
ARC
8
0
10
98.6700305
20
-6.7140058
40
1
50
75
51
165
0
LINE
8
0
10
97.7041047
20
-6.4551868
11
93.821819
21
-20.9440742
0
ARC
8
0
10
94.7877449
20
-21.2028932
40
1
50
165
51
255
0
LINE
8
0
10
129.5035018
20
-31.8097837
11
137.5035018
21
-17.9533773
0
ARC
8
0
10
136.6374764
20
-17.4533773
40
1
50
330
51
60
0
LINE
8
0
10
137.1374764
20
-16.5873519
11
124.1470954
21
-9.0873519
0
ARC
8
0
10
123.6470954
20
-9.9533773
40
1
50
60
51
150
0
LINE
8
0
10
122.78107
20
-9.4533773
11
114.78107
21
-23.3097837
0
ARC
8
0
10
115.6470954
20
-23.8097837
40
1
50
150
51
240
0
LINE
8
0
10
115.1470954
20
-24.6758091
11
128.1374764
21
-32.1758091
0
ARC
8
0
10
128.6374764
20
-31.3097837
40
1
50
240
51
330
0
ENDSEC
0
EOF