0
SECTION
2
HEADER
9
$INSUNITS
70
4
0
ENDSEC
0
SECTION
2
TABLES
0
TABLE
2
LTYPE
0
LTYPE
72
65
70
64
2
CONTINUOUS
3
______
73
0
40
0
0
ENDTAB
0
TABLE
2
LAYER
0
ENDTAB
0
ENDSEC
0
SECTION
2
ENTITIES
0
LINE
8
0
10
9.25
20
-8.25
11
26.75
21
-8.25
0
LINE
8
0
10
26.75
20
-8.25
11
26.75
21
8.25
0
LINE
8
0
10
26.75
20
8.25
11
9.25
21
8.25
0
LINE
8
0
10
9.25
20
8.25
11
9.25
21
-8.25
0
LINE
8
0
10
9.25
20
8.75
11
26.75
21
8.75
0
LINE
8
0
10
26.75
20
8.75
11
26.75
21
25.25
0
LINE
8
0
10
26.75
20
25.25
11
9.25
21
25.25
0
LINE
8
0
10
9.25
20
25.25
11
9.25
21
8.75
0
LINE
8
0
10
9.25
20
25.75
11
26.75
21
25.75
0
LINE
8
0
10
26.75
20
25.75
11
26.75
21
42.25
0
LINE
8
0
10
26.75
20
42.25
11
9.25
21
42.25
0
LINE
8
0
10
9.25
20
42.25
11
9.25
21
25.75
0
LINE
8
0
10
27.25
20
-8.25
11
44.75
21
-8.25
0
LINE
8
0
10
44.75
20
-8.25
11
44.75
21
8.25
0
LINE
8
0
10
44.75
20
8.25
11
27.25
21
8.25
0
LINE
8
0
10
27.25
20
8.25
11
27.25
21
-8.25
0
LINE
8
0
10
27.25
20
8.75
11
44.75
21
8.75
0
LINE
8
0
10
44.75
20
8.75
11
44.75
21
25.25
0
LINE
8
0
10
44.75
20
25.25
11
27.25
21
25.25
0
LINE
8
0
10
27.25
20
25.25
11
27.25
21
8.75
0
LINE
8
0
10
27.25
20
25.75
11
44.75
21
25.75
0
LINE
8
0
10
44.75
20
25.75
11
44.75
21
42.25
0
LINE
8
0
10
44.75
20
42.25
11
27.25
21
42.25
0
LINE
8
0
10
27.25
20
42.25
11
27.25
21
25.75
0
LINE
8
0
10
45.25
20
-1.69
11
62.75
21
-1.69
0
LINE
8
0
10
62.75
20
-1.69
11
62.75
21
14.81
0
LINE
8
0
10
62.75
20
14.81
11
45.25
21
14.81
0
LINE
8
0
10
45.25
20
14.81
11
45.25
21
-1.69
0
LINE
8
0
10
45.25
20
15.31
11
62.75
21
15.31
0
LINE
8
0
10
62.75
20
15.31
11
62.75
21
31.81
0
LINE
8
0
10
62.75
20
31.81
11
45.25
21
31.81
0
LINE
8
0
10
45.25
20
31.81
11
45.25
21
15.31
0
LINE
8
0
10
45.25
20
32.31
11
62.75
21
32.31
0
LINE
8
0
10
62.75
20
32.31
11
62.75
21
48.81
0
LINE
8
0
10
62.75
20
48.81
11
45.25
21
48.81
0
LINE
8
0
10
45.25
20
48.81
11
45.25
21
32.31
0
LINE
8
0
10
63.25
20
0.67
11
80.75
21
0.67
0
LINE
8
0
10
80.75
20
0.67
11
80.75
21
17.17
0
LINE
8
0
10
80.75
20
17.17
11
63.25
21
17.17
0
LINE
8
0
10
63.25
20
17.17
11
63.25
21
0.67
0
LINE
8
0
10
63.25
20
17.67
11
80.75
21
17.67
0
LINE
8
0
10
80.75
20
17.67
11
80.75
21
34.17
0
LINE
8
0
10
80.75
20
34.17
11
63.25
21
34.17
0
LINE
8
0
10
63.25
20
34.17
11
63.25
21
17.67
0
LINE
8
0
10
63.25
20
34.67
11
80.75
21
34.67
0
LINE
8
0
10
80.75
20
34.67
11
80.75
21
51.17
0
LINE
8
0
10
80.75
20
51.17
11
63.25
21
51.17
0
LINE
8
0
10
63.25
20
51.17
11
63.25
21
34.67
0
LINE
8
0
10
81.25
20
-1.69
11
98.75
21
-1.69
0
LINE
8
0
10
98.75
20
-1.69
11
98.75
21
14.81
0
LINE
8
0
10
98.75
20
14.81
11
81.25
21
14.81
0
LINE
8
0
10
81.25
20
14.81
11
81.25
21
-1.69
0
LINE
8
0
10
81.25
20
15.31
11
98.75
21
15.31
0
LINE
8
0
10
98.75
20
15.31
11
98.75
21
31.81
0
LINE
8
0
10
98.75
20
31.81
11
81.25
21
31.81
0
LINE
8
0
10
81.25
20
31.81
11
81.25
21
15.31
0
LINE
8
0
10
81.25
20
32.31
11
98.75
21
32.31
0
LINE
8
0
10
98.75
20
32.31
11
98.75
21
48.81
0
LINE
8
0
10
98.75
20
48.81
11
81.25
21
48.81
0
LINE
8
0
10
81.25
20
48.81
11
81.25
21
32.31
0
LINE
8
0
10
99.25
20
-4.07
11
116.75
21
-4.07
0
LINE
8
0
10
116.75
20
-4.07
11
116.75
21
12.43
0
LINE
8
0
10
116.75
20
12.43
11
99.25
21
12.43
0
LINE
8
0
10
99.25
20
12.43
11
99.25
21
-4.07
0
LINE
8
0
10
99.25
20
12.93
11
116.75
21
12.93
0
LINE
8
0
10
116.75
20
12.93
11
116.75
21
29.43
0
LINE
8
0
10
116.75
20
29.43
11
99.25
21
29.43
0
LINE
8
0
10
99.25
20
29.43
11
99.25
21
12.93
0
LINE
8
0
10
99.25
20
29.93
11
116.75
21
29.93
0
LINE
8
0
10
116.75
20
29.93
11
116.75
21
46.43
0
LINE
8
0
10
116.75
20
46.43
11
99.25
21
46.43
0
LINE
8
0
10
99.25
20
46.43
11
99.25
21
29.93
0
LINE
8
0
10
75.35
20
-21.66
11
92.85
21
-21.66
0
LINE
8
0
10
92.85
20
-21.66
11
92.85
21
-5.16
0
LINE
8
0
10
92.85
20
-5.16
11
75.35
21
-5.16
0
LINE
8
0
10
75.35
20
-5.16
11
75.35
21
-21.66
0
LINE
8
0
10
93.8691862
20
-21.7332233
11
110.7728882
21
-26.2625566
0
LINE
8
0
10
110.7728882
20
-26.2625566
11
115.0434024
21
-10.3247805
0
LINE
8
0
10
115.0434024
20
-10.3247805
11
98.1397004
21
-5.7954472
0
LINE
8
0
10
98.1397004
20
-5.7954472
11
93.8691862
21
-21.7332233
0
LINE
8
0
10
126.6619955
20
-36.2314171
11
139.9119955
21
-13.2817439
0
LINE
8
0
10
139.9119955
20
-13.2817439
11
125.6225763
21
-5.0317439
0
LINE
8
0
10
125.6225763
20
-5.0317439
11
112.3725763
21
-27.9814171
0
LINE
8
0
10
112.3725763
20
-27.9814171
11
126.6619955
21
-36.2314171
0
ENDSEC
0
EOF