0
SECTION
2
HEADER
9
$INSUNITS
70
4
0
ENDSEC
0
SECTION
2
TABLES
0
TABLE
2
LTYPE
0
LTYPE
72
65
70
64
2
CONTINUOUS
3
______
73
0
40
0
0
ENDTAB
0
TABLE
2
LAYER
0
ENDTAB
0
ENDSEC
0
SECTION
2
ENTITIES
0
LINE
8
0
10
9.25
20
-8.25
11
26.75
21
-8.25
0
LINE
8
0
10
26.75
20
-8.25
11
26.75
21
8.25
0
LINE
8
0
10
26.75
20
8.25
11
9.25
21
8.25
0
LINE
8
0
10
9.25
20
8.25
11
9.25
21
-8.25
0
LINE
8
0
10
9.25
20
8.75
11
26.75
21
8.75
0
LINE
8
0
10
26.75
20
8.75
11
26.75
21
25.25
0
LINE
8
0
10
26.75
20
25.25
11
9.25
21
25.25
0
LINE
8
0
10
9.25
20
25.25
11
9.25
21
8.75
0
LINE
8
0
10
9.25
20
25.75
11
26.75
21
25.75
0
LINE
8
0
10
26.75
20
25.75
11
26.75
21
42.25
0
LINE
8
0
10
26.75
20
42.25
11
9.25
21
42.25
0
LINE
8
0
10
9.25
20
42.25
11
9.25
21
25.75
0
LINE
8
0
10
27.25
20
-8.25
11
44.75
21
-8.25
0
LINE
8
0
10
44.75
20
-8.25
11
44.75
21
8.25
0
LINE
8
0
10
44.75
20
8.25
11
27.25
21
8.25
0
LINE
8
0
10
27.25
20
8.25
11
27.25
21
-8.25
0
LINE
8
0
10
27.25
20
8.75
11
44.75
21
8.75
0
LINE
8
0
10
44.75
20
8.75
11
44.75
21
25.25
0
LINE
8
0
10
44.75
20
25.25
11
27.25
21
25.25
0
LINE
8
0
10
27.25
20
25.25
11
27.25
21
8.75
0
LINE
8
0
10
27.25
20
25.75
11
44.75
21
25.75
0
LINE
8
0
10
44.75
20
25.75
11
44.75
21
42.25
0
LINE
8
0
10
44.75
20
42.25
11
27.25
21
42.25
0
LINE
8
0
10
27.25
20
42.25
11
27.25
21
25.75
0
LINE
8
0
10
45.25
20
-1.69
11
62.75
21
-1.69
0
LINE
8
0
10
62.75
20
-1.69
11
62.75
21
14.81
0
LINE
8
0
10
62.75
20
14.81
11
45.25
21
14.81
0
LINE
8
0
10
45.25
20
14.81
11
45.25
21
-1.69
0
LINE
8
0
10
45.25
20
15.31
11
62.75
21
15.31
0
LINE
8
0
10
62.75
20
15.31
11
62.75
21
31.81
0
LINE
8
0
10
62.75
20
31.81
11
45.25
21
31.81
0
LINE
8
0
10
45.25
20
31.81
11
45.25
21
15.31
0
LINE
8
0
10
45.25
20
32.31
11
62.75
21
32.31
0
LINE
8
0
10
62.75
20
32.31
11
62.75
21
48.81
0
LINE
8
0
10
62.75
20
48.81
11
45.25
21
48.81
0
LINE
8
0
10
45.25
20
48.81
11
45.25
21
32.31
0
LINE
8
0
10
63.25
20
0.67
11
80.75
21
0.67
0
LINE
8
0
10
80.75
20
0.67
11
80.75
21
17.17
0
LINE
8
0
10
80.75
20
17.17
11
63.25
21
17.17
0
LINE
8
0
10
63.25
20
17.17
11
63.25
21
0.67
0
LINE
8
0
10
63.25
20
17.67
11
80.75
21
17.67
0
LINE
8
0
10
80.75
20
17.67
11
80.75
21
34.17
0
LINE
8
0
10
80.75
20
34.17
11
63.25
21
34.17
0
LINE
8
0
10
63.25
20
34.17
11
63.25
21
17.67
0
LINE
8
0
10
63.25
20
34.67
11
80.75
21
34.67
0
LINE
8
0
10
80.75
20
34.67
11
80.75
21
51.17
0
LINE
8
0
10
80.75
20
51.17
11
63.25
21
51.17
0
LINE
8
0
10
63.25
20
51.17
11
63.25
21
34.67
0
LINE
8
0
10
81.25
20
-1.69
11
98.75
21
-1.69
0
LINE
8
0
10
98.75
20
-1.69
11
98.75
21
14.81
0
LINE
8
0
10
98.75
20
14.81
11
81.25
21
14.81
0
LINE
8
0
10
81.25
20
14.81
11
81.25
21
-1.69
0
LINE
8
0
10
81.25
20
15.31
11
98.75
21
15.31
0
LINE
8
0
10
98.75
20
15.31
11
98.75
21
31.81
0
LINE
8
0
10
98.75
20
31.81
11
81.25
21
31.81
0
LINE
8
0
10
81.25
20
31.81
11
81.25
21
15.31
0
LINE
8
0
10
81.25
20
32.31
11
98.75
21
32.31
0
LINE
8
0
10
98.75
20
32.31
11
98.75
21
48.81
0
LINE
8
0
10
98.75
20
48.81
11
81.25
21
48.81
0
LINE
8
0
10
81.25
20
48.81
11
81.25
21
32.31
0
LINE
8
0
10
99.25
20
-4.07
11
116.75
21
-4.07
0
LINE
8
0
10
116.75
20
-4.07
11
116.75
21
12.43
0
LINE
8
0
10
116.75
20
12.43
11
99.25
21
12.43
0
LINE
8
0
10
99.25
20
12.43
11
99.25
21
-4.07
0
LINE
8
0
10
99.25
20
12.93
11
116.75
21
12.93
0
LINE
8
0
10
116.75
20
12.93
11
116.75
21
29.43
0
LINE
8
0
10
116.75
20
29.43
11
99.25
21
29.43
0
LINE
8
0
10
99.25
20
29.43
11
99.25
21
12.93
0
LINE
8
0
10
99.25
20
29.93
11
116.75
21
29.93
0
LINE
8
0
10
116.75
20
29.93
11
116.75
21
46.43
0
LINE
8
0
10
116.75
20
46.43
11
99.25
21
46.43
0
LINE
8
0
10
99.25
20
46.43
11
99.25
21
29.93
0
LINE
8
0
10
75.35
20
-21.66
11
92.85
21
-21.66
0
LINE
8
0
10
92.85
20
-21.66
11
92.85
21
-5.16
0
LINE
8
0
10
92.85
20
-5.16
11
75.35
21
-5.16
0
LINE
8
0
10
75.35
20
-5.16
11
75.35
21
-21.66
0
LINE
8
0
10
93.5631862
20
-21.7622233
11
110.4668882
21
-26.2915566
0
LINE
8
0
10
110.4668882
20
-26.2915566
11
114.7374024
21
-10.3537805
0
LINE
8
0
10
114.7374024
20
-10.3537805
11
97.8337004
21
-5.8244472
0
LINE
8
0
10
97.8337004
20
-5.8244472
11
93.5631862
21
-21.7622233
0
LINE
8
0
10
125.2355245
20
-34.7199269
11
138.4855245
21
-11.7702537
0
LINE
8
0
10
138.4855245
20
-11.7702537
11
124.1961053
21
-3.5202537
0
LINE
8
0
10
124.1961053
20
-3.5202537
11
110.9461053
21
-26.4699269
0
LINE
8
0
10
110.9461053
20
-26.4699269
11
125.2355245
21
-34.7199269
0
ENDSEC
0
EOF