0
SECTION
2
HEADER
9
$INSUNITS
70
4
0
ENDSEC
0
SECTION
2
TABLES
0
TABLE
2
LTYPE
0
LTYPE
72
65
70
64
2
CONTINUOUS
3
______
73
0
40
0
0
ENDTAB
0
TABLE
2
LAYER
0
ENDTAB
0
ENDSEC
0
SECTION
2
ENTITIES
0
LINE
8
0
10
10
20
-9.5
11
26
21
-9.5
0
ARC
8
0
10
26
20
-7.5
40
2
50
270
51
300.0000001
0
ARC
8
0
10
10
20
7.5
40
2
50
149.9999999
51
180
0
LINE
8
0
10
8
20
7.5
11
8
21
-7.5
0
ARC
8
0
10
10
20
-7.5
40
2
50
180
51
270
0
ARC
8
0
10
10
20
24.5
40
2
50
149.9999999
51
180
0
LINE
8
0
10
8
20
24.5
11
8
21
9.5
0
ARC
8
0
10
10
20
9.5
40
2
50
180
51
210.0000001
0
ARC
8
0
10
26
20
41.5
40
2
50
59.9999999
51
90
0
LINE
8
0
10
26
20
43.5
11
10
21
43.5
0
ARC
8
0
10
10
20
41.5
40
2
50
90
51
180
0
LINE
8
0
10
8
20
41.5
11
8
21
26.5
0
ARC
8
0
10
10
20
26.5
40
2
50
180
51
210.0000001
0
LINE
8
0
10
28
20
-9.5
11
44
21
-9.5
0
ARC
8
0
10
28
20
-7.5
40
2
50
239.9999999
51
270
0
LINE
8
0
10
44
20
43.5
11
28
21
43.5
0
ARC
8
0
10
28
20
41.5
40
2
50
90
51
120.0000001
0
LINE
8
0
10
62
20
50.06
11
46
21
50.06
0
ARC
8
0
10
46
20
48.06
40
2
50
90
51
180
0
LINE
8
0
10
44
20
48.06
11
44
21
43.5
0
LINE
8
0
10
82
20
50.06
11
82
21
50.42
0
ARC
8
0
10
80
20
50.42
40
2
50
0
51
90
0
LINE
8
0
10
80
20
52.42
11
64
21
52.42
0
ARC
8
0
10
64
20
50.42
40
2
50
90
51
180
0
LINE
8
0
10
62
20
50.42
11
62
21
50.06
0
LINE
8
0
10
100
20
47.68
11
100
21
48.06
0
ARC
8
0
10
98
20
48.06
40
2
50
0
51
90
0
LINE
8
0
10
98
20
50.06
11
82
21
50.06
0
LINE
8
0
10
118
20
-3.32
11
118
21
45.68
0
ARC
8
0
10
116
20
45.68
40
2
50
0
51
90
0
LINE
8
0
10
116
20
47.68
11
100
21
47.68
0
LINE
8
0
10
76.1
20
-22.91
11
92.1
21
-22.91
0
ARC
8
0
10
92.1
20
-20.91
40
2
50
270
51
306.3059944
0
ARC
8
0
10
76.1
20
-20.91
40
2
50
224.6538504
51
270
0
LINE
8
0
10
94.2701068
20
-23.1347449
11
109.72492
21
-27.2758496
0
ARC
8
0
10
110.2425581
20
-25.343998
40
2
50
255
51
345
0
LINE
8
0
10
112.1744097
20
-25.861636
11
113.6860901
21
-20.219968
0
ARC
8
0
10
94.7877449
20
-21.2028932
40
2
50
221.2556351
51
255
0
LINE
8
0
10
130.3695272
20
-32.3097837
11
138.3695272
21
-18.4533773
0
ARC
8
0
10
136.6374764
20
-17.4533773
40
2
50
330
51
60
0
LINE
8
0
10
137.6374764
20
-15.7213265
11
124.6470954
21
-8.2213265
0
ARC
8
0
10
123.6470954
20
-9.9533773
40
2
50
60
51
150
0
LINE
8
0
10
115.4845911
20
-20.0912495
11
113.9150446
21
-22.8097837
0
ARC
8
0
10
115.6470954
20
-23.8097837
40
2
50
150
51
240
0
LINE
8
0
10
114.6470954
20
-25.5418345
11
127.6374764
21
-33.0418345
0
ARC
8
0
10
128.6374764
20
-31.3097837
40
2
50
240
51
330
0
LINE
8
0
10
118
20
-3.32
11
121.9150446
21
-8.9533773
0
LINE
8
0
10
115.4845911
20
-20.0912495
11
113.6860901
21
-20.219968
0
LINE
8
0
10
74.6772684
20
-22.3156439
11
44
21
-9.5
0
ENDSEC
0
EOF