0
SECTION
2
HEADER
9
$INSUNITS
70
4
0
ENDSEC
0
SECTION
2
TABLES
0
TABLE
2
LTYPE
0
LTYPE
72
65
70
64
2
CONTINUOUS
3
______
73
0
40
0
0
ENDTAB
0
TABLE
2
LAYER
0
ENDTAB
0
ENDSEC
0
SECTION
2
ENTITIES
0
LINE
8
0
10
10
20
-9.5
11
26
21
-9.5
0
ARC
8
0
10
26
20
-7.5
40
2
50
270
51
300.0000001
0
ARC
8
0
10
10
20
7.5
40
2
50
149.9999999
51
180
0
LINE
8
0
10
8
20
7.5
11
8
21
-7.5
0
ARC
8
0
10
10
20
-7.5
40
2
50
180
51
270
0
ARC
8
0
10
10
20
24.5
40
2
50
149.9999999
51
180
0
LINE
8
0
10
8
20
24.5
11
8
21
9.5
0
ARC
8
0
10
10
20
9.5
40
2
50
180
51
210.0000001
0
ARC
8
0
10
26
20
41.5
40
2
50
59.9999999
51
90
0
LINE
8
0
10
26
20
43.5
11
10
21
43.5
0
ARC
8
0
10
10
20
41.5
40
2
50
90
51
180
0
LINE
8
0
10
8
20
41.5
11
8
21
26.5
0
ARC
8
0
10
10
20
26.5
40
2
50
180
51
210.0000001
0
LINE
8
0
10
28
20
-9.5
11
44
21
-9.5
0
ARC
8
0
10
28
20
-7.5
40
2
50
239.9999999
51
270
0
LINE
8
0
10
44
20
43.5
11
28
21
43.5
0
ARC
8
0
10
28
20
41.5
40
2
50
90
51
120.0000001
0
LINE
8
0
10
62
20
50.06
11
46
21
50.06
0
ARC
8
0
10
46
20
48.06
40
2
50
90
51
180
0
LINE
8
0
10
44
20
48.06
11
44
21
43.5
0
LINE
8
0
10
82
20
50.06
11
82
21
50.42
0
ARC
8
0
10
80
20
50.42
40
2
50
0
51
90
0
LINE
8
0
10
80
20
52.42
11
64
21
52.42
0
ARC
8
0
10
64
20
50.42
40
2
50
90
51
180
0
LINE
8
0
10
62
20
50.42
11
62
21
50.06
0
LINE
8
0
10
100
20
47.68
11
100
21
48.06
0
ARC
8
0
10
98
20
48.06
40
2
50
0
51
90
0
LINE
8
0
10
98
20
50.06
11
82
21
50.06
0
ARC
8
0
10
116
20
45.68
40
2
50
4.3012222
51
90
0
LINE
8
0
10
116
20
47.68
11
100
21
47.68
0
LINE
8
0
10
76.1
20
-22.91
11
92.1
21
-22.91
0
ARC
8
0
10
92.1
20
-20.91
40
2
50
270
51
306.3059944
0
ARC
8
0
10
76.1
20
-20.91
40
2
50
224.6538504
51
270
0
LINE
8
0
10
94.2701068
20
-23.1347449
11
108
21
-26.8136587
0
ARC
8
0
10
94.7877449
20
-21.2028932
40
2
50
221.2556351
51
255
0
LINE
8
0
10
130.3695272
20
-32.3097837
11
131.3162568
21
-30.67
0
LINE
8
0
10
123.5293386
20
-30.67
11
127.6374764
21
-33.0418345
0
ARC
8
0
10
128.6374764
20
-31.3097837
40
2
50
240
51
330
0
LINE
8
0
10
74.6772684
20
-22.3156439
11
44
21
-9.5
0
LINE
8
0
10
110
20
-30.67
11
123.5293386
21
-30.67
0
LINE
8
0
10
131.3162568
20
-30.67
11
138
21
-30.67
0
ARC
8
0
10
138
20
-28.67
40
2
50
270
51
360
0
LINE
8
0
10
140
20
-28.67
11
140
21
43.83
0
ARC
8
0
10
138
20
43.83
40
2
50
0
51
90
0
LINE
8
0
10
138
20
45.83
11
117.9943671
21
45.83
0
LINE
8
0
10
108
20
-26.8136587
11
108
21
-28.67
0
ARC
8
0
10
110
20
-28.67
40
2
50
180
51
270
0
ENDSEC
0
EOF