0
SECTION
2
HEADER
9
$INSUNITS
70
4
0
ENDSEC
0
SECTION
2
TABLES
0
TABLE
2
LTYPE
0
LTYPE
72
65
70
64
2
CONTINUOUS
3
______
73
0
40
0
0
ENDTAB
0
TABLE
2
LAYER
0
ENDTAB
0
ENDSEC
0
SECTION
2
ENTITIES
0
LINE
8
0
10
8
20
-8.5
11
46
21
-8.5
0
LINE
8
0
10
8
20
-8.5
11
8
21
42.5
0
LINE
8
0
10
8
20
42.5
11
44
21
42.5
0
LINE
8
0
10
46
20
-1.94
11
46
21
-8.5
0
LINE
8
0
10
46
20
-1.94
11
64
21
-1.94
0
LINE
8
0
10
64
20
0.42
11
64
21
-1.94
0
LINE
8
0
10
44
20
49.06
11
62
21
49.06
0
LINE
8
0
10
44
20
42.5
11
44
21
49.06
0
LINE
8
0
10
64
20
0.42
11
80
21
0.42
0
LINE
8
0
10
62
20
51.42
11
82
21
51.42
0
LINE
8
0
10
82
20
51.42
11
82
21
49.06
0
LINE
8
0
10
62
20
49.06
11
62
21
51.42
0
LINE
8
0
10
80
20
-1.94
11
98
21
-1.94
0
LINE
8
0
10
80
20
-1.94
11
80
21
0.42
0
LINE
8
0
10
82
20
49.06
11
100
21
49.06
0
LINE
8
0
10
100
20
49.06
11
100
21
46.68
0
LINE
8
0
10
98
20
-4.32
11
118
21
-4.32
0
LINE
8
0
10
118
20
-4.32
11
118
21
46.68
0
LINE
8
0
10
98
20
-4.32
11
98
21
-1.94
0
LINE
8
0
10
100
20
46.68
11
118
21
46.68
0
LINE
8
0
10
75.1
20
-21.91
11
93.1
21
-21.91
0
LINE
8
0
10
93.1
20
-21.91
11
93.1
21
-4.91
0
LINE
8
0
10
93.1
20
-4.91
11
75.1
21
-4.91
0
LINE
8
0
10
75.1
20
-4.91
11
75.1
21
-21.91
0
LINE
8
0
10
93.257
20
-21.939
11
110.6436649
21
-26.5977428
0
LINE
8
0
10
110.6436649
20
-26.5977428
11
115.0435886
21
-10.1770038
0
LINE
8
0
10
115.0435886
20
-10.1770038
11
97.6569237
21
-5.518261
0
LINE
8
0
10
97.6569237
20
-5.518261
11
93.257
21
-21.939
0
LINE
8
0
10
127.5770308
20
-31.1643189
11
136.5770308
21
-15.5758617
0
LINE
8
0
10
136.5770308
20
-15.5758617
11
121.854599
21
-7.0758617
0
LINE
8
0
10
121.854599
20
-7.0758617
11
112.854599
21
-22.6643189
0
LINE
8
0
10
112.854599
20
-22.6643189
11
127.5770308
21
-31.1643189
0
ENDSEC
0
EOF