0
SECTION
2
HEADER
9
$INSUNITS
70
4
0
ENDSEC
0
SECTION
2
TABLES
0
TABLE
2
LTYPE
0
LTYPE
72
65
70
64
2
CONTINUOUS
3
______
73
0
40
0
0
ENDTAB
0
TABLE
2
LAYER
0
ENDTAB
0
ENDSEC
0
SECTION
2
ENTITIES
0
LINE
8
0
10
8
20
-8.5
11
46
21
-8.5
0
LINE
8
0
10
8
20
-8.5
11
8
21
42.5
0
LINE
8
0
10
8
20
42.5
11
44
21
42.5
0
LINE
8
0
10
46
20
-1.94
11
46
21
-8.5
0
LINE
8
0
10
46
20
-1.94
11
64
21
-1.94
0
LINE
8
0
10
64
20
0.42
11
64
21
-1.94
0
LINE
8
0
10
44
20
49.06
11
62
21
49.06
0
LINE
8
0
10
44
20
42.5
11
44
21
49.06
0
LINE
8
0
10
64
20
0.42
11
80
21
0.42
0
LINE
8
0
10
62
20
51.42
11
82
21
51.42
0
LINE
8
0
10
82
20
51.42
11
82
21
49.06
0
LINE
8
0
10
62
20
49.06
11
62
21
51.42
0
LINE
8
0
10
80
20
-1.94
11
98
21
-1.94
0
LINE
8
0
10
80
20
-1.94
11
80
21
0.42
0
LINE
8
0
10
82
20
49.06
11
100
21
49.06
0
LINE
8
0
10
100
20
49.06
11
100
21
46.68
0
LINE
8
0
10
98
20
-4.32
11
118
21
-4.32
0
LINE
8
0
10
118
20
-4.32
11
118
21
46.68
0
LINE
8
0
10
98
20
-4.32
11
98
21
-1.94
0
LINE
8
0
10
100
20
46.68
11
118
21
46.68
0
LINE
8
0
10
75.1
20
-21.91
11
93.1
21
-21.91
0
LINE
8
0
10
93.1
20
-21.91
11
93.1
21
-4.91
0
LINE
8
0
10
93.1
20
-4.91
11
75.1
21
-4.91
0
LINE
8
0
10
75.1
20
-4.91
11
75.1
21
-21.91
0
LINE
8
0
10
93.563
20
-21.91
11
110.9496649
21
-26.5687428
0
LINE
8
0
10
110.9496649
20
-26.5687428
11
115.3495886
21
-10.1480038
0
LINE
8
0
10
115.3495886
20
-10.1480038
11
97.9629237
21
-5.489261
0
LINE
8
0
10
97.9629237
20
-5.489261
11
93.563
21
-21.91
0
LINE
8
0
10
129.0035018
20
-32.6758091
11
138.0035018
21
-17.0873519
0
LINE
8
0
10
138.0035018
20
-17.0873519
11
123.28107
21
-8.5873519
0
LINE
8
0
10
123.28107
20
-8.5873519
11
114.28107
21
-24.1758091
0
LINE
8
0
10
114.28107
20
-24.1758091
11
129.0035018
21
-32.6758091
0
ENDSEC
0
EOF