0
SECTION
2
HEADER
9
$INSUNITS
70
4
0
ENDSEC
0
SECTION
2
TABLES
0
TABLE
2
LTYPE
0
LTYPE
72
65
70
64
2
CONTINUOUS
3
______
73
0
40
0
0
ENDTAB
0
TABLE
2
LAYER
0
ENDTAB
0
ENDSEC
0
SECTION
2
ENTITIES
0
LINE
8
0
10
11
20
-7
11
25
21
-7
0
LINE
8
0
10
25
20
-7
11
25
21
7
0
LINE
8
0
10
25
20
7
11
11
21
7
0
LINE
8
0
10
11
20
7
11
11
21
-7
0
LINE
8
0
10
11
20
10
11
25
21
10
0
LINE
8
0
10
25
20
10
11
25
21
24
0
LINE
8
0
10
25
20
24
11
11
21
24
0
LINE
8
0
10
11
20
24
11
11
21
10
0
LINE
8
0
10
11
20
27
11
25
21
27
0
LINE
8
0
10
25
20
27
11
25
21
41
0
LINE
8
0
10
25
20
41
11
11
21
41
0
LINE
8
0
10
11
20
41
11
11
21
27
0
LINE
8
0
10
29
20
-7
11
43
21
-7
0
LINE
8
0
10
43
20
-7
11
43
21
7
0
LINE
8
0
10
43
20
7
11
29
21
7
0
LINE
8
0
10
29
20
7
11
29
21
-7
0
LINE
8
0
10
29
20
10
11
43
21
10
0
LINE
8
0
10
43
20
10
11
43
21
24
0
LINE
8
0
10
43
20
24
11
29
21
24
0
LINE
8
0
10
29
20
24
11
29
21
10
0
LINE
8
0
10
29
20
27
11
43
21
27
0
LINE
8
0
10
43
20
27
11
43
21
41
0
LINE
8
0
10
43
20
41
11
29
21
41
0
LINE
8
0
10
29
20
41
11
29
21
27
0
LINE
8
0
10
47
20
-0.44
11
61
21
-0.44
0
LINE
8
0
10
61
20
-0.44
11
61
21
13.56
0
LINE
8
0
10
61
20
13.56
11
47
21
13.56
0
LINE
8
0
10
47
20
13.56
11
47
21
-0.44
0
LINE
8
0
10
47
20
16.56
11
61
21
16.56
0
LINE
8
0
10
61
20
16.56
11
61
21
30.56
0
LINE
8
0
10
61
20
30.56
11
47
21
30.56
0
LINE
8
0
10
47
20
30.56
11
47
21
16.56
0
LINE
8
0
10
47
20
33.56
11
61
21
33.56
0
LINE
8
0
10
61
20
33.56
11
61
21
47.56
0
LINE
8
0
10
61
20
47.56
11
47
21
47.56
0
LINE
8
0
10
47
20
47.56
11
47
21
33.56
0
LINE
8
0
10
65
20
1.92
11
79
21
1.92
0
LINE
8
0
10
79
20
1.92
11
79
21
15.92
0
LINE
8
0
10
79
20
15.92
11
65
21
15.92
0
LINE
8
0
10
65
20
15.92
11
65
21
1.92
0
LINE
8
0
10
65
20
18.92
11
79
21
18.92
0
LINE
8
0
10
79
20
18.92
11
79
21
32.92
0
LINE
8
0
10
79
20
32.92
11
65
21
32.92
0
LINE
8
0
10
65
20
32.92
11
65
21
18.92
0
LINE
8
0
10
65
20
35.92
11
79
21
35.92
0
LINE
8
0
10
79
20
35.92
11
79
21
49.92
0
LINE
8
0
10
79
20
49.92
11
65
21
49.92
0
LINE
8
0
10
65
20
49.92
11
65
21
35.92
0
LINE
8
0
10
83
20
-0.44
11
97
21
-0.44
0
LINE
8
0
10
97
20
-0.44
11
97
21
13.56
0
LINE
8
0
10
97
20
13.56
11
83
21
13.56
0
LINE
8
0
10
83
20
13.56
11
83
21
-0.44
0
LINE
8
0
10
83
20
16.56
11
97
21
16.56
0
LINE
8
0
10
97
20
16.56
11
97
21
30.56
0
LINE
8
0
10
97
20
30.56
11
83
21
30.56
0
LINE
8
0
10
83
20
30.56
11
83
21
16.56
0
LINE
8
0
10
83
20
33.56
11
97
21
33.56
0
LINE
8
0
10
97
20
33.56
11
97
21
47.56
0
LINE
8
0
10
97
20
47.56
11
83
21
47.56
0
LINE
8
0
10
83
20
47.56
11
83
21
33.56
0
LINE
8
0
10
101
20
-2.82
11
115
21
-2.82
0
LINE
8
0
10
115
20
-2.82
11
115
21
11.18
0
LINE
8
0
10
115
20
11.18
11
101
21
11.18
0
LINE
8
0
10
101
20
11.18
11
101
21
-2.82
0
LINE
8
0
10
101
20
14.18
11
115
21
14.18
0
LINE
8
0
10
115
20
14.18
11
115
21
28.18
0
LINE
8
0
10
115
20
28.18
11
101
21
28.18
0
LINE
8
0
10
101
20
28.18
11
101
21
14.18
0
LINE
8
0
10
101
20
31.18
11
115
21
31.18
0
LINE
8
0
10
115
20
31.18
11
115
21
45.18
0
LINE
8
0
10
115
20
45.18
11
101
21
45.18
0
LINE
8
0
10
101
20
45.18
11
101
21
31.18
0
LINE
8
0
10
77.1
20
-20.41
11
91.1
21
-20.41
0
LINE
8
0
10
91.1
20
-20.41
11
91.1
21
-6.41
0
LINE
8
0
10
91.1
20
-6.41
11
77.1
21
-6.41
0
LINE
8
0
10
77.1
20
-6.41
11
77.1
21
-20.41
0
LINE
8
0
10
95.5770802
20
-21.0077494
11
109.1000418
21
-24.631216
0
LINE
8
0
10
109.1000418
20
-24.631216
11
112.7235084
21
-11.1082544
0
LINE
8
0
10
112.7235084
20
-11.1082544
11
99.2005468
21
-7.4847878
0
LINE
8
0
10
99.2005468
20
-7.4847878
11
95.5770802
21
-21.0077494
0
LINE
8
0
10
127.2779927
20
-28.6822681
11
134.2779927
21
-16.5579125
0
LINE
8
0
10
134.2779927
20
-16.5579125
11
122.1536371
21
-9.5579125
0
LINE
8
0
10
122.1536371
20
-9.5579125
11
115.1536371
21
-21.6822681
0
LINE
8
0
10
115.1536371
20
-21.6822681
11
127.2779927
21
-28.6822681
0
ENDSEC
0
EOF